<mxfile host="app.diagrams.net" modified="2024-11-23T06:13:53.287Z" agent="Mozilla/5.0 (Windows NT 10.0; Win64; x64) AppleWebKit/537.36 (KHTML, like Gecko) Chrome/128.0.0.0 YaBrowser/24.10.0.0 Safari/537.36" etag="ymTtMxi27yqSkEoGhxAo" version="24.2.2" type="google">
  <diagram name="Page-1" id="12e1b939-464a-85fe-373e-61e167be1490">
    <mxGraphModel grid="1" page="1" gridSize="10" guides="1" tooltips="1" connect="1" arrows="1" fold="1" pageScale="1.5" pageWidth="1169" pageHeight="826" background="none" math="0" shadow="0">
      <root>
        <mxCell id="0" />
        <mxCell id="1" parent="0" />
        <mxCell id="3BRQNajPM5yB8tm0Zg5W-226" value="" style="whiteSpace=wrap;html=1;rounded=1;shadow=0;strokeWidth=8;fontSize=20;align=center;fillColor=#FE9900;strokeColor=#FFFFFF;" vertex="1" parent="1">
          <mxGeometry x="2122.37" y="1180" width="280" height="430" as="geometry" />
        </mxCell>
        <mxCell id="3BRQNajPM5yB8tm0Zg5W-11" value="" style="whiteSpace=wrap;html=1;rounded=1;shadow=0;strokeWidth=8;fontSize=20;align=center;fillColor=#FE9900;strokeColor=#FFFFFF;" vertex="1" parent="1">
          <mxGeometry x="699" y="81" width="283.26" height="435" as="geometry" />
        </mxCell>
        <mxCell id="3BRQNajPM5yB8tm0Zg5W-10" value="" style="whiteSpace=wrap;html=1;rounded=1;shadow=0;strokeWidth=8;fontSize=20;align=center;fillColor=#FE9900;strokeColor=#FFFFFF;" vertex="1" parent="1">
          <mxGeometry x="414" y="81" width="283.26" height="435" as="geometry" />
        </mxCell>
        <mxCell id="3BRQNajPM5yB8tm0Zg5W-9" value="" style="whiteSpace=wrap;html=1;rounded=1;shadow=0;strokeWidth=8;fontSize=20;align=center;fillColor=#FE9900;strokeColor=#FFFFFF;" vertex="1" parent="1">
          <mxGeometry x="130" y="81" width="283.26" height="435" as="geometry" />
        </mxCell>
        <mxCell id="60da8b9f42644d3a-3" value="Шаблон" style="text;html=1;strokeColor=none;fillColor=none;align=center;verticalAlign=middle;whiteSpace=wrap;rounded=0;shadow=0;fontSize=27;fontColor=#FFFFFF;fontStyle=1" vertex="1" parent="1">
          <mxGeometry x="137" y="106" width="280" height="60" as="geometry" />
        </mxCell>
        <mxCell id="60da8b9f42644d3a-4" value="Макет, подходящий по условиям" style="text;html=1;strokeColor=none;fillColor=none;align=center;verticalAlign=middle;whiteSpace=wrap;rounded=0;shadow=0;fontSize=14;fontColor=#FFFFFF;" vertex="1" parent="1">
          <mxGeometry x="137" y="406" width="280" height="90" as="geometry" />
        </mxCell>
        <mxCell id="60da8b9f42644d3a-6" value="" style="line;strokeWidth=2;html=1;rounded=0;shadow=0;fontSize=27;align=center;fillColor=none;strokeColor=#FFFFFF;" vertex="1" parent="1">
          <mxGeometry x="157" y="166" width="240" height="10" as="geometry" />
        </mxCell>
        <mxCell id="60da8b9f42644d3a-7" value="" style="line;strokeWidth=2;html=1;rounded=0;shadow=0;fontSize=27;align=center;fillColor=none;strokeColor=#FFFFFF;" vertex="1" parent="1">
          <mxGeometry x="157" y="386" width="240" height="10" as="geometry" />
        </mxCell>
        <mxCell id="60da8b9f42644d3a-8" value="&lt;font style=&quot;font-size: 24px;&quot;&gt;Лиза&lt;/font&gt;" style="ellipse;whiteSpace=wrap;html=1;rounded=0;shadow=0;strokeWidth=6;fontSize=14;align=center;fillColor=#BFB4A9;strokeColor=#FFFFFF;fontColor=#FFFFFF;" vertex="1" parent="1">
          <mxGeometry x="80" y="226" width="115" height="115" as="geometry" />
        </mxCell>
        <mxCell id="60da8b9f42644d3a-9" value="" style="html=1;shadow=0;dashed=0;align=center;verticalAlign=middle;shape=mxgraph.arrows2.stylisedArrow;dy=0.6;dx=40;notch=15;feather=0.4;rounded=0;strokeWidth=1;fontSize=27;strokeColor=none;fillColor=#fff2cc;" vertex="1" parent="1">
          <mxGeometry x="227" y="254" width="100" height="60" as="geometry" />
        </mxCell>
        <mxCell id="60da8b9f42644d3a-18" value="Базы данных" style="text;html=1;strokeColor=none;fillColor=none;align=center;verticalAlign=middle;whiteSpace=wrap;rounded=0;shadow=0;fontSize=27;fontColor=#FFFFFF;fontStyle=1" vertex="1" parent="1">
          <mxGeometry x="417" y="106" width="280" height="60" as="geometry" />
        </mxCell>
        <mxCell id="60da8b9f42644d3a-19" value="Обработка жизнеспособности макета, парсинг пдф, создание баз и внесение информации в них" style="text;html=1;strokeColor=none;fillColor=none;align=center;verticalAlign=middle;whiteSpace=wrap;rounded=0;shadow=0;fontSize=14;fontColor=#FFFFFF;" vertex="1" parent="1">
          <mxGeometry x="417" y="406" width="280" height="90" as="geometry" />
        </mxCell>
        <mxCell id="60da8b9f42644d3a-20" value="" style="line;strokeWidth=2;html=1;rounded=0;shadow=0;fontSize=27;align=center;fillColor=none;strokeColor=#FFFFFF;" vertex="1" parent="1">
          <mxGeometry x="437" y="166" width="240" height="10" as="geometry" />
        </mxCell>
        <mxCell id="60da8b9f42644d3a-21" value="" style="line;strokeWidth=2;html=1;rounded=0;shadow=0;fontSize=27;align=center;fillColor=none;strokeColor=#FFFFFF;" vertex="1" parent="1">
          <mxGeometry x="437" y="386" width="240" height="10" as="geometry" />
        </mxCell>
        <mxCell id="60da8b9f42644d3a-22" value="&lt;font style=&quot;font-size: 24px;&quot;&gt;Филипп&lt;/font&gt;" style="ellipse;whiteSpace=wrap;html=1;rounded=0;shadow=0;strokeWidth=6;fontSize=14;align=center;fillColor=#397DAA;strokeColor=#FFFFFF;fontColor=#FFFFFF;" vertex="1" parent="1">
          <mxGeometry x="360" y="226" width="115" height="115" as="geometry" />
        </mxCell>
        <mxCell id="60da8b9f42644d3a-23" value="" style="html=1;shadow=0;dashed=0;align=center;verticalAlign=middle;shape=mxgraph.arrows2.stylisedArrow;dy=0.6;dx=40;notch=15;feather=0.4;rounded=0;strokeWidth=1;fontSize=27;strokeColor=none;fillColor=#fff2cc;" vertex="1" parent="1">
          <mxGeometry x="507" y="254" width="100" height="60" as="geometry" />
        </mxCell>
        <mxCell id="60da8b9f42644d3a-25" value="React" style="text;html=1;strokeColor=none;fillColor=none;align=center;verticalAlign=middle;whiteSpace=wrap;rounded=0;shadow=0;fontSize=27;fontColor=#FFFFFF;fontStyle=1" vertex="1" parent="1">
          <mxGeometry x="697" y="106" width="280" height="60" as="geometry" />
        </mxCell>
        <mxCell id="60da8b9f42644d3a-26" value="Разработка сайта по макету" style="text;html=1;strokeColor=none;fillColor=none;align=center;verticalAlign=middle;whiteSpace=wrap;rounded=0;shadow=0;fontSize=14;fontColor=#FFFFFF;" vertex="1" parent="1">
          <mxGeometry x="697" y="406" width="280" height="90" as="geometry" />
        </mxCell>
        <mxCell id="60da8b9f42644d3a-27" value="" style="line;strokeWidth=2;html=1;rounded=0;shadow=0;fontSize=27;align=center;fillColor=none;strokeColor=#FFFFFF;" vertex="1" parent="1">
          <mxGeometry x="717" y="166" width="240" height="10" as="geometry" />
        </mxCell>
        <mxCell id="60da8b9f42644d3a-28" value="" style="line;strokeWidth=2;html=1;rounded=0;shadow=0;fontSize=27;align=center;fillColor=none;strokeColor=#FFFFFF;" vertex="1" parent="1">
          <mxGeometry x="717" y="386" width="240" height="10" as="geometry" />
        </mxCell>
        <mxCell id="60da8b9f42644d3a-29" value="&lt;font style=&quot;font-size: 24px;&quot;&gt;Игорь&lt;/font&gt;" style="ellipse;whiteSpace=wrap;html=1;rounded=0;shadow=0;strokeWidth=6;fontSize=14;align=center;fillColor=#EF9353;strokeColor=#FFFFFF;fontColor=#FFFFFF;" vertex="1" parent="1">
          <mxGeometry x="640" y="198.5" width="115" height="115" as="geometry" />
        </mxCell>
        <mxCell id="60da8b9f42644d3a-30" value="" style="html=1;shadow=0;dashed=0;align=center;verticalAlign=middle;shape=mxgraph.arrows2.stylisedArrow;dy=0.6;dx=40;notch=15;feather=0.4;rounded=0;strokeWidth=1;fontSize=27;strokeColor=none;fillColor=#fff2cc;" vertex="1" parent="1">
          <mxGeometry x="787" y="254" width="100" height="60" as="geometry" />
        </mxCell>
        <mxCell id="60da8b9f42644d3a-31" value="" style="whiteSpace=wrap;html=1;rounded=1;shadow=0;strokeWidth=8;fontSize=20;align=center;fillColor=#FE9900;strokeColor=#FFFFFF;" vertex="1" parent="1">
          <mxGeometry x="984" y="80" width="283.26" height="435" as="geometry" />
        </mxCell>
        <mxCell id="60da8b9f42644d3a-32" value="Обработка проделанного" style="text;html=1;strokeColor=none;fillColor=none;align=center;verticalAlign=middle;whiteSpace=wrap;rounded=0;shadow=0;fontSize=27;fontColor=#FFFFFF;fontStyle=1" vertex="1" parent="1">
          <mxGeometry x="990" y="100" width="280" height="60" as="geometry" />
        </mxCell>
        <mxCell id="60da8b9f42644d3a-33" value="Контроль совпадения ожидаемого с готовым, внесение корректировок." style="text;html=1;strokeColor=none;fillColor=none;align=center;verticalAlign=middle;whiteSpace=wrap;rounded=0;shadow=0;fontSize=14;fontColor=#FFFFFF;" vertex="1" parent="1">
          <mxGeometry x="990" y="400" width="280" height="90" as="geometry" />
        </mxCell>
        <mxCell id="60da8b9f42644d3a-34" value="" style="line;strokeWidth=2;html=1;rounded=0;shadow=0;fontSize=27;align=center;fillColor=none;strokeColor=#FFFFFF;" vertex="1" parent="1">
          <mxGeometry x="1010" y="160" width="240" height="10" as="geometry" />
        </mxCell>
        <mxCell id="60da8b9f42644d3a-35" value="" style="line;strokeWidth=2;html=1;rounded=0;shadow=0;fontSize=27;align=center;fillColor=none;strokeColor=#FFFFFF;" vertex="1" parent="1">
          <mxGeometry x="1010" y="380" width="240" height="10" as="geometry" />
        </mxCell>
        <mxCell id="60da8b9f42644d3a-36" value="&lt;font style=&quot;font-size: 24px;&quot;&gt;Рома&lt;/font&gt;" style="ellipse;whiteSpace=wrap;html=1;rounded=0;shadow=0;strokeWidth=6;fontSize=14;align=center;fillColor=#68B85C;strokeColor=#FFFFFF;fontColor=#FFFFFF;" vertex="1" parent="1">
          <mxGeometry x="640" y="271" width="115" height="115" as="geometry" />
        </mxCell>
        <mxCell id="60da8b9f42644d3a-37" value="" style="html=1;shadow=0;dashed=0;align=center;verticalAlign=middle;shape=mxgraph.arrows2.stylisedArrow;dy=0.6;dx=40;notch=15;feather=0.4;rounded=0;strokeWidth=1;fontSize=27;strokeColor=none;fillColor=#fff2cc;" vertex="1" parent="1">
          <mxGeometry x="1075.63" y="253.5" width="100" height="60" as="geometry" />
        </mxCell>
        <mxCell id="60da8b9f42644d3a-38" value="&lt;font style=&quot;font-size: 24px;&quot;&gt;Стёпа&lt;/font&gt;" style="ellipse;whiteSpace=wrap;html=1;rounded=0;shadow=0;strokeWidth=6;fontSize=14;align=center;fillColor=#BF639A;strokeColor=#FFFFFF;fontColor=#FFFFFF;" vertex="1" parent="1">
          <mxGeometry x="930" y="226.5" width="115" height="115" as="geometry" />
        </mxCell>
        <mxCell id="3BRQNajPM5yB8tm0Zg5W-12" value="" style="whiteSpace=wrap;html=1;rounded=1;shadow=0;strokeWidth=8;fontSize=20;align=center;fillColor=#FE9900;strokeColor=#FFFFFF;" vertex="1" parent="1">
          <mxGeometry x="1270" y="80" width="283.26" height="435" as="geometry" />
        </mxCell>
        <mxCell id="3BRQNajPM5yB8tm0Zg5W-13" value="Презентация" style="text;html=1;strokeColor=none;fillColor=none;align=center;verticalAlign=middle;whiteSpace=wrap;rounded=0;shadow=0;fontSize=27;fontColor=#FFFFFF;fontStyle=1" vertex="1" parent="1">
          <mxGeometry x="1277" y="105" width="280" height="60" as="geometry" />
        </mxCell>
        <mxCell id="3BRQNajPM5yB8tm0Zg5W-14" value="Создание красивой презентации проекта, совпадающей с дизайном сайта" style="text;html=1;strokeColor=none;fillColor=none;align=center;verticalAlign=middle;whiteSpace=wrap;rounded=0;shadow=0;fontSize=14;fontColor=#FFFFFF;" vertex="1" parent="1">
          <mxGeometry x="1270" y="400" width="280" height="90" as="geometry" />
        </mxCell>
        <mxCell id="3BRQNajPM5yB8tm0Zg5W-15" value="" style="line;strokeWidth=2;html=1;rounded=0;shadow=0;fontSize=27;align=center;fillColor=none;strokeColor=#FFFFFF;" vertex="1" parent="1">
          <mxGeometry x="1297" y="165" width="240" height="10" as="geometry" />
        </mxCell>
        <mxCell id="3BRQNajPM5yB8tm0Zg5W-16" value="" style="line;strokeWidth=2;html=1;rounded=0;shadow=0;fontSize=27;align=center;fillColor=none;strokeColor=#FFFFFF;" vertex="1" parent="1">
          <mxGeometry x="1297" y="385" width="240" height="10" as="geometry" />
        </mxCell>
        <mxCell id="3BRQNajPM5yB8tm0Zg5W-17" value="&lt;font style=&quot;font-size: 24px;&quot;&gt;Лиза&lt;/font&gt;" style="ellipse;whiteSpace=wrap;html=1;rounded=0;shadow=0;strokeWidth=6;fontSize=14;align=center;fillColor=#BFB4A9;strokeColor=#FFFFFF;fontColor=#FFFFFF;" vertex="1" parent="1">
          <mxGeometry x="1220" y="225" width="115" height="115" as="geometry" />
        </mxCell>
        <mxCell id="3BRQNajPM5yB8tm0Zg5W-18" value="" style="html=1;shadow=0;dashed=0;align=center;verticalAlign=middle;shape=mxgraph.arrows2.stylisedArrow;dy=0.6;dx=40;notch=15;feather=0.4;rounded=0;strokeWidth=1;fontSize=27;strokeColor=none;fillColor=#fff2cc;" vertex="1" parent="1">
          <mxGeometry x="1367" y="253" width="100" height="60" as="geometry" />
        </mxCell>
        <mxCell id="3BRQNajPM5yB8tm0Zg5W-19" value="&lt;font style=&quot;font-size: 24px;&quot;&gt;Чек-лист&lt;/font&gt;" style="rhombus;whiteSpace=wrap;html=1;fillColor=#FFCCCC;strokeColor=#FFFFFF;shadow=1;" vertex="1" parent="1">
          <mxGeometry x="1485" y="216" width="135" height="134" as="geometry" />
        </mxCell>
        <mxCell id="3BRQNajPM5yB8tm0Zg5W-20" value="" style="whiteSpace=wrap;html=1;rounded=1;shadow=0;strokeWidth=8;fontSize=20;align=center;fillColor=#FE9900;strokeColor=#FFFFFF;" vertex="1" parent="1">
          <mxGeometry x="413.74" y="630" width="283.26" height="435" as="geometry" />
        </mxCell>
        <mxCell id="3BRQNajPM5yB8tm0Zg5W-21" value="" style="whiteSpace=wrap;html=1;rounded=1;shadow=0;strokeWidth=8;fontSize=20;align=center;fillColor=#FE9900;strokeColor=#FFFFFF;" vertex="1" parent="1">
          <mxGeometry x="129.74" y="630" width="283.26" height="435" as="geometry" />
        </mxCell>
        <mxCell id="3BRQNajPM5yB8tm0Zg5W-22" value="Условия макета" style="text;html=1;strokeColor=none;fillColor=none;align=center;verticalAlign=middle;whiteSpace=wrap;rounded=0;shadow=0;fontSize=27;fontColor=#FFFFFF;fontStyle=1" vertex="1" parent="1">
          <mxGeometry x="136.74" y="655" width="280" height="60" as="geometry" />
        </mxCell>
        <mxCell id="3BRQNajPM5yB8tm0Zg5W-23" value="&lt;font style=&quot;font-size: 18px;&quot;&gt;Чек-лист в диаграмме&lt;/font&gt;" style="text;html=1;strokeColor=none;fillColor=none;align=center;verticalAlign=middle;whiteSpace=wrap;rounded=0;shadow=0;fontSize=14;fontColor=#FFFFFF;" vertex="1" parent="1">
          <mxGeometry x="136.74" y="955" width="280" height="90" as="geometry" />
        </mxCell>
        <mxCell id="3BRQNajPM5yB8tm0Zg5W-24" value="" style="line;strokeWidth=2;html=1;rounded=0;shadow=0;fontSize=27;align=center;fillColor=none;strokeColor=#FFFFFF;" vertex="1" parent="1">
          <mxGeometry x="156.74" y="715" width="240" height="10" as="geometry" />
        </mxCell>
        <mxCell id="3BRQNajPM5yB8tm0Zg5W-25" value="" style="line;strokeWidth=2;html=1;rounded=0;shadow=0;fontSize=27;align=center;fillColor=none;strokeColor=#FFFFFF;" vertex="1" parent="1">
          <mxGeometry x="156.74" y="935" width="240" height="10" as="geometry" />
        </mxCell>
        <mxCell id="3BRQNajPM5yB8tm0Zg5W-26" value="&lt;font style=&quot;font-size: 24px;&quot;&gt;Лиза&lt;/font&gt;" style="ellipse;whiteSpace=wrap;html=1;rounded=0;shadow=0;strokeWidth=6;fontSize=14;align=center;fillColor=#BFB4A9;strokeColor=#FFFFFF;fontColor=#FFFFFF;" vertex="1" parent="1">
          <mxGeometry x="79.74" y="775" width="115" height="115" as="geometry" />
        </mxCell>
        <mxCell id="3BRQNajPM5yB8tm0Zg5W-27" value="" style="html=1;shadow=0;dashed=0;align=center;verticalAlign=middle;shape=mxgraph.arrows2.stylisedArrow;dy=0.6;dx=40;notch=15;feather=0.4;rounded=0;strokeWidth=1;fontSize=27;strokeColor=none;fillColor=#fff2cc;" vertex="1" parent="1">
          <mxGeometry x="226.74" y="803" width="100" height="60" as="geometry" />
        </mxCell>
        <mxCell id="3BRQNajPM5yB8tm0Zg5W-28" value="Фильтрация по параметрам" style="text;html=1;strokeColor=none;fillColor=none;align=center;verticalAlign=middle;whiteSpace=wrap;rounded=0;shadow=0;fontSize=27;fontColor=#FFFFFF;fontStyle=1" vertex="1" parent="1">
          <mxGeometry x="416.74" y="655" width="280" height="60" as="geometry" />
        </mxCell>
        <mxCell id="3BRQNajPM5yB8tm0Zg5W-29" value="&lt;font style=&quot;font-size: 18px;&quot;&gt;Далее будут параметры&lt;/font&gt;" style="text;html=1;strokeColor=none;fillColor=none;align=center;verticalAlign=middle;whiteSpace=wrap;rounded=0;shadow=0;fontSize=14;fontColor=#FFFFFF;" vertex="1" parent="1">
          <mxGeometry x="416.74" y="955" width="280" height="90" as="geometry" />
        </mxCell>
        <mxCell id="3BRQNajPM5yB8tm0Zg5W-30" value="" style="line;strokeWidth=2;html=1;rounded=0;shadow=0;fontSize=27;align=center;fillColor=none;strokeColor=#FFFFFF;" vertex="1" parent="1">
          <mxGeometry x="436.74" y="715" width="240" height="10" as="geometry" />
        </mxCell>
        <mxCell id="3BRQNajPM5yB8tm0Zg5W-31" value="" style="line;strokeWidth=2;html=1;rounded=0;shadow=0;fontSize=27;align=center;fillColor=none;strokeColor=#FFFFFF;" vertex="1" parent="1">
          <mxGeometry x="436.74" y="935" width="240" height="10" as="geometry" />
        </mxCell>
        <mxCell id="3BRQNajPM5yB8tm0Zg5W-33" value="" style="html=1;shadow=0;dashed=0;align=center;verticalAlign=middle;shape=mxgraph.arrows2.stylisedArrow;dy=0.6;dx=40;notch=15;feather=0.4;rounded=0;strokeWidth=1;fontSize=27;strokeColor=none;fillColor=#fff2cc;" vertex="1" parent="1">
          <mxGeometry x="506.74" y="803" width="100" height="60" as="geometry" />
        </mxCell>
        <mxCell id="3BRQNajPM5yB8tm0Zg5W-34" value="&lt;font style=&quot;font-size: 24px;&quot;&gt;Лиза&lt;/font&gt;" style="ellipse;whiteSpace=wrap;html=1;rounded=0;shadow=0;strokeWidth=6;fontSize=14;align=center;fillColor=#BFB4A9;strokeColor=#FFFFFF;fontColor=#FFFFFF;" vertex="1" parent="1">
          <mxGeometry x="360" y="775" width="115" height="115" as="geometry" />
        </mxCell>
        <mxCell id="3BRQNajPM5yB8tm0Zg5W-100" value="" style="whiteSpace=wrap;html=1;rounded=1;shadow=0;strokeWidth=8;fontSize=20;align=center;fillColor=#FFB001;strokeColor=#FFFFFF;" vertex="1" parent="1">
          <mxGeometry x="700.63" y="630" width="280" height="430" as="geometry" />
        </mxCell>
        <mxCell id="3BRQNajPM5yB8tm0Zg5W-103" value="" style="whiteSpace=wrap;html=1;rounded=1;shadow=0;strokeWidth=8;fontSize=20;align=center;fillColor=#FFB001;strokeColor=#FFFFFF;" vertex="1" parent="1">
          <mxGeometry x="699" y="632.5" width="280" height="430" as="geometry" />
        </mxCell>
        <mxCell id="3BRQNajPM5yB8tm0Zg5W-104" value="Вид спорта" style="text;html=1;strokeColor=none;fillColor=none;align=center;verticalAlign=middle;whiteSpace=wrap;rounded=0;shadow=0;fontSize=27;fontColor=#FFFFFF;fontStyle=1" vertex="1" parent="1">
          <mxGeometry x="699" y="652.5" width="280" height="60" as="geometry" />
        </mxCell>
        <mxCell id="3BRQNajPM5yB8tm0Zg5W-105" value="&lt;font style=&quot;font-size: 18px;&quot;&gt;Баскетбол, плаванье и т.п.&lt;/font&gt;" style="text;html=1;strokeColor=none;fillColor=none;align=center;verticalAlign=middle;whiteSpace=wrap;rounded=0;shadow=0;fontSize=14;fontColor=#FFFFFF;" vertex="1" parent="1">
          <mxGeometry x="699" y="952.5" width="280" height="90" as="geometry" />
        </mxCell>
        <mxCell id="3BRQNajPM5yB8tm0Zg5W-106" value="" style="line;strokeWidth=2;html=1;rounded=0;shadow=0;fontSize=27;align=center;fillColor=none;strokeColor=#FFFFFF;" vertex="1" parent="1">
          <mxGeometry x="719" y="712.5" width="240" height="10" as="geometry" />
        </mxCell>
        <mxCell id="3BRQNajPM5yB8tm0Zg5W-107" value="" style="line;strokeWidth=2;html=1;rounded=0;shadow=0;fontSize=27;align=center;fillColor=none;strokeColor=#FFFFFF;" vertex="1" parent="1">
          <mxGeometry x="719" y="932.5" width="240" height="10" as="geometry" />
        </mxCell>
        <mxCell id="3BRQNajPM5yB8tm0Zg5W-108" value="" style="html=1;shadow=0;dashed=0;align=center;verticalAlign=middle;shape=mxgraph.arrows2.stylisedArrow;dy=0.6;dx=40;notch=15;feather=0.4;rounded=0;strokeWidth=1;fontSize=27;strokeColor=none;fillColor=#fff2cc;" vertex="1" parent="1">
          <mxGeometry x="789" y="800.5" width="100" height="60" as="geometry" />
        </mxCell>
        <mxCell id="3BRQNajPM5yB8tm0Zg5W-48" value="&lt;font style=&quot;font-size: 24px;&quot;&gt;Лиза&lt;/font&gt;" style="ellipse;whiteSpace=wrap;html=1;rounded=0;shadow=0;strokeWidth=6;fontSize=14;align=center;fillColor=#BFB4A9;strokeColor=#FFFFFF;fontColor=#FFFFFF;" vertex="1" parent="1">
          <mxGeometry x="640" y="775.5" width="115" height="115" as="geometry" />
        </mxCell>
        <mxCell id="3BRQNajPM5yB8tm0Zg5W-115" value="" style="whiteSpace=wrap;html=1;rounded=1;shadow=0;strokeWidth=8;fontSize=20;align=center;fillColor=#FFB001;strokeColor=#FFFFFF;" vertex="1" parent="1">
          <mxGeometry x="980.63" y="632.5" width="280" height="430" as="geometry" />
        </mxCell>
        <mxCell id="3BRQNajPM5yB8tm0Zg5W-116" value="" style="whiteSpace=wrap;html=1;rounded=1;shadow=0;strokeWidth=8;fontSize=20;align=center;fillColor=#FFB001;strokeColor=#FFFFFF;" vertex="1" parent="1">
          <mxGeometry x="982.26" y="632.5" width="280" height="430" as="geometry" />
        </mxCell>
        <mxCell id="3BRQNajPM5yB8tm0Zg5W-117" value="Дисциплина" style="text;html=1;strokeColor=none;fillColor=none;align=center;verticalAlign=middle;whiteSpace=wrap;rounded=0;shadow=0;fontSize=27;fontColor=#FFFFFF;fontStyle=1" vertex="1" parent="1">
          <mxGeometry x="979" y="655" width="280" height="60" as="geometry" />
        </mxCell>
        <mxCell id="3BRQNajPM5yB8tm0Zg5W-118" value="&lt;font style=&quot;font-size: 18px;&quot;&gt;Тип состязания (бег на 30, 60, 100м)&lt;/font&gt;" style="text;html=1;strokeColor=none;fillColor=none;align=center;verticalAlign=middle;whiteSpace=wrap;rounded=0;shadow=0;fontSize=14;fontColor=#FFFFFF;" vertex="1" parent="1">
          <mxGeometry x="979" y="955" width="280" height="90" as="geometry" />
        </mxCell>
        <mxCell id="3BRQNajPM5yB8tm0Zg5W-119" value="" style="line;strokeWidth=2;html=1;rounded=0;shadow=0;fontSize=27;align=center;fillColor=none;strokeColor=#FFFFFF;" vertex="1" parent="1">
          <mxGeometry x="999" y="715" width="240" height="10" as="geometry" />
        </mxCell>
        <mxCell id="3BRQNajPM5yB8tm0Zg5W-120" value="" style="line;strokeWidth=2;html=1;rounded=0;shadow=0;fontSize=27;align=center;fillColor=none;strokeColor=#FFFFFF;" vertex="1" parent="1">
          <mxGeometry x="999" y="935" width="240" height="10" as="geometry" />
        </mxCell>
        <mxCell id="3BRQNajPM5yB8tm0Zg5W-121" value="" style="html=1;shadow=0;dashed=0;align=center;verticalAlign=middle;shape=mxgraph.arrows2.stylisedArrow;dy=0.6;dx=40;notch=15;feather=0.4;rounded=0;strokeWidth=1;fontSize=27;strokeColor=none;fillColor=#fff2cc;" vertex="1" parent="1">
          <mxGeometry x="1069" y="803" width="100" height="60" as="geometry" />
        </mxCell>
        <mxCell id="3BRQNajPM5yB8tm0Zg5W-122" value="&lt;font style=&quot;font-size: 24px;&quot;&gt;Лиза&lt;/font&gt;" style="ellipse;whiteSpace=wrap;html=1;rounded=0;shadow=0;strokeWidth=6;fontSize=14;align=center;fillColor=#BFB4A9;strokeColor=#FFFFFF;fontColor=#FFFFFF;" vertex="1" parent="1">
          <mxGeometry x="920" y="778" width="115" height="115" as="geometry" />
        </mxCell>
        <mxCell id="3BRQNajPM5yB8tm0Zg5W-123" value="" style="whiteSpace=wrap;html=1;rounded=1;shadow=0;strokeWidth=8;fontSize=20;align=center;fillColor=#FFB001;strokeColor=#FFFFFF;" vertex="1" parent="1">
          <mxGeometry x="1270" y="630" width="280" height="430" as="geometry" />
        </mxCell>
        <mxCell id="3BRQNajPM5yB8tm0Zg5W-124" value="" style="whiteSpace=wrap;html=1;rounded=1;shadow=0;strokeWidth=8;fontSize=20;align=center;fillColor=#FFB001;strokeColor=#FFFFFF;" vertex="1" parent="1">
          <mxGeometry x="1268.37" y="632.5" width="280" height="430" as="geometry" />
        </mxCell>
        <mxCell id="3BRQNajPM5yB8tm0Zg5W-125" value="Программа" style="text;html=1;strokeColor=none;fillColor=none;align=center;verticalAlign=middle;whiteSpace=wrap;rounded=0;shadow=0;fontSize=27;fontColor=#FFFFFF;fontStyle=1" vertex="1" parent="1">
          <mxGeometry x="1268.37" y="652.5" width="280" height="60" as="geometry" />
        </mxCell>
        <mxCell id="3BRQNajPM5yB8tm0Zg5W-126" value="&lt;font style=&quot;font-size: 18px;&quot;&gt;==Дисциплина&lt;/font&gt;" style="text;html=1;strokeColor=none;fillColor=none;align=center;verticalAlign=middle;whiteSpace=wrap;rounded=0;shadow=0;fontSize=14;fontColor=#FFFFFF;" vertex="1" parent="1">
          <mxGeometry x="1268.37" y="952.5" width="280" height="90" as="geometry" />
        </mxCell>
        <mxCell id="3BRQNajPM5yB8tm0Zg5W-127" value="" style="line;strokeWidth=2;html=1;rounded=0;shadow=0;fontSize=27;align=center;fillColor=none;strokeColor=#FFFFFF;" vertex="1" parent="1">
          <mxGeometry x="1288.37" y="712.5" width="240" height="10" as="geometry" />
        </mxCell>
        <mxCell id="3BRQNajPM5yB8tm0Zg5W-128" value="" style="line;strokeWidth=2;html=1;rounded=0;shadow=0;fontSize=27;align=center;fillColor=none;strokeColor=#FFFFFF;" vertex="1" parent="1">
          <mxGeometry x="1288.37" y="932.5" width="240" height="10" as="geometry" />
        </mxCell>
        <mxCell id="3BRQNajPM5yB8tm0Zg5W-129" value="" style="html=1;shadow=0;dashed=0;align=center;verticalAlign=middle;shape=mxgraph.arrows2.stylisedArrow;dy=0.6;dx=40;notch=15;feather=0.4;rounded=0;strokeWidth=1;fontSize=27;strokeColor=none;fillColor=#fff2cc;" vertex="1" parent="1">
          <mxGeometry x="1358.37" y="800.5" width="100" height="60" as="geometry" />
        </mxCell>
        <mxCell id="3BRQNajPM5yB8tm0Zg5W-130" value="&lt;font style=&quot;font-size: 24px;&quot;&gt;Лиза&lt;/font&gt;" style="ellipse;whiteSpace=wrap;html=1;rounded=0;shadow=0;strokeWidth=6;fontSize=14;align=center;fillColor=#BFB4A9;strokeColor=#FFFFFF;fontColor=#FFFFFF;" vertex="1" parent="1">
          <mxGeometry x="1209.37" y="775.5" width="115" height="115" as="geometry" />
        </mxCell>
        <mxCell id="3BRQNajPM5yB8tm0Zg5W-131" value="" style="whiteSpace=wrap;html=1;rounded=1;shadow=0;strokeWidth=8;fontSize=20;align=center;fillColor=#FFB001;strokeColor=#FFFFFF;" vertex="1" parent="1">
          <mxGeometry x="1554.63" y="629" width="280" height="430" as="geometry" />
        </mxCell>
        <mxCell id="3BRQNajPM5yB8tm0Zg5W-132" value="" style="whiteSpace=wrap;html=1;rounded=1;shadow=0;strokeWidth=8;fontSize=20;align=center;fillColor=#FFB001;strokeColor=#FFFFFF;" vertex="1" parent="1">
          <mxGeometry x="1553" y="631.5" width="280" height="430" as="geometry" />
        </mxCell>
        <mxCell id="3BRQNajPM5yB8tm0Zg5W-133" value="Место проведения" style="text;html=1;strokeColor=none;fillColor=none;align=center;verticalAlign=middle;whiteSpace=wrap;rounded=0;shadow=0;fontSize=27;fontColor=#FFFFFF;fontStyle=1" vertex="1" parent="1">
          <mxGeometry x="1553" y="651.5" width="280" height="60" as="geometry" />
        </mxCell>
        <mxCell id="3BRQNajPM5yB8tm0Zg5W-134" value="&lt;font style=&quot;font-size: 18px;&quot;&gt;Регион, адрес&lt;/font&gt;" style="text;html=1;strokeColor=none;fillColor=none;align=center;verticalAlign=middle;whiteSpace=wrap;rounded=0;shadow=0;fontSize=14;fontColor=#FFFFFF;" vertex="1" parent="1">
          <mxGeometry x="1553" y="951.5" width="280" height="90" as="geometry" />
        </mxCell>
        <mxCell id="3BRQNajPM5yB8tm0Zg5W-135" value="" style="line;strokeWidth=2;html=1;rounded=0;shadow=0;fontSize=27;align=center;fillColor=none;strokeColor=#FFFFFF;" vertex="1" parent="1">
          <mxGeometry x="1573" y="711.5" width="240" height="10" as="geometry" />
        </mxCell>
        <mxCell id="3BRQNajPM5yB8tm0Zg5W-136" value="" style="line;strokeWidth=2;html=1;rounded=0;shadow=0;fontSize=27;align=center;fillColor=none;strokeColor=#FFFFFF;" vertex="1" parent="1">
          <mxGeometry x="1573" y="931.5" width="240" height="10" as="geometry" />
        </mxCell>
        <mxCell id="3BRQNajPM5yB8tm0Zg5W-137" value="" style="html=1;shadow=0;dashed=0;align=center;verticalAlign=middle;shape=mxgraph.arrows2.stylisedArrow;dy=0.6;dx=40;notch=15;feather=0.4;rounded=0;strokeWidth=1;fontSize=27;strokeColor=none;fillColor=#fff2cc;" vertex="1" parent="1">
          <mxGeometry x="1643" y="799.5" width="100" height="60" as="geometry" />
        </mxCell>
        <mxCell id="3BRQNajPM5yB8tm0Zg5W-138" value="&lt;font style=&quot;font-size: 24px;&quot;&gt;Лиза&lt;/font&gt;" style="ellipse;whiteSpace=wrap;html=1;rounded=0;shadow=0;strokeWidth=6;fontSize=14;align=center;fillColor=#BFB4A9;strokeColor=#FFFFFF;fontColor=#FFFFFF;" vertex="1" parent="1">
          <mxGeometry x="1494" y="774.5" width="115" height="115" as="geometry" />
        </mxCell>
        <mxCell id="3BRQNajPM5yB8tm0Zg5W-139" value="" style="whiteSpace=wrap;html=1;rounded=1;shadow=0;strokeWidth=8;fontSize=20;align=center;fillColor=#FFB001;strokeColor=#FFFFFF;" vertex="1" parent="1">
          <mxGeometry x="1834.63" y="631.5" width="280" height="430" as="geometry" />
        </mxCell>
        <mxCell id="3BRQNajPM5yB8tm0Zg5W-140" value="" style="whiteSpace=wrap;html=1;rounded=1;shadow=0;strokeWidth=8;fontSize=20;align=center;fillColor=#FFB001;strokeColor=#FFFFFF;" vertex="1" parent="1">
          <mxGeometry x="1836.26" y="631.5" width="280" height="430" as="geometry" />
        </mxCell>
        <mxCell id="3BRQNajPM5yB8tm0Zg5W-141" value="Количество участников" style="text;html=1;strokeColor=none;fillColor=none;align=center;verticalAlign=middle;whiteSpace=wrap;rounded=0;shadow=0;fontSize=27;fontColor=#FFFFFF;fontStyle=1" vertex="1" parent="1">
          <mxGeometry x="1833" y="654" width="280" height="60" as="geometry" />
        </mxCell>
        <mxCell id="3BRQNajPM5yB8tm0Zg5W-142" value="&lt;font style=&quot;font-size: 18px;&quot;&gt;Число&lt;/font&gt;" style="text;html=1;strokeColor=none;fillColor=none;align=center;verticalAlign=middle;whiteSpace=wrap;rounded=0;shadow=0;fontSize=14;fontColor=#FFFFFF;" vertex="1" parent="1">
          <mxGeometry x="1833" y="954" width="280" height="90" as="geometry" />
        </mxCell>
        <mxCell id="3BRQNajPM5yB8tm0Zg5W-143" value="" style="line;strokeWidth=2;html=1;rounded=0;shadow=0;fontSize=27;align=center;fillColor=none;strokeColor=#FFFFFF;" vertex="1" parent="1">
          <mxGeometry x="1853" y="714" width="240" height="10" as="geometry" />
        </mxCell>
        <mxCell id="3BRQNajPM5yB8tm0Zg5W-144" value="" style="line;strokeWidth=2;html=1;rounded=0;shadow=0;fontSize=27;align=center;fillColor=none;strokeColor=#FFFFFF;" vertex="1" parent="1">
          <mxGeometry x="1853" y="934" width="240" height="10" as="geometry" />
        </mxCell>
        <mxCell id="3BRQNajPM5yB8tm0Zg5W-145" value="" style="html=1;shadow=0;dashed=0;align=center;verticalAlign=middle;shape=mxgraph.arrows2.stylisedArrow;dy=0.6;dx=40;notch=15;feather=0.4;rounded=0;strokeWidth=1;fontSize=27;strokeColor=none;fillColor=#fff2cc;" vertex="1" parent="1">
          <mxGeometry x="1923" y="802" width="100" height="60" as="geometry" />
        </mxCell>
        <mxCell id="3BRQNajPM5yB8tm0Zg5W-146" value="&lt;font style=&quot;font-size: 24px;&quot;&gt;Лиза&lt;/font&gt;" style="ellipse;whiteSpace=wrap;html=1;rounded=0;shadow=0;strokeWidth=6;fontSize=14;align=center;fillColor=#BFB4A9;strokeColor=#FFFFFF;fontColor=#FFFFFF;" vertex="1" parent="1">
          <mxGeometry x="1774" y="777" width="115" height="115" as="geometry" />
        </mxCell>
        <mxCell id="3BRQNajPM5yB8tm0Zg5W-147" value="" style="whiteSpace=wrap;html=1;rounded=1;shadow=0;strokeWidth=8;fontSize=20;align=center;fillColor=#FFB001;strokeColor=#FFFFFF;" vertex="1" parent="1">
          <mxGeometry x="2124" y="629" width="280" height="430" as="geometry" />
        </mxCell>
        <mxCell id="3BRQNajPM5yB8tm0Zg5W-148" value="" style="whiteSpace=wrap;html=1;rounded=1;shadow=0;strokeWidth=8;fontSize=20;align=center;fillColor=#FFB001;strokeColor=#FFFFFF;" vertex="1" parent="1">
          <mxGeometry x="2122.37" y="631.5" width="280" height="430" as="geometry" />
        </mxCell>
        <mxCell id="3BRQNajPM5yB8tm0Zg5W-149" value="Пол, возрастная группа" style="text;html=1;strokeColor=none;fillColor=none;align=center;verticalAlign=middle;whiteSpace=wrap;rounded=0;shadow=0;fontSize=27;fontColor=#FFFFFF;fontStyle=1" vertex="1" parent="1">
          <mxGeometry x="2122.37" y="651.5" width="280" height="60" as="geometry" />
        </mxCell>
        <mxCell id="3BRQNajPM5yB8tm0Zg5W-150" value="&lt;span style=&quot;font-size: 18px;&quot;&gt;Юниоры или нет, возраст и два поля муж/жен&lt;/span&gt;" style="text;html=1;strokeColor=none;fillColor=none;align=center;verticalAlign=middle;whiteSpace=wrap;rounded=0;shadow=0;fontSize=14;fontColor=#FFFFFF;" vertex="1" parent="1">
          <mxGeometry x="2122.37" y="951.5" width="280" height="90" as="geometry" />
        </mxCell>
        <mxCell id="3BRQNajPM5yB8tm0Zg5W-151" value="" style="line;strokeWidth=2;html=1;rounded=0;shadow=0;fontSize=27;align=center;fillColor=none;strokeColor=#FFFFFF;" vertex="1" parent="1">
          <mxGeometry x="2142.37" y="711.5" width="240" height="10" as="geometry" />
        </mxCell>
        <mxCell id="3BRQNajPM5yB8tm0Zg5W-152" value="" style="line;strokeWidth=2;html=1;rounded=0;shadow=0;fontSize=27;align=center;fillColor=none;strokeColor=#FFFFFF;" vertex="1" parent="1">
          <mxGeometry x="2142.37" y="931.5" width="240" height="10" as="geometry" />
        </mxCell>
        <mxCell id="3BRQNajPM5yB8tm0Zg5W-153" value="" style="html=1;shadow=0;dashed=0;align=center;verticalAlign=middle;shape=mxgraph.arrows2.stylisedArrow;dy=0.6;dx=40;notch=15;feather=0.4;rounded=0;strokeWidth=1;fontSize=27;strokeColor=none;fillColor=#fff2cc;" vertex="1" parent="1">
          <mxGeometry x="2212.37" y="799.5" width="100" height="60" as="geometry" />
        </mxCell>
        <mxCell id="3BRQNajPM5yB8tm0Zg5W-154" value="&lt;font style=&quot;font-size: 24px;&quot;&gt;Лиза&lt;/font&gt;" style="ellipse;whiteSpace=wrap;html=1;rounded=0;shadow=0;strokeWidth=6;fontSize=14;align=center;fillColor=#BFB4A9;strokeColor=#FFFFFF;fontColor=#FFFFFF;" vertex="1" parent="1">
          <mxGeometry x="2063.37" y="774.5" width="115" height="115" as="geometry" />
        </mxCell>
        <mxCell id="3BRQNajPM5yB8tm0Zg5W-155" value="" style="whiteSpace=wrap;html=1;rounded=1;shadow=0;strokeWidth=8;fontSize=20;align=center;fillColor=#FFB001;strokeColor=#FFFFFF;" vertex="1" parent="1">
          <mxGeometry x="2690.63" y="630" width="280" height="430" as="geometry" />
        </mxCell>
        <mxCell id="3BRQNajPM5yB8tm0Zg5W-156" value="" style="whiteSpace=wrap;html=1;rounded=1;shadow=0;strokeWidth=8;fontSize=20;align=center;fillColor=#FFB001;strokeColor=#FFFFFF;" vertex="1" parent="1">
          <mxGeometry x="2692.26" y="630" width="280" height="430" as="geometry" />
        </mxCell>
        <mxCell id="3BRQNajPM5yB8tm0Zg5W-157" value="Сроки проведения" style="text;html=1;strokeColor=none;fillColor=none;align=center;verticalAlign=middle;whiteSpace=wrap;rounded=0;shadow=0;fontSize=27;fontColor=#FFFFFF;fontStyle=1" vertex="1" parent="1">
          <mxGeometry x="2689" y="652.5" width="280" height="60" as="geometry" />
        </mxCell>
        <mxCell id="3BRQNajPM5yB8tm0Zg5W-158" value="&lt;font style=&quot;font-size: 18px;&quot;&gt;Дата начала и конца&lt;/font&gt;" style="text;html=1;strokeColor=none;fillColor=none;align=center;verticalAlign=middle;whiteSpace=wrap;rounded=0;shadow=0;fontSize=14;fontColor=#FFFFFF;" vertex="1" parent="1">
          <mxGeometry x="2689" y="952.5" width="280" height="90" as="geometry" />
        </mxCell>
        <mxCell id="3BRQNajPM5yB8tm0Zg5W-159" value="" style="line;strokeWidth=2;html=1;rounded=0;shadow=0;fontSize=27;align=center;fillColor=none;strokeColor=#FFFFFF;" vertex="1" parent="1">
          <mxGeometry x="2709" y="712.5" width="240" height="10" as="geometry" />
        </mxCell>
        <mxCell id="3BRQNajPM5yB8tm0Zg5W-160" value="" style="line;strokeWidth=2;html=1;rounded=0;shadow=0;fontSize=27;align=center;fillColor=none;strokeColor=#FFFFFF;" vertex="1" parent="1">
          <mxGeometry x="2709" y="932.5" width="240" height="10" as="geometry" />
        </mxCell>
        <mxCell id="3BRQNajPM5yB8tm0Zg5W-161" value="" style="html=1;shadow=0;dashed=0;align=center;verticalAlign=middle;shape=mxgraph.arrows2.stylisedArrow;dy=0.6;dx=40;notch=15;feather=0.4;rounded=0;strokeWidth=1;fontSize=27;strokeColor=none;fillColor=#fff2cc;" vertex="1" parent="1">
          <mxGeometry x="2779" y="800.5" width="100" height="60" as="geometry" />
        </mxCell>
        <mxCell id="3BRQNajPM5yB8tm0Zg5W-163" value="" style="whiteSpace=wrap;html=1;rounded=1;shadow=0;strokeWidth=8;fontSize=20;align=center;fillColor=#FFB001;strokeColor=#FFFFFF;" vertex="1" parent="1">
          <mxGeometry x="2980" y="627.5" width="280" height="430" as="geometry" />
        </mxCell>
        <mxCell id="3BRQNajPM5yB8tm0Zg5W-164" value="" style="whiteSpace=wrap;html=1;rounded=1;shadow=0;strokeWidth=8;fontSize=20;align=center;fillColor=#FFB001;strokeColor=#FFFFFF;" vertex="1" parent="1">
          <mxGeometry x="2978.37" y="630" width="280" height="430" as="geometry" />
        </mxCell>
        <mxCell id="3BRQNajPM5yB8tm0Zg5W-165" value="Тип соревнования" style="text;html=1;strokeColor=none;fillColor=none;align=center;verticalAlign=middle;whiteSpace=wrap;rounded=0;shadow=0;fontSize=27;fontColor=#FFFFFF;fontStyle=1" vertex="1" parent="1">
          <mxGeometry x="2978.37" y="650" width="280" height="60" as="geometry" />
        </mxCell>
        <mxCell id="3BRQNajPM5yB8tm0Zg5W-166" value="&lt;font style=&quot;font-size: 18px;&quot;&gt;Межрегиональные, окружные, кубок, чемпионат, и т.д.&lt;/font&gt;" style="text;html=1;strokeColor=none;fillColor=none;align=center;verticalAlign=middle;whiteSpace=wrap;rounded=0;shadow=0;fontSize=14;fontColor=#FFFFFF;" vertex="1" parent="1">
          <mxGeometry x="2978.37" y="950" width="280" height="90" as="geometry" />
        </mxCell>
        <mxCell id="3BRQNajPM5yB8tm0Zg5W-167" value="" style="line;strokeWidth=2;html=1;rounded=0;shadow=0;fontSize=27;align=center;fillColor=none;strokeColor=#FFFFFF;" vertex="1" parent="1">
          <mxGeometry x="2998.37" y="710" width="240" height="10" as="geometry" />
        </mxCell>
        <mxCell id="3BRQNajPM5yB8tm0Zg5W-168" value="" style="line;strokeWidth=2;html=1;rounded=0;shadow=0;fontSize=27;align=center;fillColor=none;strokeColor=#FFFFFF;" vertex="1" parent="1">
          <mxGeometry x="2998.37" y="930" width="240" height="10" as="geometry" />
        </mxCell>
        <mxCell id="3BRQNajPM5yB8tm0Zg5W-169" value="" style="html=1;shadow=0;dashed=0;align=center;verticalAlign=middle;shape=mxgraph.arrows2.stylisedArrow;dy=0.6;dx=40;notch=15;feather=0.4;rounded=0;strokeWidth=1;fontSize=27;strokeColor=none;fillColor=#fff2cc;" vertex="1" parent="1">
          <mxGeometry x="3068.37" y="798" width="100" height="60" as="geometry" />
        </mxCell>
        <mxCell id="3BRQNajPM5yB8tm0Zg5W-170" value="&lt;font style=&quot;font-size: 24px;&quot;&gt;Лиза&lt;/font&gt;" style="ellipse;whiteSpace=wrap;html=1;rounded=0;shadow=0;strokeWidth=6;fontSize=14;align=center;fillColor=#BFB4A9;strokeColor=#FFFFFF;fontColor=#FFFFFF;" vertex="1" parent="1">
          <mxGeometry x="2919.37" y="773" width="115" height="115" as="geometry" />
        </mxCell>
        <mxCell id="3BRQNajPM5yB8tm0Zg5W-172" value="" style="whiteSpace=wrap;html=1;rounded=1;shadow=0;strokeWidth=8;fontSize=20;align=center;fillColor=#FE9900;strokeColor=#FFFFFF;" vertex="1" parent="1">
          <mxGeometry x="411.63" y="1181" width="283.26" height="435" as="geometry" />
        </mxCell>
        <mxCell id="3BRQNajPM5yB8tm0Zg5W-173" value="Форматы отображения" style="text;html=1;strokeColor=none;fillColor=none;align=center;verticalAlign=middle;whiteSpace=wrap;rounded=0;shadow=0;fontSize=27;fontColor=#FFFFFF;fontStyle=1" vertex="1" parent="1">
          <mxGeometry x="414.63" y="1206" width="280" height="60" as="geometry" />
        </mxCell>
        <mxCell id="3BRQNajPM5yB8tm0Zg5W-174" value="&lt;font style=&quot;font-size: 18px;&quot;&gt;Далее будут форматы&lt;/font&gt;" style="text;html=1;strokeColor=none;fillColor=none;align=center;verticalAlign=middle;whiteSpace=wrap;rounded=0;shadow=0;fontSize=14;fontColor=#FFFFFF;" vertex="1" parent="1">
          <mxGeometry x="414.63" y="1506" width="280" height="90" as="geometry" />
        </mxCell>
        <mxCell id="3BRQNajPM5yB8tm0Zg5W-175" value="" style="line;strokeWidth=2;html=1;rounded=0;shadow=0;fontSize=27;align=center;fillColor=none;strokeColor=#FFFFFF;" vertex="1" parent="1">
          <mxGeometry x="434.63" y="1266" width="240" height="10" as="geometry" />
        </mxCell>
        <mxCell id="3BRQNajPM5yB8tm0Zg5W-176" value="" style="line;strokeWidth=2;html=1;rounded=0;shadow=0;fontSize=27;align=center;fillColor=none;strokeColor=#FFFFFF;" vertex="1" parent="1">
          <mxGeometry x="434.63" y="1486" width="240" height="10" as="geometry" />
        </mxCell>
        <mxCell id="3BRQNajPM5yB8tm0Zg5W-177" value="" style="html=1;shadow=0;dashed=0;align=center;verticalAlign=middle;shape=mxgraph.arrows2.stylisedArrow;dy=0.6;dx=40;notch=15;feather=0.4;rounded=0;strokeWidth=1;fontSize=27;strokeColor=none;fillColor=#fff2cc;" vertex="1" parent="1">
          <mxGeometry x="504.63" y="1354" width="100" height="60" as="geometry" />
        </mxCell>
        <mxCell id="3BRQNajPM5yB8tm0Zg5W-179" value="" style="whiteSpace=wrap;html=1;rounded=1;shadow=0;strokeWidth=8;fontSize=20;align=center;fillColor=#FFB001;strokeColor=#FFFFFF;" vertex="1" parent="1">
          <mxGeometry x="698.52" y="1181" width="280" height="430" as="geometry" />
        </mxCell>
        <mxCell id="3BRQNajPM5yB8tm0Zg5W-180" value="" style="whiteSpace=wrap;html=1;rounded=1;shadow=0;strokeWidth=8;fontSize=20;align=center;fillColor=#FFB001;strokeColor=#FFFFFF;" vertex="1" parent="1">
          <mxGeometry x="696.89" y="1183.5" width="280" height="430" as="geometry" />
        </mxCell>
        <mxCell id="3BRQNajPM5yB8tm0Zg5W-181" value="Ближайшие мероприятия" style="text;html=1;strokeColor=none;fillColor=none;align=center;verticalAlign=middle;whiteSpace=wrap;rounded=0;shadow=0;fontSize=27;fontColor=#FFFFFF;fontStyle=1" vertex="1" parent="1">
          <mxGeometry x="696.89" y="1203.5" width="280" height="60" as="geometry" />
        </mxCell>
        <mxCell id="3BRQNajPM5yB8tm0Zg5W-183" value="" style="line;strokeWidth=2;html=1;rounded=0;shadow=0;fontSize=27;align=center;fillColor=none;strokeColor=#FFFFFF;" vertex="1" parent="1">
          <mxGeometry x="716.89" y="1263.5" width="240" height="10" as="geometry" />
        </mxCell>
        <mxCell id="3BRQNajPM5yB8tm0Zg5W-184" value="" style="line;strokeWidth=2;html=1;rounded=0;shadow=0;fontSize=27;align=center;fillColor=none;strokeColor=#FFFFFF;" vertex="1" parent="1">
          <mxGeometry x="716.89" y="1483.5" width="240" height="10" as="geometry" />
        </mxCell>
        <mxCell id="3BRQNajPM5yB8tm0Zg5W-185" value="" style="html=1;shadow=0;dashed=0;align=center;verticalAlign=middle;shape=mxgraph.arrows2.stylisedArrow;dy=0.6;dx=40;notch=15;feather=0.4;rounded=0;strokeWidth=1;fontSize=27;strokeColor=none;fillColor=#fff2cc;" vertex="1" parent="1">
          <mxGeometry x="786.89" y="1351.5" width="100" height="60" as="geometry" />
        </mxCell>
        <mxCell id="3BRQNajPM5yB8tm0Zg5W-186" value="&lt;font style=&quot;font-size: 24px;&quot;&gt;Лиза&lt;/font&gt;" style="ellipse;whiteSpace=wrap;html=1;rounded=0;shadow=0;strokeWidth=6;fontSize=14;align=center;fillColor=#BFB4A9;strokeColor=#FFFFFF;fontColor=#FFFFFF;" vertex="1" parent="1">
          <mxGeometry x="637.89" y="1326.5" width="115" height="115" as="geometry" />
        </mxCell>
        <mxCell id="3BRQNajPM5yB8tm0Zg5W-187" value="" style="whiteSpace=wrap;html=1;rounded=1;shadow=0;strokeWidth=8;fontSize=20;align=center;fillColor=#FFB001;strokeColor=#FFFFFF;" vertex="1" parent="1">
          <mxGeometry x="978.5200000000001" y="1183.5" width="280" height="430" as="geometry" />
        </mxCell>
        <mxCell id="3BRQNajPM5yB8tm0Zg5W-188" value="" style="whiteSpace=wrap;html=1;rounded=1;shadow=0;strokeWidth=8;fontSize=20;align=center;fillColor=#FFB001;strokeColor=#FFFFFF;" vertex="1" parent="1">
          <mxGeometry x="980.15" y="1183.5" width="280" height="430" as="geometry" />
        </mxCell>
        <mxCell id="3BRQNajPM5yB8tm0Zg5W-189" value="Мероприятия текущей недели" style="text;html=1;strokeColor=none;fillColor=none;align=center;verticalAlign=middle;whiteSpace=wrap;rounded=0;shadow=0;fontSize=27;fontColor=#FFFFFF;fontStyle=1" vertex="1" parent="1">
          <mxGeometry x="976.89" y="1206" width="280" height="60" as="geometry" />
        </mxCell>
        <mxCell id="3BRQNajPM5yB8tm0Zg5W-191" value="" style="line;strokeWidth=2;html=1;rounded=0;shadow=0;fontSize=27;align=center;fillColor=none;strokeColor=#FFFFFF;" vertex="1" parent="1">
          <mxGeometry x="996.89" y="1266" width="240" height="10" as="geometry" />
        </mxCell>
        <mxCell id="3BRQNajPM5yB8tm0Zg5W-192" value="" style="line;strokeWidth=2;html=1;rounded=0;shadow=0;fontSize=27;align=center;fillColor=none;strokeColor=#FFFFFF;" vertex="1" parent="1">
          <mxGeometry x="996.89" y="1486" width="240" height="10" as="geometry" />
        </mxCell>
        <mxCell id="3BRQNajPM5yB8tm0Zg5W-193" value="" style="html=1;shadow=0;dashed=0;align=center;verticalAlign=middle;shape=mxgraph.arrows2.stylisedArrow;dy=0.6;dx=40;notch=15;feather=0.4;rounded=0;strokeWidth=1;fontSize=27;strokeColor=none;fillColor=#fff2cc;" vertex="1" parent="1">
          <mxGeometry x="1066.89" y="1354" width="100" height="60" as="geometry" />
        </mxCell>
        <mxCell id="3BRQNajPM5yB8tm0Zg5W-194" value="&lt;font style=&quot;font-size: 24px;&quot;&gt;Лиза&lt;/font&gt;" style="ellipse;whiteSpace=wrap;html=1;rounded=0;shadow=0;strokeWidth=6;fontSize=14;align=center;fillColor=#BFB4A9;strokeColor=#FFFFFF;fontColor=#FFFFFF;" vertex="1" parent="1">
          <mxGeometry x="917.89" y="1329" width="115" height="115" as="geometry" />
        </mxCell>
        <mxCell id="3BRQNajPM5yB8tm0Zg5W-195" value="" style="whiteSpace=wrap;html=1;rounded=1;shadow=0;strokeWidth=8;fontSize=20;align=center;fillColor=#FFB001;strokeColor=#FFFFFF;" vertex="1" parent="1">
          <mxGeometry x="1267.89" y="1181" width="280" height="430" as="geometry" />
        </mxCell>
        <mxCell id="3BRQNajPM5yB8tm0Zg5W-196" value="" style="whiteSpace=wrap;html=1;rounded=1;shadow=0;strokeWidth=8;fontSize=20;align=center;fillColor=#FFB001;strokeColor=#FFFFFF;" vertex="1" parent="1">
          <mxGeometry x="1266.26" y="1183.5" width="280" height="430" as="geometry" />
        </mxCell>
        <mxCell id="3BRQNajPM5yB8tm0Zg5W-197" value="Мероприятия следующего месяца" style="text;html=1;strokeColor=none;fillColor=none;align=center;verticalAlign=middle;whiteSpace=wrap;rounded=0;shadow=0;fontSize=27;fontColor=#FFFFFF;fontStyle=1" vertex="1" parent="1">
          <mxGeometry x="1266.26" y="1203.5" width="280" height="60" as="geometry" />
        </mxCell>
        <mxCell id="3BRQNajPM5yB8tm0Zg5W-199" value="" style="line;strokeWidth=2;html=1;rounded=0;shadow=0;fontSize=27;align=center;fillColor=none;strokeColor=#FFFFFF;" vertex="1" parent="1">
          <mxGeometry x="1286.26" y="1263.5" width="240" height="10" as="geometry" />
        </mxCell>
        <mxCell id="3BRQNajPM5yB8tm0Zg5W-200" value="" style="line;strokeWidth=2;html=1;rounded=0;shadow=0;fontSize=27;align=center;fillColor=none;strokeColor=#FFFFFF;" vertex="1" parent="1">
          <mxGeometry x="1286.26" y="1483.5" width="240" height="10" as="geometry" />
        </mxCell>
        <mxCell id="3BRQNajPM5yB8tm0Zg5W-201" value="" style="html=1;shadow=0;dashed=0;align=center;verticalAlign=middle;shape=mxgraph.arrows2.stylisedArrow;dy=0.6;dx=40;notch=15;feather=0.4;rounded=0;strokeWidth=1;fontSize=27;strokeColor=none;fillColor=#fff2cc;" vertex="1" parent="1">
          <mxGeometry x="1356.26" y="1351.5" width="100" height="60" as="geometry" />
        </mxCell>
        <mxCell id="3BRQNajPM5yB8tm0Zg5W-202" value="&lt;font style=&quot;font-size: 24px;&quot;&gt;Лиза&lt;/font&gt;" style="ellipse;whiteSpace=wrap;html=1;rounded=0;shadow=0;strokeWidth=6;fontSize=14;align=center;fillColor=#BFB4A9;strokeColor=#FFFFFF;fontColor=#FFFFFF;" vertex="1" parent="1">
          <mxGeometry x="1207.26" y="1326.5" width="115" height="115" as="geometry" />
        </mxCell>
        <mxCell id="3BRQNajPM5yB8tm0Zg5W-203" value="" style="whiteSpace=wrap;html=1;rounded=1;shadow=0;strokeWidth=8;fontSize=20;align=center;fillColor=#FFB001;strokeColor=#FFFFFF;" vertex="1" parent="1">
          <mxGeometry x="1552.5200000000002" y="1180" width="280" height="430" as="geometry" />
        </mxCell>
        <mxCell id="3BRQNajPM5yB8tm0Zg5W-204" value="" style="whiteSpace=wrap;html=1;rounded=1;shadow=0;strokeWidth=8;fontSize=20;align=center;fillColor=#FFB001;strokeColor=#FFFFFF;" vertex="1" parent="1">
          <mxGeometry x="1550.89" y="1182.5" width="280" height="430" as="geometry" />
        </mxCell>
        <mxCell id="3BRQNajPM5yB8tm0Zg5W-205" value="Мероприятия квартала" style="text;html=1;strokeColor=none;fillColor=none;align=center;verticalAlign=middle;whiteSpace=wrap;rounded=0;shadow=0;fontSize=27;fontColor=#FFFFFF;fontStyle=1" vertex="1" parent="1">
          <mxGeometry x="1550.89" y="1202.5" width="280" height="60" as="geometry" />
        </mxCell>
        <mxCell id="3BRQNajPM5yB8tm0Zg5W-207" value="" style="line;strokeWidth=2;html=1;rounded=0;shadow=0;fontSize=27;align=center;fillColor=none;strokeColor=#FFFFFF;" vertex="1" parent="1">
          <mxGeometry x="1570.89" y="1262.5" width="240" height="10" as="geometry" />
        </mxCell>
        <mxCell id="3BRQNajPM5yB8tm0Zg5W-208" value="" style="line;strokeWidth=2;html=1;rounded=0;shadow=0;fontSize=27;align=center;fillColor=none;strokeColor=#FFFFFF;" vertex="1" parent="1">
          <mxGeometry x="1570.89" y="1482.5" width="240" height="10" as="geometry" />
        </mxCell>
        <mxCell id="3BRQNajPM5yB8tm0Zg5W-209" value="" style="html=1;shadow=0;dashed=0;align=center;verticalAlign=middle;shape=mxgraph.arrows2.stylisedArrow;dy=0.6;dx=40;notch=15;feather=0.4;rounded=0;strokeWidth=1;fontSize=27;strokeColor=none;fillColor=#fff2cc;" vertex="1" parent="1">
          <mxGeometry x="1640.89" y="1350.5" width="100" height="60" as="geometry" />
        </mxCell>
        <mxCell id="3BRQNajPM5yB8tm0Zg5W-210" value="&lt;font style=&quot;font-size: 24px;&quot;&gt;Лиза&lt;/font&gt;" style="ellipse;whiteSpace=wrap;html=1;rounded=0;shadow=0;strokeWidth=6;fontSize=14;align=center;fillColor=#BFB4A9;strokeColor=#FFFFFF;fontColor=#FFFFFF;" vertex="1" parent="1">
          <mxGeometry x="1491.89" y="1325.5" width="115" height="115" as="geometry" />
        </mxCell>
        <mxCell id="3BRQNajPM5yB8tm0Zg5W-211" value="" style="whiteSpace=wrap;html=1;rounded=1;shadow=0;strokeWidth=8;fontSize=20;align=center;fillColor=#FFB001;strokeColor=#FFFFFF;" vertex="1" parent="1">
          <mxGeometry x="1832.5200000000002" y="1182.5" width="280" height="430" as="geometry" />
        </mxCell>
        <mxCell id="3BRQNajPM5yB8tm0Zg5W-212" value="" style="whiteSpace=wrap;html=1;rounded=1;shadow=0;strokeWidth=8;fontSize=20;align=center;fillColor=#FFB001;strokeColor=#FFFFFF;" vertex="1" parent="1">
          <mxGeometry x="1834.15" y="1182.5" width="280" height="430" as="geometry" />
        </mxCell>
        <mxCell id="3BRQNajPM5yB8tm0Zg5W-213" value="Мероприятия полугодия" style="text;html=1;strokeColor=none;fillColor=none;align=center;verticalAlign=middle;whiteSpace=wrap;rounded=0;shadow=0;fontSize=27;fontColor=#FFFFFF;fontStyle=1" vertex="1" parent="1">
          <mxGeometry x="1830.89" y="1205" width="280" height="60" as="geometry" />
        </mxCell>
        <mxCell id="3BRQNajPM5yB8tm0Zg5W-215" value="" style="line;strokeWidth=2;html=1;rounded=0;shadow=0;fontSize=27;align=center;fillColor=none;strokeColor=#FFFFFF;" vertex="1" parent="1">
          <mxGeometry x="1850.89" y="1265" width="240" height="10" as="geometry" />
        </mxCell>
        <mxCell id="3BRQNajPM5yB8tm0Zg5W-216" value="" style="line;strokeWidth=2;html=1;rounded=0;shadow=0;fontSize=27;align=center;fillColor=none;strokeColor=#FFFFFF;" vertex="1" parent="1">
          <mxGeometry x="1850.89" y="1485" width="240" height="10" as="geometry" />
        </mxCell>
        <mxCell id="3BRQNajPM5yB8tm0Zg5W-217" value="" style="html=1;shadow=0;dashed=0;align=center;verticalAlign=middle;shape=mxgraph.arrows2.stylisedArrow;dy=0.6;dx=40;notch=15;feather=0.4;rounded=0;strokeWidth=1;fontSize=27;strokeColor=none;fillColor=#fff2cc;" vertex="1" parent="1">
          <mxGeometry x="1920.89" y="1353" width="100" height="60" as="geometry" />
        </mxCell>
        <mxCell id="3BRQNajPM5yB8tm0Zg5W-218" value="&lt;font style=&quot;font-size: 24px;&quot;&gt;Лиза&lt;/font&gt;" style="ellipse;whiteSpace=wrap;html=1;rounded=0;shadow=0;strokeWidth=6;fontSize=14;align=center;fillColor=#BFB4A9;strokeColor=#FFFFFF;fontColor=#FFFFFF;" vertex="1" parent="1">
          <mxGeometry x="1771.89" y="1328" width="115" height="115" as="geometry" />
        </mxCell>
        <mxCell id="3BRQNajPM5yB8tm0Zg5W-220" value="Можно добавить своё" style="text;html=1;strokeColor=none;fillColor=none;align=center;verticalAlign=middle;whiteSpace=wrap;rounded=0;shadow=0;fontSize=27;fontColor=#FFFFFF;fontStyle=1" vertex="1" parent="1">
          <mxGeometry x="2120.2599999999998" y="1202.5" width="280" height="60" as="geometry" />
        </mxCell>
        <mxCell id="3BRQNajPM5yB8tm0Zg5W-221" value="&lt;span style=&quot;font-size: 18px;&quot;&gt;Молодёжный состав&lt;/span&gt;" style="text;html=1;strokeColor=none;fillColor=none;align=center;verticalAlign=middle;whiteSpace=wrap;rounded=0;shadow=0;fontSize=14;fontColor=#FFFFFF;" vertex="1" parent="1">
          <mxGeometry x="2120.2599999999998" y="1502.5" width="280" height="90" as="geometry" />
        </mxCell>
        <mxCell id="3BRQNajPM5yB8tm0Zg5W-222" value="" style="line;strokeWidth=2;html=1;rounded=0;shadow=0;fontSize=27;align=center;fillColor=none;strokeColor=#FFFFFF;" vertex="1" parent="1">
          <mxGeometry x="2140.2599999999998" y="1262.5" width="240" height="10" as="geometry" />
        </mxCell>
        <mxCell id="3BRQNajPM5yB8tm0Zg5W-223" value="" style="line;strokeWidth=2;html=1;rounded=0;shadow=0;fontSize=27;align=center;fillColor=none;strokeColor=#FFFFFF;" vertex="1" parent="1">
          <mxGeometry x="2140.2599999999998" y="1482.5" width="240" height="10" as="geometry" />
        </mxCell>
        <mxCell id="3BRQNajPM5yB8tm0Zg5W-224" value="" style="html=1;shadow=0;dashed=0;align=center;verticalAlign=middle;shape=mxgraph.arrows2.stylisedArrow;dy=0.6;dx=40;notch=15;feather=0.4;rounded=0;strokeWidth=1;fontSize=27;strokeColor=none;fillColor=#fff2cc;" vertex="1" parent="1">
          <mxGeometry x="2210.2599999999998" y="1350.5" width="100" height="60" as="geometry" />
        </mxCell>
        <mxCell id="3BRQNajPM5yB8tm0Zg5W-225" value="&lt;font style=&quot;font-size: 24px;&quot;&gt;Лиза&lt;/font&gt;" style="ellipse;whiteSpace=wrap;html=1;rounded=0;shadow=0;strokeWidth=6;fontSize=14;align=center;fillColor=#BFB4A9;strokeColor=#FFFFFF;fontColor=#FFFFFF;" vertex="1" parent="1">
          <mxGeometry x="2061.2599999999998" y="1325.5" width="115" height="115" as="geometry" />
        </mxCell>
        <mxCell id="3BRQNajPM5yB8tm0Zg5W-227" value="" style="whiteSpace=wrap;html=1;rounded=1;shadow=0;strokeWidth=8;fontSize=20;align=center;fillColor=#FE9900;strokeColor=#FFFFFF;" vertex="1" parent="1">
          <mxGeometry x="411.74" y="1735" width="283.26" height="435" as="geometry" />
        </mxCell>
        <mxCell id="3BRQNajPM5yB8tm0Zg5W-228" value="Доп возможности" style="text;html=1;strokeColor=none;fillColor=none;align=center;verticalAlign=middle;whiteSpace=wrap;rounded=0;shadow=0;fontSize=27;fontColor=#FFFFFF;fontStyle=1" vertex="1" parent="1">
          <mxGeometry x="414.74" y="1760" width="280" height="60" as="geometry" />
        </mxCell>
        <mxCell id="3BRQNajPM5yB8tm0Zg5W-229" value="&lt;font style=&quot;font-size: 18px;&quot;&gt;Далее будут доп функции&lt;/font&gt;" style="text;html=1;strokeColor=none;fillColor=none;align=center;verticalAlign=middle;whiteSpace=wrap;rounded=0;shadow=0;fontSize=14;fontColor=#FFFFFF;" vertex="1" parent="1">
          <mxGeometry x="414.74" y="2060" width="280" height="90" as="geometry" />
        </mxCell>
        <mxCell id="3BRQNajPM5yB8tm0Zg5W-230" value="" style="line;strokeWidth=2;html=1;rounded=0;shadow=0;fontSize=27;align=center;fillColor=none;strokeColor=#FFFFFF;" vertex="1" parent="1">
          <mxGeometry x="434.74" y="1820" width="240" height="10" as="geometry" />
        </mxCell>
        <mxCell id="3BRQNajPM5yB8tm0Zg5W-231" value="" style="line;strokeWidth=2;html=1;rounded=0;shadow=0;fontSize=27;align=center;fillColor=none;strokeColor=#FFFFFF;" vertex="1" parent="1">
          <mxGeometry x="434.74" y="2040" width="240" height="10" as="geometry" />
        </mxCell>
        <mxCell id="3BRQNajPM5yB8tm0Zg5W-232" value="" style="html=1;shadow=0;dashed=0;align=center;verticalAlign=middle;shape=mxgraph.arrows2.stylisedArrow;dy=0.6;dx=40;notch=15;feather=0.4;rounded=0;strokeWidth=1;fontSize=27;strokeColor=none;fillColor=#fff2cc;" vertex="1" parent="1">
          <mxGeometry x="504.74" y="1908" width="100" height="60" as="geometry" />
        </mxCell>
        <mxCell id="3BRQNajPM5yB8tm0Zg5W-234" value="" style="whiteSpace=wrap;html=1;rounded=1;shadow=0;strokeWidth=8;fontSize=20;align=center;fillColor=#FFB001;strokeColor=#FFFFFF;" vertex="1" parent="1">
          <mxGeometry x="698.63" y="1735" width="280" height="430" as="geometry" />
        </mxCell>
        <mxCell id="3BRQNajPM5yB8tm0Zg5W-235" value="" style="whiteSpace=wrap;html=1;rounded=1;shadow=0;strokeWidth=8;fontSize=20;align=center;fillColor=#FFB001;strokeColor=#FFFFFF;" vertex="1" parent="1">
          <mxGeometry x="697" y="1737.5" width="280" height="430" as="geometry" />
        </mxCell>
        <mxCell id="3BRQNajPM5yB8tm0Zg5W-236" value="Извещение о новых мероприятиях" style="text;html=1;strokeColor=none;fillColor=none;align=center;verticalAlign=middle;whiteSpace=wrap;rounded=0;shadow=0;fontSize=27;fontColor=#FFFFFF;fontStyle=1" vertex="1" parent="1">
          <mxGeometry x="697" y="1757.5" width="280" height="60" as="geometry" />
        </mxCell>
        <mxCell id="3BRQNajPM5yB8tm0Zg5W-237" value="&lt;span style=&quot;font-size: 18px;&quot;&gt;Общие и персонализированные&lt;/span&gt;" style="text;html=1;strokeColor=none;fillColor=none;align=center;verticalAlign=middle;whiteSpace=wrap;rounded=0;shadow=0;fontSize=14;fontColor=#FFFFFF;" vertex="1" parent="1">
          <mxGeometry x="697" y="2057.5" width="280" height="90" as="geometry" />
        </mxCell>
        <mxCell id="3BRQNajPM5yB8tm0Zg5W-238" value="" style="line;strokeWidth=2;html=1;rounded=0;shadow=0;fontSize=27;align=center;fillColor=none;strokeColor=#FFFFFF;" vertex="1" parent="1">
          <mxGeometry x="717" y="1817.5" width="240" height="10" as="geometry" />
        </mxCell>
        <mxCell id="3BRQNajPM5yB8tm0Zg5W-239" value="" style="line;strokeWidth=2;html=1;rounded=0;shadow=0;fontSize=27;align=center;fillColor=none;strokeColor=#FFFFFF;" vertex="1" parent="1">
          <mxGeometry x="717" y="2037.5" width="240" height="10" as="geometry" />
        </mxCell>
        <mxCell id="3BRQNajPM5yB8tm0Zg5W-240" value="" style="html=1;shadow=0;dashed=0;align=center;verticalAlign=middle;shape=mxgraph.arrows2.stylisedArrow;dy=0.6;dx=40;notch=15;feather=0.4;rounded=0;strokeWidth=1;fontSize=27;strokeColor=none;fillColor=#fff2cc;" vertex="1" parent="1">
          <mxGeometry x="787" y="1905.5" width="100" height="60" as="geometry" />
        </mxCell>
        <mxCell id="3BRQNajPM5yB8tm0Zg5W-241" value="&lt;font style=&quot;font-size: 24px;&quot;&gt;Лиза&lt;/font&gt;" style="ellipse;whiteSpace=wrap;html=1;rounded=0;shadow=0;strokeWidth=6;fontSize=14;align=center;fillColor=#BFB4A9;strokeColor=#FFFFFF;fontColor=#FFFFFF;" vertex="1" parent="1">
          <mxGeometry x="637.89" y="1840" width="115" height="115" as="geometry" />
        </mxCell>
        <mxCell id="3BRQNajPM5yB8tm0Zg5W-242" value="" style="whiteSpace=wrap;html=1;rounded=1;shadow=0;strokeWidth=8;fontSize=20;align=center;fillColor=#FFB001;strokeColor=#FFFFFF;" vertex="1" parent="1">
          <mxGeometry x="978.63" y="1737.5" width="280" height="430" as="geometry" />
        </mxCell>
        <mxCell id="3BRQNajPM5yB8tm0Zg5W-243" value="" style="whiteSpace=wrap;html=1;rounded=1;shadow=0;strokeWidth=8;fontSize=20;align=center;fillColor=#FFB001;strokeColor=#FFFFFF;" vertex="1" parent="1">
          <mxGeometry x="980.26" y="1737.5" width="280" height="430" as="geometry" />
        </mxCell>
        <mxCell id="3BRQNajPM5yB8tm0Zg5W-244" value="Обновление информаций из PDF" style="text;html=1;strokeColor=none;fillColor=none;align=center;verticalAlign=middle;whiteSpace=wrap;rounded=0;shadow=0;fontSize=27;fontColor=#FFFFFF;fontStyle=1" vertex="1" parent="1">
          <mxGeometry x="977" y="1760" width="280" height="60" as="geometry" />
        </mxCell>
        <mxCell id="3BRQNajPM5yB8tm0Zg5W-245" value="&lt;span style=&quot;font-size: 18px;&quot;&gt;Новая PDF должна обновлять значения в календаре раз в&amp;nbsp;&lt;/span&gt;" style="text;html=1;strokeColor=none;fillColor=none;align=center;verticalAlign=middle;whiteSpace=wrap;rounded=0;shadow=0;fontSize=14;fontColor=#FFFFFF;" vertex="1" parent="1">
          <mxGeometry x="977" y="2060" width="280" height="90" as="geometry" />
        </mxCell>
        <mxCell id="3BRQNajPM5yB8tm0Zg5W-246" value="" style="line;strokeWidth=2;html=1;rounded=0;shadow=0;fontSize=27;align=center;fillColor=none;strokeColor=#FFFFFF;" vertex="1" parent="1">
          <mxGeometry x="997" y="1820" width="240" height="10" as="geometry" />
        </mxCell>
        <mxCell id="3BRQNajPM5yB8tm0Zg5W-247" value="" style="line;strokeWidth=2;html=1;rounded=0;shadow=0;fontSize=27;align=center;fillColor=none;strokeColor=#FFFFFF;" vertex="1" parent="1">
          <mxGeometry x="997" y="2040" width="240" height="10" as="geometry" />
        </mxCell>
        <mxCell id="3BRQNajPM5yB8tm0Zg5W-248" value="" style="html=1;shadow=0;dashed=0;align=center;verticalAlign=middle;shape=mxgraph.arrows2.stylisedArrow;dy=0.6;dx=40;notch=15;feather=0.4;rounded=0;strokeWidth=1;fontSize=27;strokeColor=none;fillColor=#fff2cc;" vertex="1" parent="1">
          <mxGeometry x="1067" y="1908" width="100" height="60" as="geometry" />
        </mxCell>
        <mxCell id="3BRQNajPM5yB8tm0Zg5W-249" value="&lt;font style=&quot;font-size: 24px;&quot;&gt;Лиза&lt;/font&gt;" style="ellipse;whiteSpace=wrap;html=1;rounded=0;shadow=0;strokeWidth=6;fontSize=14;align=center;fillColor=#BFB4A9;strokeColor=#FFFFFF;fontColor=#FFFFFF;" vertex="1" parent="1">
          <mxGeometry x="918" y="1883" width="115" height="115" as="geometry" />
        </mxCell>
        <mxCell id="3BRQNajPM5yB8tm0Zg5W-250" value="&lt;font style=&quot;font-size: 24px;&quot;&gt;Филипп&lt;/font&gt;" style="ellipse;whiteSpace=wrap;html=1;rounded=0;shadow=0;strokeWidth=6;fontSize=14;align=center;fillColor=#397DAA;strokeColor=#FFFFFF;fontColor=#FFFFFF;" vertex="1" parent="1">
          <mxGeometry x="917.89" y="1883" width="115" height="115" as="geometry" />
        </mxCell>
        <mxCell id="3BRQNajPM5yB8tm0Zg5W-251" value="&lt;font style=&quot;font-size: 24px;&quot;&gt;Филипп&lt;/font&gt;" style="ellipse;whiteSpace=wrap;html=1;rounded=0;shadow=0;strokeWidth=6;fontSize=14;align=center;fillColor=#397DAA;strokeColor=#FFFFFF;fontColor=#FFFFFF;" vertex="1" parent="1">
          <mxGeometry x="637.89" y="1908" width="115" height="115" as="geometry" />
        </mxCell>
        <mxCell id="3BRQNajPM5yB8tm0Zg5W-261" value="" style="whiteSpace=wrap;html=1;rounded=1;shadow=0;strokeWidth=8;fontSize=20;align=center;fillColor=#FE9900;strokeColor=#FFFFFF;" vertex="1" parent="1">
          <mxGeometry x="127.63000000000001" y="1181.5" width="283.26" height="435" as="geometry" />
        </mxCell>
        <mxCell id="3BRQNajPM5yB8tm0Zg5W-262" value="Условия макета" style="text;html=1;strokeColor=none;fillColor=none;align=center;verticalAlign=middle;whiteSpace=wrap;rounded=0;shadow=0;fontSize=27;fontColor=#FFFFFF;fontStyle=1" vertex="1" parent="1">
          <mxGeometry x="134.63" y="1206.5" width="280" height="60" as="geometry" />
        </mxCell>
        <mxCell id="3BRQNajPM5yB8tm0Zg5W-263" value="&lt;font style=&quot;font-size: 18px;&quot;&gt;Чек-лист в диаграмме&lt;/font&gt;" style="text;html=1;strokeColor=none;fillColor=none;align=center;verticalAlign=middle;whiteSpace=wrap;rounded=0;shadow=0;fontSize=14;fontColor=#FFFFFF;" vertex="1" parent="1">
          <mxGeometry x="134.63" y="1506.5" width="280" height="90" as="geometry" />
        </mxCell>
        <mxCell id="3BRQNajPM5yB8tm0Zg5W-264" value="" style="line;strokeWidth=2;html=1;rounded=0;shadow=0;fontSize=27;align=center;fillColor=none;strokeColor=#FFFFFF;" vertex="1" parent="1">
          <mxGeometry x="154.63" y="1266.5" width="240" height="10" as="geometry" />
        </mxCell>
        <mxCell id="3BRQNajPM5yB8tm0Zg5W-265" value="" style="line;strokeWidth=2;html=1;rounded=0;shadow=0;fontSize=27;align=center;fillColor=none;strokeColor=#FFFFFF;" vertex="1" parent="1">
          <mxGeometry x="154.63" y="1486.5" width="240" height="10" as="geometry" />
        </mxCell>
        <mxCell id="3BRQNajPM5yB8tm0Zg5W-266" value="&lt;font style=&quot;font-size: 24px;&quot;&gt;Лиза&lt;/font&gt;" style="ellipse;whiteSpace=wrap;html=1;rounded=0;shadow=0;strokeWidth=6;fontSize=14;align=center;fillColor=#BFB4A9;strokeColor=#FFFFFF;fontColor=#FFFFFF;" vertex="1" parent="1">
          <mxGeometry x="77.63" y="1326.5" width="115" height="115" as="geometry" />
        </mxCell>
        <mxCell id="3BRQNajPM5yB8tm0Zg5W-267" value="" style="html=1;shadow=0;dashed=0;align=center;verticalAlign=middle;shape=mxgraph.arrows2.stylisedArrow;dy=0.6;dx=40;notch=15;feather=0.4;rounded=0;strokeWidth=1;fontSize=27;strokeColor=none;fillColor=#fff2cc;" vertex="1" parent="1">
          <mxGeometry x="224.63" y="1354.5" width="100" height="60" as="geometry" />
        </mxCell>
        <mxCell id="3BRQNajPM5yB8tm0Zg5W-178" value="&lt;font style=&quot;font-size: 24px;&quot;&gt;Лиза&lt;/font&gt;" style="ellipse;whiteSpace=wrap;html=1;rounded=0;shadow=0;strokeWidth=6;fontSize=14;align=center;fillColor=#BFB4A9;strokeColor=#FFFFFF;fontColor=#FFFFFF;" vertex="1" parent="1">
          <mxGeometry x="357.89" y="1326" width="115" height="115" as="geometry" />
        </mxCell>
        <mxCell id="3BRQNajPM5yB8tm0Zg5W-268" value="" style="whiteSpace=wrap;html=1;rounded=1;shadow=0;strokeWidth=8;fontSize=20;align=center;fillColor=#FE9900;strokeColor=#FFFFFF;" vertex="1" parent="1">
          <mxGeometry x="127.89" y="1738.5" width="283.26" height="435" as="geometry" />
        </mxCell>
        <mxCell id="3BRQNajPM5yB8tm0Zg5W-269" value="Условия макета" style="text;html=1;strokeColor=none;fillColor=none;align=center;verticalAlign=middle;whiteSpace=wrap;rounded=0;shadow=0;fontSize=27;fontColor=#FFFFFF;fontStyle=1" vertex="1" parent="1">
          <mxGeometry x="134.89" y="1763.5" width="280" height="60" as="geometry" />
        </mxCell>
        <mxCell id="3BRQNajPM5yB8tm0Zg5W-270" value="&lt;font style=&quot;font-size: 18px;&quot;&gt;Чек-лист в диаграмме&lt;/font&gt;" style="text;html=1;strokeColor=none;fillColor=none;align=center;verticalAlign=middle;whiteSpace=wrap;rounded=0;shadow=0;fontSize=14;fontColor=#FFFFFF;" vertex="1" parent="1">
          <mxGeometry x="134.89" y="2063.5" width="280" height="90" as="geometry" />
        </mxCell>
        <mxCell id="3BRQNajPM5yB8tm0Zg5W-271" value="" style="line;strokeWidth=2;html=1;rounded=0;shadow=0;fontSize=27;align=center;fillColor=none;strokeColor=#FFFFFF;" vertex="1" parent="1">
          <mxGeometry x="154.89" y="1823.5" width="240" height="10" as="geometry" />
        </mxCell>
        <mxCell id="3BRQNajPM5yB8tm0Zg5W-272" value="" style="line;strokeWidth=2;html=1;rounded=0;shadow=0;fontSize=27;align=center;fillColor=none;strokeColor=#FFFFFF;" vertex="1" parent="1">
          <mxGeometry x="154.89" y="2043.5" width="240" height="10" as="geometry" />
        </mxCell>
        <mxCell id="3BRQNajPM5yB8tm0Zg5W-273" value="&lt;font style=&quot;font-size: 24px;&quot;&gt;Лиза&lt;/font&gt;" style="ellipse;whiteSpace=wrap;html=1;rounded=0;shadow=0;strokeWidth=6;fontSize=14;align=center;fillColor=#BFB4A9;strokeColor=#FFFFFF;fontColor=#FFFFFF;" vertex="1" parent="1">
          <mxGeometry x="77.88999999999999" y="1883.5" width="115" height="115" as="geometry" />
        </mxCell>
        <mxCell id="3BRQNajPM5yB8tm0Zg5W-274" value="" style="html=1;shadow=0;dashed=0;align=center;verticalAlign=middle;shape=mxgraph.arrows2.stylisedArrow;dy=0.6;dx=40;notch=15;feather=0.4;rounded=0;strokeWidth=1;fontSize=27;strokeColor=none;fillColor=#fff2cc;" vertex="1" parent="1">
          <mxGeometry x="224.89" y="1911.5" width="100" height="60" as="geometry" />
        </mxCell>
        <mxCell id="3BRQNajPM5yB8tm0Zg5W-254" value="&lt;font style=&quot;font-size: 24px;&quot;&gt;Лиза&lt;/font&gt;" style="ellipse;whiteSpace=wrap;html=1;rounded=0;shadow=0;strokeWidth=6;fontSize=14;align=center;fillColor=#BFB4A9;strokeColor=#FFFFFF;fontColor=#FFFFFF;" vertex="1" parent="1">
          <mxGeometry x="360.15" y="1844" width="115" height="115" as="geometry" />
        </mxCell>
        <mxCell id="3BRQNajPM5yB8tm0Zg5W-255" value="&lt;font style=&quot;font-size: 24px;&quot;&gt;Филипп&lt;/font&gt;" style="ellipse;whiteSpace=wrap;html=1;rounded=0;shadow=0;strokeWidth=6;fontSize=14;align=center;fillColor=#397DAA;strokeColor=#FFFFFF;fontColor=#FFFFFF;" vertex="1" parent="1">
          <mxGeometry x="360.15" y="1912" width="115" height="115" as="geometry" />
        </mxCell>
        <mxCell id="3BRQNajPM5yB8tm0Zg5W-275" value="" style="triangle;whiteSpace=wrap;html=1;fillColor=#00CC00;" vertex="1" parent="1">
          <mxGeometry x="1092.2600000000002" y="1020" width="60" height="80" as="geometry" />
        </mxCell>
        <mxCell id="3BRQNajPM5yB8tm0Zg5W-324" value="" style="whiteSpace=wrap;html=1;rounded=1;shadow=0;strokeWidth=8;fontSize=20;align=center;fillColor=#FE9900;strokeColor=#FFFFFF;" vertex="1" parent="1">
          <mxGeometry x="127.63000000000002" y="2270" width="283.26" height="435" as="geometry" />
        </mxCell>
        <mxCell id="3BRQNajPM5yB8tm0Zg5W-325" value="Базы данных" style="text;html=1;strokeColor=none;fillColor=none;align=center;verticalAlign=middle;whiteSpace=wrap;rounded=0;shadow=0;fontSize=27;fontColor=#FFFFFF;fontStyle=1" vertex="1" parent="1">
          <mxGeometry x="136.48000000000002" y="2295" width="280" height="60" as="geometry" />
        </mxCell>
        <mxCell id="3BRQNajPM5yB8tm0Zg5W-326" value="Обработка жизнеспособности макета, парсинг пдф, создание баз и внесение информации в них" style="text;html=1;strokeColor=none;fillColor=none;align=center;verticalAlign=middle;whiteSpace=wrap;rounded=0;shadow=0;fontSize=14;fontColor=#FFFFFF;" vertex="1" parent="1">
          <mxGeometry x="136.48000000000002" y="2595" width="280" height="90" as="geometry" />
        </mxCell>
        <mxCell id="3BRQNajPM5yB8tm0Zg5W-327" value="" style="line;strokeWidth=2;html=1;rounded=0;shadow=0;fontSize=27;align=center;fillColor=none;strokeColor=#FFFFFF;" vertex="1" parent="1">
          <mxGeometry x="156.48000000000002" y="2355" width="240" height="10" as="geometry" />
        </mxCell>
        <mxCell id="3BRQNajPM5yB8tm0Zg5W-328" value="" style="line;strokeWidth=2;html=1;rounded=0;shadow=0;fontSize=27;align=center;fillColor=none;strokeColor=#FFFFFF;" vertex="1" parent="1">
          <mxGeometry x="156.48000000000002" y="2575" width="240" height="10" as="geometry" />
        </mxCell>
        <mxCell id="3BRQNajPM5yB8tm0Zg5W-329" value="&lt;font style=&quot;font-size: 24px;&quot;&gt;Филипп&lt;/font&gt;" style="ellipse;whiteSpace=wrap;html=1;rounded=0;shadow=0;strokeWidth=6;fontSize=14;align=center;fillColor=#397DAA;strokeColor=#FFFFFF;fontColor=#FFFFFF;" vertex="1" parent="1">
          <mxGeometry x="79.48000000000002" y="2415" width="115" height="115" as="geometry" />
        </mxCell>
        <mxCell id="3BRQNajPM5yB8tm0Zg5W-330" value="" style="html=1;shadow=0;dashed=0;align=center;verticalAlign=middle;shape=mxgraph.arrows2.stylisedArrow;dy=0.6;dx=40;notch=15;feather=0.4;rounded=0;strokeWidth=1;fontSize=27;strokeColor=none;fillColor=#fff2cc;" vertex="1" parent="1">
          <mxGeometry x="226.48000000000002" y="2443" width="100" height="60" as="geometry" />
        </mxCell>
        <mxCell id="3BRQNajPM5yB8tm0Zg5W-331" value="" style="whiteSpace=wrap;html=1;rounded=1;shadow=0;strokeWidth=8;fontSize=20;align=center;fillColor=#FE9900;strokeColor=#FFFFFF;" vertex="1" parent="1">
          <mxGeometry x="411.78" y="2270" width="283.26" height="435" as="geometry" />
        </mxCell>
        <mxCell id="3BRQNajPM5yB8tm0Zg5W-332" value="Парсинг PDF" style="text;html=1;strokeColor=none;fillColor=none;align=center;verticalAlign=middle;whiteSpace=wrap;rounded=0;shadow=0;fontSize=27;fontColor=#FFFFFF;fontStyle=1" vertex="1" parent="1">
          <mxGeometry x="420.63" y="2295" width="280" height="60" as="geometry" />
        </mxCell>
        <mxCell id="3BRQNajPM5yB8tm0Zg5W-333" value="&lt;font style=&quot;font-size: 18px;&quot;&gt;Забрать информацию с файлов PDF&amp;nbsp;&lt;/font&gt;" style="text;html=1;strokeColor=none;fillColor=none;align=center;verticalAlign=middle;whiteSpace=wrap;rounded=0;shadow=0;fontSize=14;fontColor=#FFFFFF;" vertex="1" parent="1">
          <mxGeometry x="420.63" y="2595" width="280" height="90" as="geometry" />
        </mxCell>
        <mxCell id="3BRQNajPM5yB8tm0Zg5W-334" value="" style="line;strokeWidth=2;html=1;rounded=0;shadow=0;fontSize=27;align=center;fillColor=none;strokeColor=#FFFFFF;" vertex="1" parent="1">
          <mxGeometry x="440.63" y="2355" width="240" height="10" as="geometry" />
        </mxCell>
        <mxCell id="3BRQNajPM5yB8tm0Zg5W-335" value="" style="line;strokeWidth=2;html=1;rounded=0;shadow=0;fontSize=27;align=center;fillColor=none;strokeColor=#FFFFFF;" vertex="1" parent="1">
          <mxGeometry x="440.63" y="2575" width="240" height="10" as="geometry" />
        </mxCell>
        <mxCell id="3BRQNajPM5yB8tm0Zg5W-336" value="&lt;font style=&quot;font-size: 24px;&quot;&gt;Филипп&lt;/font&gt;" style="ellipse;whiteSpace=wrap;html=1;rounded=0;shadow=0;strokeWidth=6;fontSize=14;align=center;fillColor=#397DAA;strokeColor=#FFFFFF;fontColor=#FFFFFF;" vertex="1" parent="1">
          <mxGeometry x="363.63" y="2415" width="115" height="115" as="geometry" />
        </mxCell>
        <mxCell id="3BRQNajPM5yB8tm0Zg5W-337" value="" style="html=1;shadow=0;dashed=0;align=center;verticalAlign=middle;shape=mxgraph.arrows2.stylisedArrow;dy=0.6;dx=40;notch=15;feather=0.4;rounded=0;strokeWidth=1;fontSize=27;strokeColor=none;fillColor=#fff2cc;" vertex="1" parent="1">
          <mxGeometry x="510.63" y="2443" width="100" height="60" as="geometry" />
        </mxCell>
        <mxCell id="3BRQNajPM5yB8tm0Zg5W-338" value="" style="whiteSpace=wrap;html=1;rounded=1;shadow=0;strokeWidth=8;fontSize=20;align=center;fillColor=#FFB001;strokeColor=#FFFFFF;" vertex="1" parent="1">
          <mxGeometry x="695.26" y="2272.5" width="280" height="430" as="geometry" />
        </mxCell>
        <mxCell id="3BRQNajPM5yB8tm0Zg5W-339" value="" style="whiteSpace=wrap;html=1;rounded=1;shadow=0;strokeWidth=8;fontSize=20;align=center;fillColor=#FFB001;strokeColor=#FFFFFF;" vertex="1" parent="1">
          <mxGeometry x="696.89" y="2272.5" width="280" height="430" as="geometry" />
        </mxCell>
        <mxCell id="3BRQNajPM5yB8tm0Zg5W-340" value="Разделение информации" style="text;html=1;strokeColor=none;fillColor=none;align=center;verticalAlign=middle;whiteSpace=wrap;rounded=0;shadow=0;fontSize=27;fontColor=#FFFFFF;fontStyle=1" vertex="1" parent="1">
          <mxGeometry x="693.63" y="2295" width="280" height="60" as="geometry" />
        </mxCell>
        <mxCell id="3BRQNajPM5yB8tm0Zg5W-341" value="&lt;span style=&quot;font-size: 18px;&quot;&gt;Выудить тип соревнования&lt;/span&gt;" style="text;html=1;strokeColor=none;fillColor=none;align=center;verticalAlign=middle;whiteSpace=wrap;rounded=0;shadow=0;fontSize=14;fontColor=#FFFFFF;" vertex="1" parent="1">
          <mxGeometry x="693.63" y="2595" width="280" height="90" as="geometry" />
        </mxCell>
        <mxCell id="3BRQNajPM5yB8tm0Zg5W-342" value="" style="line;strokeWidth=2;html=1;rounded=0;shadow=0;fontSize=27;align=center;fillColor=none;strokeColor=#FFFFFF;" vertex="1" parent="1">
          <mxGeometry x="713.63" y="2355" width="240" height="10" as="geometry" />
        </mxCell>
        <mxCell id="3BRQNajPM5yB8tm0Zg5W-343" value="" style="line;strokeWidth=2;html=1;rounded=0;shadow=0;fontSize=27;align=center;fillColor=none;strokeColor=#FFFFFF;" vertex="1" parent="1">
          <mxGeometry x="713.63" y="2575" width="240" height="10" as="geometry" />
        </mxCell>
        <mxCell id="3BRQNajPM5yB8tm0Zg5W-344" value="" style="html=1;shadow=0;dashed=0;align=center;verticalAlign=middle;shape=mxgraph.arrows2.stylisedArrow;dy=0.6;dx=40;notch=15;feather=0.4;rounded=0;strokeWidth=1;fontSize=27;strokeColor=none;fillColor=#fff2cc;" vertex="1" parent="1">
          <mxGeometry x="783.63" y="2443" width="100" height="60" as="geometry" />
        </mxCell>
        <mxCell id="3BRQNajPM5yB8tm0Zg5W-345" value="&lt;font style=&quot;font-size: 24px;&quot;&gt;Лиза&lt;/font&gt;" style="ellipse;whiteSpace=wrap;html=1;rounded=0;shadow=0;strokeWidth=6;fontSize=14;align=center;fillColor=#BFB4A9;strokeColor=#FFFFFF;fontColor=#FFFFFF;" vertex="1" parent="1">
          <mxGeometry x="634.63" y="2418" width="115" height="115" as="geometry" />
        </mxCell>
        <mxCell id="3BRQNajPM5yB8tm0Zg5W-346" value="&lt;font style=&quot;font-size: 24px;&quot;&gt;Филипп&lt;/font&gt;" style="ellipse;whiteSpace=wrap;html=1;rounded=0;shadow=0;strokeWidth=6;fontSize=14;align=center;fillColor=#397DAA;strokeColor=#FFFFFF;fontColor=#FFFFFF;" vertex="1" parent="1">
          <mxGeometry x="634.52" y="2418" width="115" height="115" as="geometry" />
        </mxCell>
        <mxCell id="3BRQNajPM5yB8tm0Zg5W-347" value="0" style="whiteSpace=wrap;html=1;rounded=1;shadow=0;strokeWidth=8;fontSize=20;align=center;fillColor=#FFB001;strokeColor=#FFFFFF;" vertex="1" parent="1">
          <mxGeometry x="976.26" y="2272.5" width="280" height="430" as="geometry" />
        </mxCell>
        <mxCell id="3BRQNajPM5yB8tm0Zg5W-348" value="" style="whiteSpace=wrap;html=1;rounded=1;shadow=0;strokeWidth=8;fontSize=20;align=center;fillColor=#FFB001;strokeColor=#FFFFFF;" vertex="1" parent="1">
          <mxGeometry x="977.89" y="2272.5" width="280" height="430" as="geometry" />
        </mxCell>
        <mxCell id="3BRQNajPM5yB8tm0Zg5W-349" value="Разделение информации" style="text;html=1;strokeColor=none;fillColor=none;align=center;verticalAlign=middle;whiteSpace=wrap;rounded=0;shadow=0;fontSize=27;fontColor=#FFFFFF;fontStyle=1" vertex="1" parent="1">
          <mxGeometry x="974.63" y="2295" width="280" height="60" as="geometry" />
        </mxCell>
        <mxCell id="3BRQNajPM5yB8tm0Zg5W-350" value="&lt;span style=&quot;font-size: 18px;&quot;&gt;Выудить округ соревнования&lt;/span&gt;" style="text;html=1;strokeColor=none;fillColor=none;align=center;verticalAlign=middle;whiteSpace=wrap;rounded=0;shadow=0;fontSize=14;fontColor=#FFFFFF;" vertex="1" parent="1">
          <mxGeometry x="974.63" y="2595" width="280" height="90" as="geometry" />
        </mxCell>
        <mxCell id="3BRQNajPM5yB8tm0Zg5W-351" value="" style="line;strokeWidth=2;html=1;rounded=0;shadow=0;fontSize=27;align=center;fillColor=none;strokeColor=#FFFFFF;" vertex="1" parent="1">
          <mxGeometry x="994.63" y="2355" width="240" height="10" as="geometry" />
        </mxCell>
        <mxCell id="3BRQNajPM5yB8tm0Zg5W-352" value="" style="line;strokeWidth=2;html=1;rounded=0;shadow=0;fontSize=27;align=center;fillColor=none;strokeColor=#FFFFFF;" vertex="1" parent="1">
          <mxGeometry x="994.63" y="2575" width="240" height="10" as="geometry" />
        </mxCell>
        <mxCell id="3BRQNajPM5yB8tm0Zg5W-353" value="" style="html=1;shadow=0;dashed=0;align=center;verticalAlign=middle;shape=mxgraph.arrows2.stylisedArrow;dy=0.6;dx=40;notch=15;feather=0.4;rounded=0;strokeWidth=1;fontSize=27;strokeColor=none;fillColor=#fff2cc;" vertex="1" parent="1">
          <mxGeometry x="1064.63" y="2443" width="100" height="60" as="geometry" />
        </mxCell>
        <mxCell id="3BRQNajPM5yB8tm0Zg5W-354" value="&lt;font style=&quot;font-size: 24px;&quot;&gt;Лиза&lt;/font&gt;" style="ellipse;whiteSpace=wrap;html=1;rounded=0;shadow=0;strokeWidth=6;fontSize=14;align=center;fillColor=#BFB4A9;strokeColor=#FFFFFF;fontColor=#FFFFFF;" vertex="1" parent="1">
          <mxGeometry x="915.63" y="2418" width="115" height="115" as="geometry" />
        </mxCell>
        <mxCell id="3BRQNajPM5yB8tm0Zg5W-355" value="&lt;font style=&quot;font-size: 24px;&quot;&gt;Филипп&lt;/font&gt;" style="ellipse;whiteSpace=wrap;html=1;rounded=0;shadow=0;strokeWidth=6;fontSize=14;align=center;fillColor=#397DAA;strokeColor=#FFFFFF;fontColor=#FFFFFF;" vertex="1" parent="1">
          <mxGeometry x="915.52" y="2418" width="115" height="115" as="geometry" />
        </mxCell>
        <mxCell id="3BRQNajPM5yB8tm0Zg5W-356" value="" style="whiteSpace=wrap;html=1;rounded=1;shadow=0;strokeWidth=8;fontSize=20;align=center;fillColor=#FFB001;strokeColor=#FFFFFF;" vertex="1" parent="1">
          <mxGeometry x="3217.63" y="394" width="280" height="430" as="geometry" />
        </mxCell>
        <mxCell id="3BRQNajPM5yB8tm0Zg5W-357" value="" style="whiteSpace=wrap;html=1;rounded=1;shadow=0;strokeWidth=8;fontSize=20;align=center;fillColor=#FFB001;strokeColor=#FFFFFF;" vertex="1" parent="1">
          <mxGeometry x="3216" y="396.5" width="280" height="430" as="geometry" />
        </mxCell>
        <mxCell id="3BRQNajPM5yB8tm0Zg5W-358" value="Регион" style="text;html=1;strokeColor=none;fillColor=none;align=center;verticalAlign=middle;whiteSpace=wrap;rounded=0;shadow=0;fontSize=27;fontColor=#FFFFFF;fontStyle=1" vertex="1" parent="1">
          <mxGeometry x="3216" y="416.5" width="280" height="60" as="geometry" />
        </mxCell>
        <mxCell id="3BRQNajPM5yB8tm0Zg5W-359" value="&lt;font style=&quot;font-size: 18px;&quot;&gt;Округ, Всероссийские,&amp;nbsp;&lt;/font&gt;" style="text;html=1;strokeColor=none;fillColor=none;align=center;verticalAlign=middle;whiteSpace=wrap;rounded=0;shadow=0;fontSize=14;fontColor=#FFFFFF;" vertex="1" parent="1">
          <mxGeometry x="3216" y="716.5" width="280" height="90" as="geometry" />
        </mxCell>
        <mxCell id="3BRQNajPM5yB8tm0Zg5W-360" value="" style="line;strokeWidth=2;html=1;rounded=0;shadow=0;fontSize=27;align=center;fillColor=none;strokeColor=#FFFFFF;" vertex="1" parent="1">
          <mxGeometry x="3236" y="476.5" width="240" height="10" as="geometry" />
        </mxCell>
        <mxCell id="3BRQNajPM5yB8tm0Zg5W-361" value="" style="line;strokeWidth=2;html=1;rounded=0;shadow=0;fontSize=27;align=center;fillColor=none;strokeColor=#FFFFFF;" vertex="1" parent="1">
          <mxGeometry x="3236" y="696.5" width="240" height="10" as="geometry" />
        </mxCell>
        <mxCell id="3BRQNajPM5yB8tm0Zg5W-362" value="" style="html=1;shadow=0;dashed=0;align=center;verticalAlign=middle;shape=mxgraph.arrows2.stylisedArrow;dy=0.6;dx=40;notch=15;feather=0.4;rounded=0;strokeWidth=1;fontSize=27;strokeColor=none;fillColor=#fff2cc;" vertex="1" parent="1">
          <mxGeometry x="3306" y="564.5" width="100" height="60" as="geometry" />
        </mxCell>
        <mxCell id="3BRQNajPM5yB8tm0Zg5W-363" value="&lt;font style=&quot;font-size: 24px;&quot;&gt;Лиза&lt;/font&gt;" style="ellipse;whiteSpace=wrap;html=1;rounded=0;shadow=0;strokeWidth=6;fontSize=14;align=center;fillColor=#BFB4A9;strokeColor=#FFFFFF;fontColor=#FFFFFF;" vertex="1" parent="1">
          <mxGeometry x="3157" y="539.5" width="115" height="115" as="geometry" />
        </mxCell>
        <mxCell id="3BRQNajPM5yB8tm0Zg5W-364" value="" style="whiteSpace=wrap;html=1;rounded=1;shadow=0;strokeWidth=8;fontSize=20;align=center;fillColor=#FFB001;strokeColor=#FFFFFF;" vertex="1" parent="1">
          <mxGeometry x="3216.63" y="830.5" width="280" height="430" as="geometry" />
        </mxCell>
        <mxCell id="3BRQNajPM5yB8tm0Zg5W-365" value="" style="whiteSpace=wrap;html=1;rounded=1;shadow=0;strokeWidth=8;fontSize=20;align=center;fillColor=#FFB001;strokeColor=#FFFFFF;" vertex="1" parent="1">
          <mxGeometry x="3216.63" y="825.5" width="280" height="430" as="geometry" />
        </mxCell>
        <mxCell id="3BRQNajPM5yB8tm0Zg5W-366" value="Тип состязания" style="text;html=1;strokeColor=none;fillColor=none;align=center;verticalAlign=middle;whiteSpace=wrap;rounded=0;shadow=0;fontSize=27;fontColor=#FFFFFF;fontStyle=1" vertex="1" parent="1">
          <mxGeometry x="3215" y="853" width="280" height="60" as="geometry" />
        </mxCell>
        <mxCell id="3BRQNajPM5yB8tm0Zg5W-367" value="&lt;font style=&quot;font-size: 18px;&quot;&gt;Кубок, чемпионат, соревнование и т.д.&lt;/font&gt;" style="text;html=1;strokeColor=none;fillColor=none;align=center;verticalAlign=middle;whiteSpace=wrap;rounded=0;shadow=0;fontSize=14;fontColor=#FFFFFF;" vertex="1" parent="1">
          <mxGeometry x="3215" y="1153" width="280" height="90" as="geometry" />
        </mxCell>
        <mxCell id="3BRQNajPM5yB8tm0Zg5W-368" value="" style="line;strokeWidth=2;html=1;rounded=0;shadow=0;fontSize=27;align=center;fillColor=none;strokeColor=#FFFFFF;" vertex="1" parent="1">
          <mxGeometry x="3235" y="913" width="240" height="10" as="geometry" />
        </mxCell>
        <mxCell id="3BRQNajPM5yB8tm0Zg5W-369" value="" style="line;strokeWidth=2;html=1;rounded=0;shadow=0;fontSize=27;align=center;fillColor=none;strokeColor=#FFFFFF;" vertex="1" parent="1">
          <mxGeometry x="3235" y="1133" width="240" height="10" as="geometry" />
        </mxCell>
        <mxCell id="3BRQNajPM5yB8tm0Zg5W-370" value="" style="html=1;shadow=0;dashed=0;align=center;verticalAlign=middle;shape=mxgraph.arrows2.stylisedArrow;dy=0.6;dx=40;notch=15;feather=0.4;rounded=0;strokeWidth=1;fontSize=27;strokeColor=none;fillColor=#fff2cc;" vertex="1" parent="1">
          <mxGeometry x="3305" y="1001" width="100" height="60" as="geometry" />
        </mxCell>
        <mxCell id="3BRQNajPM5yB8tm0Zg5W-371" value="&lt;font style=&quot;font-size: 24px;&quot;&gt;Лиза&lt;/font&gt;" style="ellipse;whiteSpace=wrap;html=1;rounded=0;shadow=0;strokeWidth=6;fontSize=14;align=center;fillColor=#BFB4A9;strokeColor=#FFFFFF;fontColor=#FFFFFF;" vertex="1" parent="1">
          <mxGeometry x="3166" y="1008" width="115" height="115" as="geometry" />
        </mxCell>
        <mxCell id="3BRQNajPM5yB8tm0Zg5W-372" value="" style="whiteSpace=wrap;html=1;rounded=1;shadow=0;strokeWidth=8;fontSize=20;align=center;fillColor=#FFB001;strokeColor=#FFFFFF;" vertex="1" parent="1">
          <mxGeometry x="2406.63" y="630" width="280" height="430" as="geometry" />
        </mxCell>
        <mxCell id="3BRQNajPM5yB8tm0Zg5W-373" value="" style="whiteSpace=wrap;html=1;rounded=1;shadow=0;strokeWidth=8;fontSize=20;align=center;fillColor=#FFB001;strokeColor=#FFFFFF;" vertex="1" parent="1">
          <mxGeometry x="2408.26" y="630" width="280" height="430" as="geometry" />
        </mxCell>
        <mxCell id="3BRQNajPM5yB8tm0Zg5W-374" value="Этап" style="text;html=1;strokeColor=none;fillColor=none;align=center;verticalAlign=middle;whiteSpace=wrap;rounded=0;shadow=0;fontSize=27;fontColor=#FFFFFF;fontStyle=1" vertex="1" parent="1">
          <mxGeometry x="2405" y="652.5" width="280" height="60" as="geometry" />
        </mxCell>
        <mxCell id="3BRQNajPM5yB8tm0Zg5W-375" value="&lt;font style=&quot;font-size: 18px;&quot;&gt;Финал, 1 этап и т.п.&lt;/font&gt;" style="text;html=1;strokeColor=none;fillColor=none;align=center;verticalAlign=middle;whiteSpace=wrap;rounded=0;shadow=0;fontSize=14;fontColor=#FFFFFF;" vertex="1" parent="1">
          <mxGeometry x="2405" y="952.5" width="280" height="90" as="geometry" />
        </mxCell>
        <mxCell id="3BRQNajPM5yB8tm0Zg5W-376" value="" style="line;strokeWidth=2;html=1;rounded=0;shadow=0;fontSize=27;align=center;fillColor=none;strokeColor=#FFFFFF;" vertex="1" parent="1">
          <mxGeometry x="2425" y="712.5" width="240" height="10" as="geometry" />
        </mxCell>
        <mxCell id="3BRQNajPM5yB8tm0Zg5W-377" value="" style="line;strokeWidth=2;html=1;rounded=0;shadow=0;fontSize=27;align=center;fillColor=none;strokeColor=#FFFFFF;" vertex="1" parent="1">
          <mxGeometry x="2425" y="932.5" width="240" height="10" as="geometry" />
        </mxCell>
        <mxCell id="3BRQNajPM5yB8tm0Zg5W-378" value="" style="html=1;shadow=0;dashed=0;align=center;verticalAlign=middle;shape=mxgraph.arrows2.stylisedArrow;dy=0.6;dx=40;notch=15;feather=0.4;rounded=0;strokeWidth=1;fontSize=27;strokeColor=none;fillColor=#fff2cc;" vertex="1" parent="1">
          <mxGeometry x="2495" y="800.5" width="100" height="60" as="geometry" />
        </mxCell>
        <mxCell id="3BRQNajPM5yB8tm0Zg5W-379" value="&lt;font style=&quot;font-size: 24px;&quot;&gt;Лиза&lt;/font&gt;" style="ellipse;whiteSpace=wrap;html=1;rounded=0;shadow=0;strokeWidth=6;fontSize=14;align=center;fillColor=#BFB4A9;strokeColor=#FFFFFF;fontColor=#FFFFFF;" vertex="1" parent="1">
          <mxGeometry x="2346" y="775.5" width="115" height="115" as="geometry" />
        </mxCell>
        <mxCell id="3BRQNajPM5yB8tm0Zg5W-381" value="" style="triangle;whiteSpace=wrap;html=1;fillColor=#00CC00;" vertex="1" parent="1">
          <mxGeometry x="805.26" y="1020" width="60" height="80" as="geometry" />
        </mxCell>
        <mxCell id="3BRQNajPM5yB8tm0Zg5W-382" value="" style="triangle;whiteSpace=wrap;html=1;fillColor=#00CC00;" vertex="1" parent="1">
          <mxGeometry x="1387" y="1020" width="60" height="80" as="geometry" />
        </mxCell>
        <mxCell id="3BRQNajPM5yB8tm0Zg5W-383" value="" style="triangle;whiteSpace=wrap;html=1;fillColor=#00CC00;" vertex="1" parent="1">
          <mxGeometry x="1663" y="1020" width="60" height="80" as="geometry" />
        </mxCell>
        <mxCell id="3BRQNajPM5yB8tm0Zg5W-384" value="" style="triangle;whiteSpace=wrap;html=1;fillColor=#00CC00;" vertex="1" parent="1">
          <mxGeometry x="1946.26" y="1020" width="60" height="80" as="geometry" />
        </mxCell>
        <mxCell id="3BRQNajPM5yB8tm0Zg5W-385" value="" style="triangle;whiteSpace=wrap;html=1;fillColor=#00CC00;" vertex="1" parent="1">
          <mxGeometry x="2230.26" y="1020" width="60" height="80" as="geometry" />
        </mxCell>
        <mxCell id="3BRQNajPM5yB8tm0Zg5W-386" value="" style="triangle;whiteSpace=wrap;html=1;fillColor=#00CC00;" vertex="1" parent="1">
          <mxGeometry x="2800.63" y="1018" width="60" height="80" as="geometry" />
        </mxCell>
        <mxCell id="3BRQNajPM5yB8tm0Zg5W-162" value="&lt;font style=&quot;font-size: 24px;&quot;&gt;Лиза&lt;/font&gt;" style="ellipse;whiteSpace=wrap;html=1;rounded=0;shadow=0;strokeWidth=6;fontSize=14;align=center;fillColor=#BFB4A9;strokeColor=#FFFFFF;fontColor=#FFFFFF;" vertex="1" parent="1">
          <mxGeometry x="2630" y="775.5" width="115" height="115" as="geometry" />
        </mxCell>
        <mxCell id="3BRQNajPM5yB8tm0Zg5W-387" value="" style="triangle;whiteSpace=wrap;html=1;fillColor=#00CC00;" vertex="1" parent="1">
          <mxGeometry x="3090" y="1020" width="60" height="80" as="geometry" />
        </mxCell>
        <mxCell id="3BRQNajPM5yB8tm0Zg5W-388" value="" style="whiteSpace=wrap;html=1;rounded=1;shadow=0;strokeWidth=8;fontSize=20;align=center;fillColor=#FFB001;strokeColor=#FFFFFF;" vertex="1" parent="1">
          <mxGeometry x="3497.63" y="630" width="280" height="430" as="geometry" />
        </mxCell>
        <mxCell id="3BRQNajPM5yB8tm0Zg5W-389" value="" style="whiteSpace=wrap;html=1;rounded=1;shadow=0;strokeWidth=8;fontSize=20;align=center;fillColor=#FFB001;strokeColor=#FFFFFF;" vertex="1" parent="1">
          <mxGeometry x="3499.26" y="630" width="280" height="430" as="geometry" />
        </mxCell>
        <mxCell id="3BRQNajPM5yB8tm0Zg5W-390" value="Состав" style="text;html=1;strokeColor=none;fillColor=none;align=center;verticalAlign=middle;whiteSpace=wrap;rounded=0;shadow=0;fontSize=27;fontColor=#FFFFFF;fontStyle=1" vertex="1" parent="1">
          <mxGeometry x="3496" y="652.5" width="280" height="60" as="geometry" />
        </mxCell>
        <mxCell id="3BRQNajPM5yB8tm0Zg5W-391" value="&lt;font style=&quot;font-size: 18px;&quot;&gt;Булево&lt;/font&gt;&lt;div&gt;&lt;font style=&quot;font-size: 18px;&quot;&gt;молодежный/основной&lt;/font&gt;&lt;/div&gt;" style="text;html=1;strokeColor=none;fillColor=none;align=center;verticalAlign=middle;whiteSpace=wrap;rounded=0;shadow=0;fontSize=14;fontColor=#FFFFFF;" vertex="1" parent="1">
          <mxGeometry x="3496" y="952.5" width="280" height="90" as="geometry" />
        </mxCell>
        <mxCell id="3BRQNajPM5yB8tm0Zg5W-392" value="" style="line;strokeWidth=2;html=1;rounded=0;shadow=0;fontSize=27;align=center;fillColor=none;strokeColor=#FFFFFF;" vertex="1" parent="1">
          <mxGeometry x="3516" y="712.5" width="240" height="10" as="geometry" />
        </mxCell>
        <mxCell id="3BRQNajPM5yB8tm0Zg5W-393" value="" style="line;strokeWidth=2;html=1;rounded=0;shadow=0;fontSize=27;align=center;fillColor=none;strokeColor=#FFFFFF;" vertex="1" parent="1">
          <mxGeometry x="3516" y="932.5" width="240" height="10" as="geometry" />
        </mxCell>
        <mxCell id="3BRQNajPM5yB8tm0Zg5W-394" value="" style="html=1;shadow=0;dashed=0;align=center;verticalAlign=middle;shape=mxgraph.arrows2.stylisedArrow;dy=0.6;dx=40;notch=15;feather=0.4;rounded=0;strokeWidth=1;fontSize=27;strokeColor=none;fillColor=#fff2cc;" vertex="1" parent="1">
          <mxGeometry x="3586" y="800.5" width="100" height="60" as="geometry" />
        </mxCell>
        <mxCell id="3BRQNajPM5yB8tm0Zg5W-395" value="&lt;font style=&quot;font-size: 24px;&quot;&gt;Лиза&lt;/font&gt;" style="ellipse;whiteSpace=wrap;html=1;rounded=0;shadow=0;strokeWidth=6;fontSize=14;align=center;fillColor=#BFB4A9;strokeColor=#FFFFFF;fontColor=#FFFFFF;" vertex="1" parent="1">
          <mxGeometry x="3437" y="775.5" width="115" height="115" as="geometry" />
        </mxCell>
        <mxCell id="3BRQNajPM5yB8tm0Zg5W-397" value="0" style="whiteSpace=wrap;html=1;rounded=1;shadow=0;strokeWidth=8;fontSize=20;align=center;fillColor=#FFB001;strokeColor=#FFFFFF;" vertex="1" parent="1">
          <mxGeometry x="1254.26" y="2273.5" width="280" height="430" as="geometry" />
        </mxCell>
        <mxCell id="3BRQNajPM5yB8tm0Zg5W-398" value="" style="whiteSpace=wrap;html=1;rounded=1;shadow=0;strokeWidth=8;fontSize=20;align=center;fillColor=#FFB001;strokeColor=#FFFFFF;" vertex="1" parent="1">
          <mxGeometry x="1255.8899999999999" y="2273.5" width="280" height="430" as="geometry" />
        </mxCell>
        <mxCell id="3BRQNajPM5yB8tm0Zg5W-399" value="Разделение информации" style="text;html=1;strokeColor=none;fillColor=none;align=center;verticalAlign=middle;whiteSpace=wrap;rounded=0;shadow=0;fontSize=27;fontColor=#FFFFFF;fontStyle=1" vertex="1" parent="1">
          <mxGeometry x="1252.63" y="2296" width="280" height="60" as="geometry" />
        </mxCell>
        <mxCell id="3BRQNajPM5yB8tm0Zg5W-400" value="&lt;span style=&quot;font-size: 18px;&quot;&gt;Выудить пол участников&lt;/span&gt;" style="text;html=1;strokeColor=none;fillColor=none;align=center;verticalAlign=middle;whiteSpace=wrap;rounded=0;shadow=0;fontSize=14;fontColor=#FFFFFF;" vertex="1" parent="1">
          <mxGeometry x="1252.63" y="2596" width="280" height="90" as="geometry" />
        </mxCell>
        <mxCell id="3BRQNajPM5yB8tm0Zg5W-401" value="" style="line;strokeWidth=2;html=1;rounded=0;shadow=0;fontSize=27;align=center;fillColor=none;strokeColor=#FFFFFF;" vertex="1" parent="1">
          <mxGeometry x="1272.63" y="2356" width="240" height="10" as="geometry" />
        </mxCell>
        <mxCell id="3BRQNajPM5yB8tm0Zg5W-402" value="" style="line;strokeWidth=2;html=1;rounded=0;shadow=0;fontSize=27;align=center;fillColor=none;strokeColor=#FFFFFF;" vertex="1" parent="1">
          <mxGeometry x="1272.63" y="2576" width="240" height="10" as="geometry" />
        </mxCell>
        <mxCell id="3BRQNajPM5yB8tm0Zg5W-403" value="" style="html=1;shadow=0;dashed=0;align=center;verticalAlign=middle;shape=mxgraph.arrows2.stylisedArrow;dy=0.6;dx=40;notch=15;feather=0.4;rounded=0;strokeWidth=1;fontSize=27;strokeColor=none;fillColor=#fff2cc;" vertex="1" parent="1">
          <mxGeometry x="1342.63" y="2444" width="100" height="60" as="geometry" />
        </mxCell>
        <mxCell id="3BRQNajPM5yB8tm0Zg5W-404" value="&lt;font style=&quot;font-size: 24px;&quot;&gt;Лиза&lt;/font&gt;" style="ellipse;whiteSpace=wrap;html=1;rounded=0;shadow=0;strokeWidth=6;fontSize=14;align=center;fillColor=#BFB4A9;strokeColor=#FFFFFF;fontColor=#FFFFFF;" vertex="1" parent="1">
          <mxGeometry x="1193.63" y="2419" width="115" height="115" as="geometry" />
        </mxCell>
        <mxCell id="3BRQNajPM5yB8tm0Zg5W-405" value="&lt;font style=&quot;font-size: 24px;&quot;&gt;Филипп&lt;/font&gt;" style="ellipse;whiteSpace=wrap;html=1;rounded=0;shadow=0;strokeWidth=6;fontSize=14;align=center;fillColor=#397DAA;strokeColor=#FFFFFF;fontColor=#FFFFFF;" vertex="1" parent="1">
          <mxGeometry x="1193.52" y="2419" width="115" height="115" as="geometry" />
        </mxCell>
        <mxCell id="3BRQNajPM5yB8tm0Zg5W-406" value="0" style="whiteSpace=wrap;html=1;rounded=1;shadow=0;strokeWidth=8;fontSize=20;align=center;fillColor=#FFB001;strokeColor=#FFFFFF;" vertex="1" parent="1">
          <mxGeometry x="1538.26" y="2271.5" width="280" height="430" as="geometry" />
        </mxCell>
        <mxCell id="3BRQNajPM5yB8tm0Zg5W-407" value="" style="whiteSpace=wrap;html=1;rounded=1;shadow=0;strokeWidth=8;fontSize=20;align=center;fillColor=#FFB001;strokeColor=#FFFFFF;" vertex="1" parent="1">
          <mxGeometry x="1539.8899999999999" y="2271.5" width="280" height="430" as="geometry" />
        </mxCell>
        <mxCell id="3BRQNajPM5yB8tm0Zg5W-408" value="Разделение информации" style="text;html=1;strokeColor=none;fillColor=none;align=center;verticalAlign=middle;whiteSpace=wrap;rounded=0;shadow=0;fontSize=27;fontColor=#FFFFFF;fontStyle=1" vertex="1" parent="1">
          <mxGeometry x="1536.63" y="2294" width="280" height="60" as="geometry" />
        </mxCell>
        <mxCell id="3BRQNajPM5yB8tm0Zg5W-409" value="&lt;span style=&quot;font-size: 18px;&quot;&gt;Выудить возраст участников&lt;/span&gt;" style="text;html=1;strokeColor=none;fillColor=none;align=center;verticalAlign=middle;whiteSpace=wrap;rounded=0;shadow=0;fontSize=14;fontColor=#FFFFFF;" vertex="1" parent="1">
          <mxGeometry x="1536.63" y="2594" width="280" height="90" as="geometry" />
        </mxCell>
        <mxCell id="3BRQNajPM5yB8tm0Zg5W-410" value="" style="line;strokeWidth=2;html=1;rounded=0;shadow=0;fontSize=27;align=center;fillColor=none;strokeColor=#FFFFFF;" vertex="1" parent="1">
          <mxGeometry x="1556.63" y="2354" width="240" height="10" as="geometry" />
        </mxCell>
        <mxCell id="3BRQNajPM5yB8tm0Zg5W-411" value="" style="line;strokeWidth=2;html=1;rounded=0;shadow=0;fontSize=27;align=center;fillColor=none;strokeColor=#FFFFFF;" vertex="1" parent="1">
          <mxGeometry x="1556.63" y="2574" width="240" height="10" as="geometry" />
        </mxCell>
        <mxCell id="3BRQNajPM5yB8tm0Zg5W-412" value="" style="html=1;shadow=0;dashed=0;align=center;verticalAlign=middle;shape=mxgraph.arrows2.stylisedArrow;dy=0.6;dx=40;notch=15;feather=0.4;rounded=0;strokeWidth=1;fontSize=27;strokeColor=none;fillColor=#fff2cc;" vertex="1" parent="1">
          <mxGeometry x="1626.63" y="2442" width="100" height="60" as="geometry" />
        </mxCell>
        <mxCell id="3BRQNajPM5yB8tm0Zg5W-413" value="&lt;font style=&quot;font-size: 24px;&quot;&gt;Лиза&lt;/font&gt;" style="ellipse;whiteSpace=wrap;html=1;rounded=0;shadow=0;strokeWidth=6;fontSize=14;align=center;fillColor=#BFB4A9;strokeColor=#FFFFFF;fontColor=#FFFFFF;" vertex="1" parent="1">
          <mxGeometry x="1477.63" y="2417" width="115" height="115" as="geometry" />
        </mxCell>
        <mxCell id="3BRQNajPM5yB8tm0Zg5W-414" value="&lt;font style=&quot;font-size: 24px;&quot;&gt;Филипп&lt;/font&gt;" style="ellipse;whiteSpace=wrap;html=1;rounded=0;shadow=0;strokeWidth=6;fontSize=14;align=center;fillColor=#397DAA;strokeColor=#FFFFFF;fontColor=#FFFFFF;" vertex="1" parent="1">
          <mxGeometry x="1477.52" y="2417" width="115" height="115" as="geometry" />
        </mxCell>
        <mxCell id="3BRQNajPM5yB8tm0Zg5W-415" value="" style="triangle;whiteSpace=wrap;html=1;fillColor=#00CC00;" vertex="1" parent="1">
          <mxGeometry x="1382.63" y="1570" width="60" height="80" as="geometry" />
        </mxCell>
        <mxCell id="3BRQNajPM5yB8tm0Zg5W-416" value="" style="triangle;whiteSpace=wrap;html=1;fillColor=#00CC00;" vertex="1" parent="1">
          <mxGeometry x="1092.26" y="1570" width="60" height="80" as="geometry" />
        </mxCell>
        <mxCell id="3BRQNajPM5yB8tm0Zg5W-417" value="0" style="whiteSpace=wrap;html=1;rounded=1;shadow=0;strokeWidth=8;fontSize=20;align=center;fillColor=#FFB001;strokeColor=#FFFFFF;" vertex="1" parent="1">
          <mxGeometry x="1819.74" y="2270.5" width="280" height="430" as="geometry" />
        </mxCell>
        <mxCell id="3BRQNajPM5yB8tm0Zg5W-418" value="" style="whiteSpace=wrap;html=1;rounded=1;shadow=0;strokeWidth=8;fontSize=20;align=center;fillColor=#FFB001;strokeColor=#FFFFFF;" vertex="1" parent="1">
          <mxGeometry x="1821.37" y="2270.5" width="280" height="430" as="geometry" />
        </mxCell>
        <mxCell id="3BRQNajPM5yB8tm0Zg5W-419" value="Разделение информации" style="text;html=1;strokeColor=none;fillColor=none;align=center;verticalAlign=middle;whiteSpace=wrap;rounded=0;shadow=0;fontSize=27;fontColor=#FFFFFF;fontStyle=1" vertex="1" parent="1">
          <mxGeometry x="1818.1100000000001" y="2293" width="280" height="60" as="geometry" />
        </mxCell>
        <mxCell id="3BRQNajPM5yB8tm0Zg5W-420" value="&lt;span style=&quot;font-size: 18px;&quot;&gt;Выудить юниоров&lt;/span&gt;" style="text;html=1;strokeColor=none;fillColor=none;align=center;verticalAlign=middle;whiteSpace=wrap;rounded=0;shadow=0;fontSize=14;fontColor=#FFFFFF;" vertex="1" parent="1">
          <mxGeometry x="1818.1100000000001" y="2593" width="280" height="90" as="geometry" />
        </mxCell>
        <mxCell id="3BRQNajPM5yB8tm0Zg5W-421" value="" style="line;strokeWidth=2;html=1;rounded=0;shadow=0;fontSize=27;align=center;fillColor=none;strokeColor=#FFFFFF;" vertex="1" parent="1">
          <mxGeometry x="1838.1100000000001" y="2353" width="240" height="10" as="geometry" />
        </mxCell>
        <mxCell id="3BRQNajPM5yB8tm0Zg5W-422" value="" style="line;strokeWidth=2;html=1;rounded=0;shadow=0;fontSize=27;align=center;fillColor=none;strokeColor=#FFFFFF;" vertex="1" parent="1">
          <mxGeometry x="1838.1100000000001" y="2573" width="240" height="10" as="geometry" />
        </mxCell>
        <mxCell id="3BRQNajPM5yB8tm0Zg5W-423" value="" style="html=1;shadow=0;dashed=0;align=center;verticalAlign=middle;shape=mxgraph.arrows2.stylisedArrow;dy=0.6;dx=40;notch=15;feather=0.4;rounded=0;strokeWidth=1;fontSize=27;strokeColor=none;fillColor=#fff2cc;" vertex="1" parent="1">
          <mxGeometry x="1908.1100000000001" y="2441" width="100" height="60" as="geometry" />
        </mxCell>
        <mxCell id="3BRQNajPM5yB8tm0Zg5W-424" value="&lt;font style=&quot;font-size: 24px;&quot;&gt;Лиза&lt;/font&gt;" style="ellipse;whiteSpace=wrap;html=1;rounded=0;shadow=0;strokeWidth=6;fontSize=14;align=center;fillColor=#BFB4A9;strokeColor=#FFFFFF;fontColor=#FFFFFF;" vertex="1" parent="1">
          <mxGeometry x="1759.1100000000001" y="2416" width="115" height="115" as="geometry" />
        </mxCell>
        <mxCell id="3BRQNajPM5yB8tm0Zg5W-425" value="&lt;font style=&quot;font-size: 24px;&quot;&gt;Филипп&lt;/font&gt;" style="ellipse;whiteSpace=wrap;html=1;rounded=0;shadow=0;strokeWidth=6;fontSize=14;align=center;fillColor=#397DAA;strokeColor=#FFFFFF;fontColor=#FFFFFF;" vertex="1" parent="1">
          <mxGeometry x="1759" y="2416" width="115" height="115" as="geometry" />
        </mxCell>
        <mxCell id="3BRQNajPM5yB8tm0Zg5W-426" value="0" style="whiteSpace=wrap;html=1;rounded=1;shadow=0;strokeWidth=8;fontSize=20;align=center;fillColor=#FFB001;strokeColor=#FFFFFF;" vertex="1" parent="1">
          <mxGeometry x="2103.74" y="2268.5" width="280" height="430" as="geometry" />
        </mxCell>
        <mxCell id="3BRQNajPM5yB8tm0Zg5W-427" value="" style="whiteSpace=wrap;html=1;rounded=1;shadow=0;strokeWidth=8;fontSize=20;align=center;fillColor=#FFB001;strokeColor=#FFFFFF;" vertex="1" parent="1">
          <mxGeometry x="2105.37" y="2268.5" width="280" height="430" as="geometry" />
        </mxCell>
        <mxCell id="3BRQNajPM5yB8tm0Zg5W-428" value="Разделение информации" style="text;html=1;strokeColor=none;fillColor=none;align=center;verticalAlign=middle;whiteSpace=wrap;rounded=0;shadow=0;fontSize=27;fontColor=#FFFFFF;fontStyle=1" vertex="1" parent="1">
          <mxGeometry x="2102.11" y="2291" width="280" height="60" as="geometry" />
        </mxCell>
        <mxCell id="3BRQNajPM5yB8tm0Zg5W-429" value="&lt;span style=&quot;font-size: 18px;&quot;&gt;Выудить возраст участников&lt;/span&gt;" style="text;html=1;strokeColor=none;fillColor=none;align=center;verticalAlign=middle;whiteSpace=wrap;rounded=0;shadow=0;fontSize=14;fontColor=#FFFFFF;" vertex="1" parent="1">
          <mxGeometry x="2102.11" y="2591" width="280" height="90" as="geometry" />
        </mxCell>
        <mxCell id="3BRQNajPM5yB8tm0Zg5W-430" value="" style="line;strokeWidth=2;html=1;rounded=0;shadow=0;fontSize=27;align=center;fillColor=none;strokeColor=#FFFFFF;" vertex="1" parent="1">
          <mxGeometry x="2122.11" y="2351" width="240" height="10" as="geometry" />
        </mxCell>
        <mxCell id="3BRQNajPM5yB8tm0Zg5W-431" value="" style="line;strokeWidth=2;html=1;rounded=0;shadow=0;fontSize=27;align=center;fillColor=none;strokeColor=#FFFFFF;" vertex="1" parent="1">
          <mxGeometry x="2122.11" y="2571" width="240" height="10" as="geometry" />
        </mxCell>
        <mxCell id="3BRQNajPM5yB8tm0Zg5W-432" value="" style="html=1;shadow=0;dashed=0;align=center;verticalAlign=middle;shape=mxgraph.arrows2.stylisedArrow;dy=0.6;dx=40;notch=15;feather=0.4;rounded=0;strokeWidth=1;fontSize=27;strokeColor=none;fillColor=#fff2cc;" vertex="1" parent="1">
          <mxGeometry x="2192.11" y="2439" width="100" height="60" as="geometry" />
        </mxCell>
        <mxCell id="3BRQNajPM5yB8tm0Zg5W-433" value="&lt;font style=&quot;font-size: 24px;&quot;&gt;Лиза&lt;/font&gt;" style="ellipse;whiteSpace=wrap;html=1;rounded=0;shadow=0;strokeWidth=6;fontSize=14;align=center;fillColor=#BFB4A9;strokeColor=#FFFFFF;fontColor=#FFFFFF;" vertex="1" parent="1">
          <mxGeometry x="2043.1100000000001" y="2414" width="115" height="115" as="geometry" />
        </mxCell>
        <mxCell id="3BRQNajPM5yB8tm0Zg5W-434" value="&lt;font style=&quot;font-size: 24px;&quot;&gt;Филипп&lt;/font&gt;" style="ellipse;whiteSpace=wrap;html=1;rounded=0;shadow=0;strokeWidth=6;fontSize=14;align=center;fillColor=#397DAA;strokeColor=#FFFFFF;fontColor=#FFFFFF;" vertex="1" parent="1">
          <mxGeometry x="2043" y="2414" width="115" height="115" as="geometry" />
        </mxCell>
        <mxCell id="3BRQNajPM5yB8tm0Zg5W-444" value="0" style="whiteSpace=wrap;html=1;rounded=1;shadow=0;strokeWidth=8;fontSize=20;align=center;fillColor=#FFB001;strokeColor=#FFFFFF;" vertex="1" parent="1">
          <mxGeometry x="2385.74" y="2267.5" width="280" height="430" as="geometry" />
        </mxCell>
        <mxCell id="3BRQNajPM5yB8tm0Zg5W-445" value="" style="whiteSpace=wrap;html=1;rounded=1;shadow=0;strokeWidth=8;fontSize=20;align=center;fillColor=#FFB001;strokeColor=#FFFFFF;" vertex="1" parent="1">
          <mxGeometry x="2387.37" y="2267.5" width="280" height="430" as="geometry" />
        </mxCell>
        <mxCell id="3BRQNajPM5yB8tm0Zg5W-446" value="Разделение информации" style="text;html=1;strokeColor=none;fillColor=none;align=center;verticalAlign=middle;whiteSpace=wrap;rounded=0;shadow=0;fontSize=27;fontColor=#FFFFFF;fontStyle=1" vertex="1" parent="1">
          <mxGeometry x="2384.11" y="2290" width="280" height="60" as="geometry" />
        </mxCell>
        <mxCell id="3BRQNajPM5yB8tm0Zg5W-447" value="&lt;span style=&quot;font-size: 18px;&quot;&gt;Выудить дисциплину&lt;/span&gt;" style="text;html=1;strokeColor=none;fillColor=none;align=center;verticalAlign=middle;whiteSpace=wrap;rounded=0;shadow=0;fontSize=14;fontColor=#FFFFFF;" vertex="1" parent="1">
          <mxGeometry x="2384.11" y="2590" width="280" height="90" as="geometry" />
        </mxCell>
        <mxCell id="3BRQNajPM5yB8tm0Zg5W-448" value="" style="line;strokeWidth=2;html=1;rounded=0;shadow=0;fontSize=27;align=center;fillColor=none;strokeColor=#FFFFFF;" vertex="1" parent="1">
          <mxGeometry x="2404.11" y="2350" width="240" height="10" as="geometry" />
        </mxCell>
        <mxCell id="3BRQNajPM5yB8tm0Zg5W-449" value="" style="line;strokeWidth=2;html=1;rounded=0;shadow=0;fontSize=27;align=center;fillColor=none;strokeColor=#FFFFFF;" vertex="1" parent="1">
          <mxGeometry x="2404.11" y="2570" width="240" height="10" as="geometry" />
        </mxCell>
        <mxCell id="3BRQNajPM5yB8tm0Zg5W-450" value="" style="html=1;shadow=0;dashed=0;align=center;verticalAlign=middle;shape=mxgraph.arrows2.stylisedArrow;dy=0.6;dx=40;notch=15;feather=0.4;rounded=0;strokeWidth=1;fontSize=27;strokeColor=none;fillColor=#fff2cc;" vertex="1" parent="1">
          <mxGeometry x="2474.11" y="2438" width="100" height="60" as="geometry" />
        </mxCell>
        <mxCell id="3BRQNajPM5yB8tm0Zg5W-451" value="&lt;font style=&quot;font-size: 24px;&quot;&gt;Лиза&lt;/font&gt;" style="ellipse;whiteSpace=wrap;html=1;rounded=0;shadow=0;strokeWidth=6;fontSize=14;align=center;fillColor=#BFB4A9;strokeColor=#FFFFFF;fontColor=#FFFFFF;" vertex="1" parent="1">
          <mxGeometry x="2325.11" y="2413" width="115" height="115" as="geometry" />
        </mxCell>
        <mxCell id="3BRQNajPM5yB8tm0Zg5W-452" value="&lt;font style=&quot;font-size: 24px;&quot;&gt;Филипп&lt;/font&gt;" style="ellipse;whiteSpace=wrap;html=1;rounded=0;shadow=0;strokeWidth=6;fontSize=14;align=center;fillColor=#397DAA;strokeColor=#FFFFFF;fontColor=#FFFFFF;" vertex="1" parent="1">
          <mxGeometry x="2325" y="2413" width="115" height="115" as="geometry" />
        </mxCell>
        <mxCell id="3BRQNajPM5yB8tm0Zg5W-453" value="0" style="whiteSpace=wrap;html=1;rounded=1;shadow=0;strokeWidth=8;fontSize=20;align=center;fillColor=#FFB001;strokeColor=#FFFFFF;" vertex="1" parent="1">
          <mxGeometry x="2667.37" y="2265.5" width="280" height="430" as="geometry" />
        </mxCell>
        <mxCell id="3BRQNajPM5yB8tm0Zg5W-454" value="" style="whiteSpace=wrap;html=1;rounded=1;shadow=0;strokeWidth=8;fontSize=20;align=center;fillColor=#FFB001;strokeColor=#FFFFFF;" vertex="1" parent="1">
          <mxGeometry x="2669" y="2265.5" width="280" height="430" as="geometry" />
        </mxCell>
        <mxCell id="3BRQNajPM5yB8tm0Zg5W-455" value="Разделение информации" style="text;html=1;strokeColor=none;fillColor=none;align=center;verticalAlign=middle;whiteSpace=wrap;rounded=0;shadow=0;fontSize=27;fontColor=#FFFFFF;fontStyle=1" vertex="1" parent="1">
          <mxGeometry x="2665.7400000000002" y="2288" width="280" height="60" as="geometry" />
        </mxCell>
        <mxCell id="3BRQNajPM5yB8tm0Zg5W-456" value="&lt;span style=&quot;font-size: 18px;&quot;&gt;Выудить даты начала и конца&lt;/span&gt;" style="text;html=1;strokeColor=none;fillColor=none;align=center;verticalAlign=middle;whiteSpace=wrap;rounded=0;shadow=0;fontSize=14;fontColor=#FFFFFF;" vertex="1" parent="1">
          <mxGeometry x="2665.7400000000002" y="2588" width="280" height="90" as="geometry" />
        </mxCell>
        <mxCell id="3BRQNajPM5yB8tm0Zg5W-457" value="" style="line;strokeWidth=2;html=1;rounded=0;shadow=0;fontSize=27;align=center;fillColor=none;strokeColor=#FFFFFF;" vertex="1" parent="1">
          <mxGeometry x="2685.7400000000002" y="2348" width="240" height="10" as="geometry" />
        </mxCell>
        <mxCell id="3BRQNajPM5yB8tm0Zg5W-458" value="" style="line;strokeWidth=2;html=1;rounded=0;shadow=0;fontSize=27;align=center;fillColor=none;strokeColor=#FFFFFF;" vertex="1" parent="1">
          <mxGeometry x="2685.7400000000002" y="2568" width="240" height="10" as="geometry" />
        </mxCell>
        <mxCell id="3BRQNajPM5yB8tm0Zg5W-459" value="" style="html=1;shadow=0;dashed=0;align=center;verticalAlign=middle;shape=mxgraph.arrows2.stylisedArrow;dy=0.6;dx=40;notch=15;feather=0.4;rounded=0;strokeWidth=1;fontSize=27;strokeColor=none;fillColor=#fff2cc;" vertex="1" parent="1">
          <mxGeometry x="2755.7400000000002" y="2436" width="100" height="60" as="geometry" />
        </mxCell>
        <mxCell id="3BRQNajPM5yB8tm0Zg5W-460" value="&lt;font style=&quot;font-size: 24px;&quot;&gt;Лиза&lt;/font&gt;" style="ellipse;whiteSpace=wrap;html=1;rounded=0;shadow=0;strokeWidth=6;fontSize=14;align=center;fillColor=#BFB4A9;strokeColor=#FFFFFF;fontColor=#FFFFFF;" vertex="1" parent="1">
          <mxGeometry x="2606.7400000000002" y="2411" width="115" height="115" as="geometry" />
        </mxCell>
        <mxCell id="3BRQNajPM5yB8tm0Zg5W-461" value="&lt;font style=&quot;font-size: 24px;&quot;&gt;Филипп&lt;/font&gt;" style="ellipse;whiteSpace=wrap;html=1;rounded=0;shadow=0;strokeWidth=6;fontSize=14;align=center;fillColor=#397DAA;strokeColor=#FFFFFF;fontColor=#FFFFFF;" vertex="1" parent="1">
          <mxGeometry x="2606.63" y="2411" width="115" height="115" as="geometry" />
        </mxCell>
        <mxCell id="3BRQNajPM5yB8tm0Zg5W-462" value="0" style="whiteSpace=wrap;html=1;rounded=1;shadow=0;strokeWidth=8;fontSize=20;align=center;fillColor=#FFB001;strokeColor=#FFFFFF;" vertex="1" parent="1">
          <mxGeometry x="3229.1099999999997" y="2263" width="280" height="430" as="geometry" />
        </mxCell>
        <mxCell id="3BRQNajPM5yB8tm0Zg5W-463" value="" style="whiteSpace=wrap;html=1;rounded=1;shadow=0;strokeWidth=8;fontSize=20;align=center;fillColor=#FFB001;strokeColor=#FFFFFF;" vertex="1" parent="1">
          <mxGeometry x="3230.74" y="2263" width="280" height="430" as="geometry" />
        </mxCell>
        <mxCell id="3BRQNajPM5yB8tm0Zg5W-464" value="Разделение информации" style="text;html=1;strokeColor=none;fillColor=none;align=center;verticalAlign=middle;whiteSpace=wrap;rounded=0;shadow=0;fontSize=27;fontColor=#FFFFFF;fontStyle=1" vertex="1" parent="1">
          <mxGeometry x="3227.48" y="2285.5" width="280" height="60" as="geometry" />
        </mxCell>
        <mxCell id="3BRQNajPM5yB8tm0Zg5W-465" value="&lt;span style=&quot;font-size: 18px;&quot;&gt;Выудить город&lt;/span&gt;" style="text;html=1;strokeColor=none;fillColor=none;align=center;verticalAlign=middle;whiteSpace=wrap;rounded=0;shadow=0;fontSize=14;fontColor=#FFFFFF;" vertex="1" parent="1">
          <mxGeometry x="3227.48" y="2585.5" width="280" height="90" as="geometry" />
        </mxCell>
        <mxCell id="3BRQNajPM5yB8tm0Zg5W-466" value="" style="line;strokeWidth=2;html=1;rounded=0;shadow=0;fontSize=27;align=center;fillColor=none;strokeColor=#FFFFFF;" vertex="1" parent="1">
          <mxGeometry x="3247.48" y="2345.5" width="240" height="10" as="geometry" />
        </mxCell>
        <mxCell id="3BRQNajPM5yB8tm0Zg5W-467" value="" style="line;strokeWidth=2;html=1;rounded=0;shadow=0;fontSize=27;align=center;fillColor=none;strokeColor=#FFFFFF;" vertex="1" parent="1">
          <mxGeometry x="3247.48" y="2565.5" width="240" height="10" as="geometry" />
        </mxCell>
        <mxCell id="3BRQNajPM5yB8tm0Zg5W-468" value="" style="html=1;shadow=0;dashed=0;align=center;verticalAlign=middle;shape=mxgraph.arrows2.stylisedArrow;dy=0.6;dx=40;notch=15;feather=0.4;rounded=0;strokeWidth=1;fontSize=27;strokeColor=none;fillColor=#fff2cc;" vertex="1" parent="1">
          <mxGeometry x="3317.48" y="2433.5" width="100" height="60" as="geometry" />
        </mxCell>
        <mxCell id="3BRQNajPM5yB8tm0Zg5W-469" value="&lt;font style=&quot;font-size: 24px;&quot;&gt;Лиза&lt;/font&gt;" style="ellipse;whiteSpace=wrap;html=1;rounded=0;shadow=0;strokeWidth=6;fontSize=14;align=center;fillColor=#BFB4A9;strokeColor=#FFFFFF;fontColor=#FFFFFF;" vertex="1" parent="1">
          <mxGeometry x="3168.48" y="2408.5" width="115" height="115" as="geometry" />
        </mxCell>
        <mxCell id="3BRQNajPM5yB8tm0Zg5W-471" value="0" style="whiteSpace=wrap;html=1;rounded=1;shadow=0;strokeWidth=8;fontSize=20;align=center;fillColor=#FFB001;strokeColor=#FFFFFF;" vertex="1" parent="1">
          <mxGeometry x="3510.74" y="2261" width="280" height="430" as="geometry" />
        </mxCell>
        <mxCell id="3BRQNajPM5yB8tm0Zg5W-472" value="" style="whiteSpace=wrap;html=1;rounded=1;shadow=0;strokeWidth=8;fontSize=20;align=center;fillColor=#FFB001;strokeColor=#FFFFFF;" vertex="1" parent="1">
          <mxGeometry x="3512.37" y="2261" width="280" height="430" as="geometry" />
        </mxCell>
        <mxCell id="3BRQNajPM5yB8tm0Zg5W-473" value="Разделение информации" style="text;html=1;strokeColor=none;fillColor=none;align=center;verticalAlign=middle;whiteSpace=wrap;rounded=0;shadow=0;fontSize=27;fontColor=#FFFFFF;fontStyle=1" vertex="1" parent="1">
          <mxGeometry x="3509.11" y="2283.5" width="280" height="60" as="geometry" />
        </mxCell>
        <mxCell id="3BRQNajPM5yB8tm0Zg5W-474" value="&lt;span style=&quot;font-size: 18px;&quot;&gt;Выудить область&lt;/span&gt;" style="text;html=1;strokeColor=none;fillColor=none;align=center;verticalAlign=middle;whiteSpace=wrap;rounded=0;shadow=0;fontSize=14;fontColor=#FFFFFF;" vertex="1" parent="1">
          <mxGeometry x="3509.11" y="2583.5" width="280" height="90" as="geometry" />
        </mxCell>
        <mxCell id="3BRQNajPM5yB8tm0Zg5W-475" value="" style="line;strokeWidth=2;html=1;rounded=0;shadow=0;fontSize=27;align=center;fillColor=none;strokeColor=#FFFFFF;" vertex="1" parent="1">
          <mxGeometry x="3529.11" y="2343.5" width="240" height="10" as="geometry" />
        </mxCell>
        <mxCell id="3BRQNajPM5yB8tm0Zg5W-476" value="" style="line;strokeWidth=2;html=1;rounded=0;shadow=0;fontSize=27;align=center;fillColor=none;strokeColor=#FFFFFF;" vertex="1" parent="1">
          <mxGeometry x="3529.11" y="2563.5" width="240" height="10" as="geometry" />
        </mxCell>
        <mxCell id="3BRQNajPM5yB8tm0Zg5W-477" value="" style="html=1;shadow=0;dashed=0;align=center;verticalAlign=middle;shape=mxgraph.arrows2.stylisedArrow;dy=0.6;dx=40;notch=15;feather=0.4;rounded=0;strokeWidth=1;fontSize=27;strokeColor=none;fillColor=#fff2cc;" vertex="1" parent="1">
          <mxGeometry x="3599.11" y="2431.5" width="100" height="60" as="geometry" />
        </mxCell>
        <mxCell id="3BRQNajPM5yB8tm0Zg5W-478" value="&lt;font style=&quot;font-size: 24px;&quot;&gt;Лиза&lt;/font&gt;" style="ellipse;whiteSpace=wrap;html=1;rounded=0;shadow=0;strokeWidth=6;fontSize=14;align=center;fillColor=#BFB4A9;strokeColor=#FFFFFF;fontColor=#FFFFFF;" vertex="1" parent="1">
          <mxGeometry x="3450.11" y="2406.5" width="115" height="115" as="geometry" />
        </mxCell>
        <mxCell id="3BRQNajPM5yB8tm0Zg5W-479" value="&lt;font style=&quot;font-size: 24px;&quot;&gt;Филипп&lt;/font&gt;" style="ellipse;whiteSpace=wrap;html=1;rounded=0;shadow=0;strokeWidth=6;fontSize=14;align=center;fillColor=#397DAA;strokeColor=#FFFFFF;fontColor=#FFFFFF;" vertex="1" parent="1">
          <mxGeometry x="3450" y="2406.5" width="115" height="115" as="geometry" />
        </mxCell>
        <mxCell id="3BRQNajPM5yB8tm0Zg5W-498" value="0" style="whiteSpace=wrap;html=1;rounded=1;shadow=0;strokeWidth=8;fontSize=20;align=center;fillColor=#FFB001;strokeColor=#FFFFFF;" vertex="1" parent="1">
          <mxGeometry x="3792.1099999999997" y="2260" width="280" height="430" as="geometry" />
        </mxCell>
        <mxCell id="3BRQNajPM5yB8tm0Zg5W-499" value="" style="whiteSpace=wrap;html=1;rounded=1;shadow=0;strokeWidth=8;fontSize=20;align=center;fillColor=#FFB001;strokeColor=#FFFFFF;" vertex="1" parent="1">
          <mxGeometry x="3793.74" y="2260" width="280" height="430" as="geometry" />
        </mxCell>
        <mxCell id="3BRQNajPM5yB8tm0Zg5W-500" value="Разделение информации" style="text;html=1;strokeColor=none;fillColor=none;align=center;verticalAlign=middle;whiteSpace=wrap;rounded=0;shadow=0;fontSize=27;fontColor=#FFFFFF;fontStyle=1" vertex="1" parent="1">
          <mxGeometry x="3790.48" y="2282.5" width="280" height="60" as="geometry" />
        </mxCell>
        <mxCell id="3BRQNajPM5yB8tm0Zg5W-501" value="&lt;span style=&quot;font-size: 18px;&quot;&gt;Выудить количество участников&lt;/span&gt;" style="text;html=1;strokeColor=none;fillColor=none;align=center;verticalAlign=middle;whiteSpace=wrap;rounded=0;shadow=0;fontSize=14;fontColor=#FFFFFF;" vertex="1" parent="1">
          <mxGeometry x="3790.48" y="2582.5" width="280" height="90" as="geometry" />
        </mxCell>
        <mxCell id="3BRQNajPM5yB8tm0Zg5W-502" value="" style="line;strokeWidth=2;html=1;rounded=0;shadow=0;fontSize=27;align=center;fillColor=none;strokeColor=#FFFFFF;" vertex="1" parent="1">
          <mxGeometry x="3810.48" y="2342.5" width="240" height="10" as="geometry" />
        </mxCell>
        <mxCell id="3BRQNajPM5yB8tm0Zg5W-503" value="" style="line;strokeWidth=2;html=1;rounded=0;shadow=0;fontSize=27;align=center;fillColor=none;strokeColor=#FFFFFF;" vertex="1" parent="1">
          <mxGeometry x="3810.48" y="2562.5" width="240" height="10" as="geometry" />
        </mxCell>
        <mxCell id="3BRQNajPM5yB8tm0Zg5W-504" value="" style="html=1;shadow=0;dashed=0;align=center;verticalAlign=middle;shape=mxgraph.arrows2.stylisedArrow;dy=0.6;dx=40;notch=15;feather=0.4;rounded=0;strokeWidth=1;fontSize=27;strokeColor=none;fillColor=#fff2cc;" vertex="1" parent="1">
          <mxGeometry x="3880.4800000000005" y="2430.5" width="100" height="60" as="geometry" />
        </mxCell>
        <mxCell id="3BRQNajPM5yB8tm0Zg5W-505" value="&lt;font style=&quot;font-size: 24px;&quot;&gt;Лиза&lt;/font&gt;" style="ellipse;whiteSpace=wrap;html=1;rounded=0;shadow=0;strokeWidth=6;fontSize=14;align=center;fillColor=#BFB4A9;strokeColor=#FFFFFF;fontColor=#FFFFFF;" vertex="1" parent="1">
          <mxGeometry x="3731.48" y="2405.5" width="115" height="115" as="geometry" />
        </mxCell>
        <mxCell id="3BRQNajPM5yB8tm0Zg5W-506" value="&lt;font style=&quot;font-size: 24px;&quot;&gt;Филипп&lt;/font&gt;" style="ellipse;whiteSpace=wrap;html=1;rounded=0;shadow=0;strokeWidth=6;fontSize=14;align=center;fillColor=#397DAA;strokeColor=#FFFFFF;fontColor=#FFFFFF;" vertex="1" parent="1">
          <mxGeometry x="3731.37" y="2405.5" width="115" height="115" as="geometry" />
        </mxCell>
        <mxCell id="3BRQNajPM5yB8tm0Zg5W-514" value="" style="whiteSpace=wrap;html=1;rounded=1;shadow=0;strokeWidth=8;fontSize=20;align=center;fillColor=#FE9900;strokeColor=#FFFFFF;" vertex="1" parent="1">
          <mxGeometry x="122.26000000000002" y="2807" width="283.26" height="435" as="geometry" />
        </mxCell>
        <mxCell id="3BRQNajPM5yB8tm0Zg5W-515" value="Базы данных" style="text;html=1;strokeColor=none;fillColor=none;align=center;verticalAlign=middle;whiteSpace=wrap;rounded=0;shadow=0;fontSize=27;fontColor=#FFFFFF;fontStyle=1" vertex="1" parent="1">
          <mxGeometry x="131.11" y="2832" width="280" height="60" as="geometry" />
        </mxCell>
        <mxCell id="3BRQNajPM5yB8tm0Zg5W-516" value="Обработка жизнеспособности макета, парсинг пдф, создание баз и внесение информации в них" style="text;html=1;strokeColor=none;fillColor=none;align=center;verticalAlign=middle;whiteSpace=wrap;rounded=0;shadow=0;fontSize=14;fontColor=#FFFFFF;" vertex="1" parent="1">
          <mxGeometry x="131.11" y="3132" width="280" height="90" as="geometry" />
        </mxCell>
        <mxCell id="3BRQNajPM5yB8tm0Zg5W-517" value="" style="line;strokeWidth=2;html=1;rounded=0;shadow=0;fontSize=27;align=center;fillColor=none;strokeColor=#FFFFFF;" vertex="1" parent="1">
          <mxGeometry x="151.11" y="2892" width="240" height="10" as="geometry" />
        </mxCell>
        <mxCell id="3BRQNajPM5yB8tm0Zg5W-518" value="" style="line;strokeWidth=2;html=1;rounded=0;shadow=0;fontSize=27;align=center;fillColor=none;strokeColor=#FFFFFF;" vertex="1" parent="1">
          <mxGeometry x="151.11" y="3112" width="240" height="10" as="geometry" />
        </mxCell>
        <mxCell id="3BRQNajPM5yB8tm0Zg5W-519" value="&lt;font style=&quot;font-size: 24px;&quot;&gt;Филипп&lt;/font&gt;" style="ellipse;whiteSpace=wrap;html=1;rounded=0;shadow=0;strokeWidth=6;fontSize=14;align=center;fillColor=#397DAA;strokeColor=#FFFFFF;fontColor=#FFFFFF;" vertex="1" parent="1">
          <mxGeometry x="74.11000000000001" y="2952" width="115" height="115" as="geometry" />
        </mxCell>
        <mxCell id="3BRQNajPM5yB8tm0Zg5W-520" value="" style="html=1;shadow=0;dashed=0;align=center;verticalAlign=middle;shape=mxgraph.arrows2.stylisedArrow;dy=0.6;dx=40;notch=15;feather=0.4;rounded=0;strokeWidth=1;fontSize=27;strokeColor=none;fillColor=#fff2cc;" vertex="1" parent="1">
          <mxGeometry x="221.11" y="2980" width="100" height="60" as="geometry" />
        </mxCell>
        <mxCell id="3BRQNajPM5yB8tm0Zg5W-521" value="" style="whiteSpace=wrap;html=1;rounded=1;shadow=0;strokeWidth=8;fontSize=20;align=center;fillColor=#FE9900;strokeColor=#FFFFFF;" vertex="1" parent="1">
          <mxGeometry x="406.40999999999997" y="2807" width="283.26" height="435" as="geometry" />
        </mxCell>
        <mxCell id="3BRQNajPM5yB8tm0Zg5W-522" value="Создание баз" style="text;html=1;strokeColor=none;fillColor=none;align=center;verticalAlign=middle;whiteSpace=wrap;rounded=0;shadow=0;fontSize=27;fontColor=#FFFFFF;fontStyle=1" vertex="1" parent="1">
          <mxGeometry x="415.26" y="2832" width="280" height="60" as="geometry" />
        </mxCell>
        <mxCell id="3BRQNajPM5yB8tm0Zg5W-523" value="&lt;span style=&quot;font-size: 18px;&quot;&gt;Перенос того, что отпарсил в БД&lt;/span&gt;" style="text;html=1;strokeColor=none;fillColor=none;align=center;verticalAlign=middle;whiteSpace=wrap;rounded=0;shadow=0;fontSize=14;fontColor=#FFFFFF;" vertex="1" parent="1">
          <mxGeometry x="415.26" y="3132" width="276.37" height="90" as="geometry" />
        </mxCell>
        <mxCell id="3BRQNajPM5yB8tm0Zg5W-524" value="" style="line;strokeWidth=2;html=1;rounded=0;shadow=0;fontSize=27;align=center;fillColor=none;strokeColor=#FFFFFF;" vertex="1" parent="1">
          <mxGeometry x="435.26" y="2892" width="240" height="10" as="geometry" />
        </mxCell>
        <mxCell id="3BRQNajPM5yB8tm0Zg5W-525" value="" style="line;strokeWidth=2;html=1;rounded=0;shadow=0;fontSize=27;align=center;fillColor=none;strokeColor=#FFFFFF;" vertex="1" parent="1">
          <mxGeometry x="435.26" y="3112" width="240" height="10" as="geometry" />
        </mxCell>
        <mxCell id="3BRQNajPM5yB8tm0Zg5W-526" value="&lt;font style=&quot;font-size: 24px;&quot;&gt;Филипп&lt;/font&gt;" style="ellipse;whiteSpace=wrap;html=1;rounded=0;shadow=0;strokeWidth=6;fontSize=14;align=center;fillColor=#397DAA;strokeColor=#FFFFFF;fontColor=#FFFFFF;" vertex="1" parent="1">
          <mxGeometry x="358.26" y="2952" width="115" height="115" as="geometry" />
        </mxCell>
        <mxCell id="3BRQNajPM5yB8tm0Zg5W-527" value="" style="html=1;shadow=0;dashed=0;align=center;verticalAlign=middle;shape=mxgraph.arrows2.stylisedArrow;dy=0.6;dx=40;notch=15;feather=0.4;rounded=0;strokeWidth=1;fontSize=27;strokeColor=none;fillColor=#fff2cc;" vertex="1" parent="1">
          <mxGeometry x="505.26" y="2980" width="100" height="60" as="geometry" />
        </mxCell>
        <mxCell id="3BRQNajPM5yB8tm0Zg5W-528" value="" style="whiteSpace=wrap;html=1;rounded=1;shadow=0;strokeWidth=8;fontSize=20;align=center;fillColor=#FFB001;strokeColor=#FFFFFF;" vertex="1" parent="1">
          <mxGeometry x="684.89" y="2806" width="280" height="430" as="geometry" />
        </mxCell>
        <mxCell id="3BRQNajPM5yB8tm0Zg5W-529" value="" style="whiteSpace=wrap;html=1;rounded=1;shadow=0;strokeWidth=8;fontSize=20;align=center;fillColor=#FFB001;strokeColor=#FFFFFF;" vertex="1" parent="1">
          <mxGeometry x="686.52" y="2806" width="280" height="430" as="geometry" />
        </mxCell>
        <mxCell id="3BRQNajPM5yB8tm0Zg5W-530" value="&lt;font style=&quot;font-size: 27px;&quot;&gt;Тип соревнования&lt;/font&gt;" style="text;html=1;strokeColor=none;fillColor=none;align=center;verticalAlign=middle;whiteSpace=wrap;rounded=0;shadow=0;fontSize=27;fontColor=#FFFFFF;fontStyle=1" vertex="1" parent="1">
          <mxGeometry x="683.26" y="2828.5" width="280" height="60" as="geometry" />
        </mxCell>
        <mxCell id="3BRQNajPM5yB8tm0Zg5W-531" value="&lt;span style=&quot;font-size: 18px;&quot;&gt;Создание БД&lt;/span&gt;" style="text;html=1;strokeColor=none;fillColor=none;align=center;verticalAlign=middle;whiteSpace=wrap;rounded=0;shadow=0;fontSize=14;fontColor=#FFFFFF;" vertex="1" parent="1">
          <mxGeometry x="683.26" y="3128.5" width="280" height="90" as="geometry" />
        </mxCell>
        <mxCell id="3BRQNajPM5yB8tm0Zg5W-532" value="" style="line;strokeWidth=2;html=1;rounded=0;shadow=0;fontSize=27;align=center;fillColor=none;strokeColor=#FFFFFF;" vertex="1" parent="1">
          <mxGeometry x="703.26" y="2888.5" width="240" height="10" as="geometry" />
        </mxCell>
        <mxCell id="3BRQNajPM5yB8tm0Zg5W-533" value="" style="line;strokeWidth=2;html=1;rounded=0;shadow=0;fontSize=27;align=center;fillColor=none;strokeColor=#FFFFFF;" vertex="1" parent="1">
          <mxGeometry x="703.26" y="3108.5" width="240" height="10" as="geometry" />
        </mxCell>
        <mxCell id="3BRQNajPM5yB8tm0Zg5W-534" value="" style="html=1;shadow=0;dashed=0;align=center;verticalAlign=middle;shape=mxgraph.arrows2.stylisedArrow;dy=0.6;dx=40;notch=15;feather=0.4;rounded=0;strokeWidth=1;fontSize=27;strokeColor=none;fillColor=#fff2cc;" vertex="1" parent="1">
          <mxGeometry x="773.26" y="2976.5" width="100" height="60" as="geometry" />
        </mxCell>
        <mxCell id="3BRQNajPM5yB8tm0Zg5W-535" value="&lt;font style=&quot;font-size: 24px;&quot;&gt;Лиза&lt;/font&gt;" style="ellipse;whiteSpace=wrap;html=1;rounded=0;shadow=0;strokeWidth=6;fontSize=14;align=center;fillColor=#BFB4A9;strokeColor=#FFFFFF;fontColor=#FFFFFF;" vertex="1" parent="1">
          <mxGeometry x="624.26" y="2951.5" width="115" height="115" as="geometry" />
        </mxCell>
        <mxCell id="3BRQNajPM5yB8tm0Zg5W-536" value="&lt;font style=&quot;font-size: 24px;&quot;&gt;Филипп&lt;/font&gt;" style="ellipse;whiteSpace=wrap;html=1;rounded=0;shadow=0;strokeWidth=6;fontSize=14;align=center;fillColor=#397DAA;strokeColor=#FFFFFF;fontColor=#FFFFFF;" vertex="1" parent="1">
          <mxGeometry x="624.15" y="2951.5" width="115" height="115" as="geometry" />
        </mxCell>
        <mxCell id="3BRQNajPM5yB8tm0Zg5W-537" value="0" style="whiteSpace=wrap;html=1;rounded=1;shadow=0;strokeWidth=8;fontSize=20;align=center;fillColor=#FFB001;strokeColor=#FFFFFF;" vertex="1" parent="1">
          <mxGeometry x="965.89" y="2806" width="280" height="430" as="geometry" />
        </mxCell>
        <mxCell id="3BRQNajPM5yB8tm0Zg5W-538" value="" style="whiteSpace=wrap;html=1;rounded=1;shadow=0;strokeWidth=8;fontSize=20;align=center;fillColor=#FFB001;strokeColor=#FFFFFF;" vertex="1" parent="1">
          <mxGeometry x="967.52" y="2806" width="280" height="430" as="geometry" />
        </mxCell>
        <mxCell id="3BRQNajPM5yB8tm0Zg5W-539" value="Разделение информации" style="text;html=1;strokeColor=none;fillColor=none;align=center;verticalAlign=middle;whiteSpace=wrap;rounded=0;shadow=0;fontSize=27;fontColor=#FFFFFF;fontStyle=1" vertex="1" parent="1">
          <mxGeometry x="964.26" y="2828.5" width="280" height="60" as="geometry" />
        </mxCell>
        <mxCell id="3BRQNajPM5yB8tm0Zg5W-540" value="&lt;span style=&quot;font-size: 18px;&quot;&gt;Создание БД&lt;/span&gt;" style="text;html=1;strokeColor=none;fillColor=none;align=center;verticalAlign=middle;whiteSpace=wrap;rounded=0;shadow=0;fontSize=14;fontColor=#FFFFFF;" vertex="1" parent="1">
          <mxGeometry x="964.26" y="3128.5" width="280" height="90" as="geometry" />
        </mxCell>
        <mxCell id="3BRQNajPM5yB8tm0Zg5W-541" value="" style="line;strokeWidth=2;html=1;rounded=0;shadow=0;fontSize=27;align=center;fillColor=none;strokeColor=#FFFFFF;" vertex="1" parent="1">
          <mxGeometry x="984.26" y="2888.5" width="240" height="10" as="geometry" />
        </mxCell>
        <mxCell id="3BRQNajPM5yB8tm0Zg5W-542" value="" style="line;strokeWidth=2;html=1;rounded=0;shadow=0;fontSize=27;align=center;fillColor=none;strokeColor=#FFFFFF;" vertex="1" parent="1">
          <mxGeometry x="984.26" y="3108.5" width="240" height="10" as="geometry" />
        </mxCell>
        <mxCell id="3BRQNajPM5yB8tm0Zg5W-543" value="" style="html=1;shadow=0;dashed=0;align=center;verticalAlign=middle;shape=mxgraph.arrows2.stylisedArrow;dy=0.6;dx=40;notch=15;feather=0.4;rounded=0;strokeWidth=1;fontSize=27;strokeColor=none;fillColor=#fff2cc;" vertex="1" parent="1">
          <mxGeometry x="1054.2600000000002" y="2976.5" width="100" height="60" as="geometry" />
        </mxCell>
        <mxCell id="3BRQNajPM5yB8tm0Zg5W-544" value="&lt;font style=&quot;font-size: 24px;&quot;&gt;Лиза&lt;/font&gt;" style="ellipse;whiteSpace=wrap;html=1;rounded=0;shadow=0;strokeWidth=6;fontSize=14;align=center;fillColor=#BFB4A9;strokeColor=#FFFFFF;fontColor=#FFFFFF;" vertex="1" parent="1">
          <mxGeometry x="905.26" y="2951.5" width="115" height="115" as="geometry" />
        </mxCell>
        <mxCell id="3BRQNajPM5yB8tm0Zg5W-545" value="&lt;font style=&quot;font-size: 24px;&quot;&gt;Филипп&lt;/font&gt;" style="ellipse;whiteSpace=wrap;html=1;rounded=0;shadow=0;strokeWidth=6;fontSize=14;align=center;fillColor=#397DAA;strokeColor=#FFFFFF;fontColor=#FFFFFF;" vertex="1" parent="1">
          <mxGeometry x="905.15" y="2951.5" width="115" height="115" as="geometry" />
        </mxCell>
        <mxCell id="3BRQNajPM5yB8tm0Zg5W-546" value="0" style="whiteSpace=wrap;html=1;rounded=1;shadow=0;strokeWidth=8;fontSize=20;align=center;fillColor=#FFB001;strokeColor=#FFFFFF;" vertex="1" parent="1">
          <mxGeometry x="1243.89" y="2807" width="280" height="430" as="geometry" />
        </mxCell>
        <mxCell id="3BRQNajPM5yB8tm0Zg5W-547" value="" style="whiteSpace=wrap;html=1;rounded=1;shadow=0;strokeWidth=8;fontSize=20;align=center;fillColor=#FFB001;strokeColor=#FFFFFF;" vertex="1" parent="1">
          <mxGeometry x="1245.52" y="2807" width="280" height="430" as="geometry" />
        </mxCell>
        <mxCell id="3BRQNajPM5yB8tm0Zg5W-548" value="Разделение информации" style="text;html=1;strokeColor=none;fillColor=none;align=center;verticalAlign=middle;whiteSpace=wrap;rounded=0;shadow=0;fontSize=27;fontColor=#FFFFFF;fontStyle=1" vertex="1" parent="1">
          <mxGeometry x="1242.2600000000002" y="2829.5" width="280" height="60" as="geometry" />
        </mxCell>
        <mxCell id="3BRQNajPM5yB8tm0Zg5W-549" value="&lt;span style=&quot;font-size: 18px;&quot;&gt;Создание БД&lt;/span&gt;" style="text;html=1;strokeColor=none;fillColor=none;align=center;verticalAlign=middle;whiteSpace=wrap;rounded=0;shadow=0;fontSize=14;fontColor=#FFFFFF;" vertex="1" parent="1">
          <mxGeometry x="1242.2600000000002" y="3129.5" width="280" height="90" as="geometry" />
        </mxCell>
        <mxCell id="3BRQNajPM5yB8tm0Zg5W-550" value="" style="line;strokeWidth=2;html=1;rounded=0;shadow=0;fontSize=27;align=center;fillColor=none;strokeColor=#FFFFFF;" vertex="1" parent="1">
          <mxGeometry x="1262.2600000000002" y="2889.5" width="240" height="10" as="geometry" />
        </mxCell>
        <mxCell id="3BRQNajPM5yB8tm0Zg5W-551" value="" style="line;strokeWidth=2;html=1;rounded=0;shadow=0;fontSize=27;align=center;fillColor=none;strokeColor=#FFFFFF;" vertex="1" parent="1">
          <mxGeometry x="1262.2600000000002" y="3109.5" width="240" height="10" as="geometry" />
        </mxCell>
        <mxCell id="3BRQNajPM5yB8tm0Zg5W-552" value="" style="html=1;shadow=0;dashed=0;align=center;verticalAlign=middle;shape=mxgraph.arrows2.stylisedArrow;dy=0.6;dx=40;notch=15;feather=0.4;rounded=0;strokeWidth=1;fontSize=27;strokeColor=none;fillColor=#fff2cc;" vertex="1" parent="1">
          <mxGeometry x="1332.2600000000002" y="2977.5" width="100" height="60" as="geometry" />
        </mxCell>
        <mxCell id="3BRQNajPM5yB8tm0Zg5W-553" value="&lt;font style=&quot;font-size: 24px;&quot;&gt;Лиза&lt;/font&gt;" style="ellipse;whiteSpace=wrap;html=1;rounded=0;shadow=0;strokeWidth=6;fontSize=14;align=center;fillColor=#BFB4A9;strokeColor=#FFFFFF;fontColor=#FFFFFF;" vertex="1" parent="1">
          <mxGeometry x="1183.2600000000002" y="2952.5" width="115" height="115" as="geometry" />
        </mxCell>
        <mxCell id="3BRQNajPM5yB8tm0Zg5W-554" value="&lt;font style=&quot;font-size: 24px;&quot;&gt;Филипп&lt;/font&gt;" style="ellipse;whiteSpace=wrap;html=1;rounded=0;shadow=0;strokeWidth=6;fontSize=14;align=center;fillColor=#397DAA;strokeColor=#FFFFFF;fontColor=#FFFFFF;" vertex="1" parent="1">
          <mxGeometry x="1183.15" y="2952.5" width="115" height="115" as="geometry" />
        </mxCell>
        <mxCell id="3BRQNajPM5yB8tm0Zg5W-555" value="0" style="whiteSpace=wrap;html=1;rounded=1;shadow=0;strokeWidth=8;fontSize=20;align=center;fillColor=#FFB001;strokeColor=#FFFFFF;" vertex="1" parent="1">
          <mxGeometry x="1527.89" y="2805" width="280" height="430" as="geometry" />
        </mxCell>
        <mxCell id="3BRQNajPM5yB8tm0Zg5W-556" value="" style="whiteSpace=wrap;html=1;rounded=1;shadow=0;strokeWidth=8;fontSize=20;align=center;fillColor=#FFB001;strokeColor=#FFFFFF;" vertex="1" parent="1">
          <mxGeometry x="1529.52" y="2805" width="280" height="430" as="geometry" />
        </mxCell>
        <mxCell id="3BRQNajPM5yB8tm0Zg5W-557" value="Разделение информации" style="text;html=1;strokeColor=none;fillColor=none;align=center;verticalAlign=middle;whiteSpace=wrap;rounded=0;shadow=0;fontSize=27;fontColor=#FFFFFF;fontStyle=1" vertex="1" parent="1">
          <mxGeometry x="1526.2600000000002" y="2827.5" width="280" height="60" as="geometry" />
        </mxCell>
        <mxCell id="3BRQNajPM5yB8tm0Zg5W-558" value="&lt;span style=&quot;font-size: 18px;&quot;&gt;Создание БД&lt;/span&gt;" style="text;html=1;strokeColor=none;fillColor=none;align=center;verticalAlign=middle;whiteSpace=wrap;rounded=0;shadow=0;fontSize=14;fontColor=#FFFFFF;" vertex="1" parent="1">
          <mxGeometry x="1526.2600000000002" y="3127.5" width="280" height="90" as="geometry" />
        </mxCell>
        <mxCell id="3BRQNajPM5yB8tm0Zg5W-559" value="" style="line;strokeWidth=2;html=1;rounded=0;shadow=0;fontSize=27;align=center;fillColor=none;strokeColor=#FFFFFF;" vertex="1" parent="1">
          <mxGeometry x="1546.2600000000002" y="2887.5" width="240" height="10" as="geometry" />
        </mxCell>
        <mxCell id="3BRQNajPM5yB8tm0Zg5W-560" value="" style="line;strokeWidth=2;html=1;rounded=0;shadow=0;fontSize=27;align=center;fillColor=none;strokeColor=#FFFFFF;" vertex="1" parent="1">
          <mxGeometry x="1546.2600000000002" y="3107.5" width="240" height="10" as="geometry" />
        </mxCell>
        <mxCell id="3BRQNajPM5yB8tm0Zg5W-561" value="" style="html=1;shadow=0;dashed=0;align=center;verticalAlign=middle;shape=mxgraph.arrows2.stylisedArrow;dy=0.6;dx=40;notch=15;feather=0.4;rounded=0;strokeWidth=1;fontSize=27;strokeColor=none;fillColor=#fff2cc;" vertex="1" parent="1">
          <mxGeometry x="1616.2600000000002" y="2975.5" width="100" height="60" as="geometry" />
        </mxCell>
        <mxCell id="3BRQNajPM5yB8tm0Zg5W-562" value="&lt;font style=&quot;font-size: 24px;&quot;&gt;Лиза&lt;/font&gt;" style="ellipse;whiteSpace=wrap;html=1;rounded=0;shadow=0;strokeWidth=6;fontSize=14;align=center;fillColor=#BFB4A9;strokeColor=#FFFFFF;fontColor=#FFFFFF;" vertex="1" parent="1">
          <mxGeometry x="1467.2600000000002" y="2950.5" width="115" height="115" as="geometry" />
        </mxCell>
        <mxCell id="3BRQNajPM5yB8tm0Zg5W-563" value="&lt;font style=&quot;font-size: 24px;&quot;&gt;Филипп&lt;/font&gt;" style="ellipse;whiteSpace=wrap;html=1;rounded=0;shadow=0;strokeWidth=6;fontSize=14;align=center;fillColor=#397DAA;strokeColor=#FFFFFF;fontColor=#FFFFFF;" vertex="1" parent="1">
          <mxGeometry x="1467.15" y="2950.5" width="115" height="115" as="geometry" />
        </mxCell>
        <mxCell id="3BRQNajPM5yB8tm0Zg5W-564" value="0" style="whiteSpace=wrap;html=1;rounded=1;shadow=0;strokeWidth=8;fontSize=20;align=center;fillColor=#FFB001;strokeColor=#FFFFFF;" vertex="1" parent="1">
          <mxGeometry x="1809.3700000000001" y="2804" width="280" height="430" as="geometry" />
        </mxCell>
        <mxCell id="3BRQNajPM5yB8tm0Zg5W-565" value="" style="whiteSpace=wrap;html=1;rounded=1;shadow=0;strokeWidth=8;fontSize=20;align=center;fillColor=#FFB001;strokeColor=#FFFFFF;" vertex="1" parent="1">
          <mxGeometry x="1811" y="2804" width="280" height="430" as="geometry" />
        </mxCell>
        <mxCell id="3BRQNajPM5yB8tm0Zg5W-566" value="Разделение информации" style="text;html=1;strokeColor=none;fillColor=none;align=center;verticalAlign=middle;whiteSpace=wrap;rounded=0;shadow=0;fontSize=27;fontColor=#FFFFFF;fontStyle=1" vertex="1" parent="1">
          <mxGeometry x="1807.7400000000002" y="2826.5" width="280" height="60" as="geometry" />
        </mxCell>
        <mxCell id="3BRQNajPM5yB8tm0Zg5W-567" value="&lt;span style=&quot;font-size: 18px;&quot;&gt;Создание БД&lt;/span&gt;" style="text;html=1;strokeColor=none;fillColor=none;align=center;verticalAlign=middle;whiteSpace=wrap;rounded=0;shadow=0;fontSize=14;fontColor=#FFFFFF;" vertex="1" parent="1">
          <mxGeometry x="1807.7400000000002" y="3126.5" width="280" height="90" as="geometry" />
        </mxCell>
        <mxCell id="3BRQNajPM5yB8tm0Zg5W-568" value="" style="line;strokeWidth=2;html=1;rounded=0;shadow=0;fontSize=27;align=center;fillColor=none;strokeColor=#FFFFFF;" vertex="1" parent="1">
          <mxGeometry x="1827.7400000000002" y="2886.5" width="240" height="10" as="geometry" />
        </mxCell>
        <mxCell id="3BRQNajPM5yB8tm0Zg5W-569" value="" style="line;strokeWidth=2;html=1;rounded=0;shadow=0;fontSize=27;align=center;fillColor=none;strokeColor=#FFFFFF;" vertex="1" parent="1">
          <mxGeometry x="1827.7400000000002" y="3106.5" width="240" height="10" as="geometry" />
        </mxCell>
        <mxCell id="3BRQNajPM5yB8tm0Zg5W-570" value="" style="html=1;shadow=0;dashed=0;align=center;verticalAlign=middle;shape=mxgraph.arrows2.stylisedArrow;dy=0.6;dx=40;notch=15;feather=0.4;rounded=0;strokeWidth=1;fontSize=27;strokeColor=none;fillColor=#fff2cc;" vertex="1" parent="1">
          <mxGeometry x="1897.7400000000002" y="2974.5" width="100" height="60" as="geometry" />
        </mxCell>
        <mxCell id="3BRQNajPM5yB8tm0Zg5W-571" value="&lt;font style=&quot;font-size: 24px;&quot;&gt;Лиза&lt;/font&gt;" style="ellipse;whiteSpace=wrap;html=1;rounded=0;shadow=0;strokeWidth=6;fontSize=14;align=center;fillColor=#BFB4A9;strokeColor=#FFFFFF;fontColor=#FFFFFF;" vertex="1" parent="1">
          <mxGeometry x="1748.7400000000002" y="2949.5" width="115" height="115" as="geometry" />
        </mxCell>
        <mxCell id="3BRQNajPM5yB8tm0Zg5W-572" value="&lt;font style=&quot;font-size: 24px;&quot;&gt;Филипп&lt;/font&gt;" style="ellipse;whiteSpace=wrap;html=1;rounded=0;shadow=0;strokeWidth=6;fontSize=14;align=center;fillColor=#397DAA;strokeColor=#FFFFFF;fontColor=#FFFFFF;" vertex="1" parent="1">
          <mxGeometry x="1748.63" y="2949.5" width="115" height="115" as="geometry" />
        </mxCell>
        <mxCell id="3BRQNajPM5yB8tm0Zg5W-573" value="0" style="whiteSpace=wrap;html=1;rounded=1;shadow=0;strokeWidth=8;fontSize=20;align=center;fillColor=#FFB001;strokeColor=#FFFFFF;" vertex="1" parent="1">
          <mxGeometry x="2093.37" y="2802" width="280" height="430" as="geometry" />
        </mxCell>
        <mxCell id="3BRQNajPM5yB8tm0Zg5W-574" value="" style="whiteSpace=wrap;html=1;rounded=1;shadow=0;strokeWidth=8;fontSize=20;align=center;fillColor=#FFB001;strokeColor=#FFFFFF;" vertex="1" parent="1">
          <mxGeometry x="2095" y="2802" width="280" height="430" as="geometry" />
        </mxCell>
        <mxCell id="3BRQNajPM5yB8tm0Zg5W-575" value="Разделение информации" style="text;html=1;strokeColor=none;fillColor=none;align=center;verticalAlign=middle;whiteSpace=wrap;rounded=0;shadow=0;fontSize=27;fontColor=#FFFFFF;fontStyle=1" vertex="1" parent="1">
          <mxGeometry x="2091.7400000000002" y="2824.5" width="280" height="60" as="geometry" />
        </mxCell>
        <mxCell id="3BRQNajPM5yB8tm0Zg5W-576" value="&lt;span style=&quot;font-size: 18px;&quot;&gt;Создание БД&lt;/span&gt;" style="text;html=1;strokeColor=none;fillColor=none;align=center;verticalAlign=middle;whiteSpace=wrap;rounded=0;shadow=0;fontSize=14;fontColor=#FFFFFF;" vertex="1" parent="1">
          <mxGeometry x="2091.7400000000002" y="3124.5" width="280" height="90" as="geometry" />
        </mxCell>
        <mxCell id="3BRQNajPM5yB8tm0Zg5W-577" value="" style="line;strokeWidth=2;html=1;rounded=0;shadow=0;fontSize=27;align=center;fillColor=none;strokeColor=#FFFFFF;" vertex="1" parent="1">
          <mxGeometry x="2111.7400000000002" y="2884.5" width="240" height="10" as="geometry" />
        </mxCell>
        <mxCell id="3BRQNajPM5yB8tm0Zg5W-578" value="" style="line;strokeWidth=2;html=1;rounded=0;shadow=0;fontSize=27;align=center;fillColor=none;strokeColor=#FFFFFF;" vertex="1" parent="1">
          <mxGeometry x="2111.7400000000002" y="3104.5" width="240" height="10" as="geometry" />
        </mxCell>
        <mxCell id="3BRQNajPM5yB8tm0Zg5W-579" value="" style="html=1;shadow=0;dashed=0;align=center;verticalAlign=middle;shape=mxgraph.arrows2.stylisedArrow;dy=0.6;dx=40;notch=15;feather=0.4;rounded=0;strokeWidth=1;fontSize=27;strokeColor=none;fillColor=#fff2cc;" vertex="1" parent="1">
          <mxGeometry x="2181.7400000000002" y="2972.5" width="100" height="60" as="geometry" />
        </mxCell>
        <mxCell id="3BRQNajPM5yB8tm0Zg5W-580" value="&lt;font style=&quot;font-size: 24px;&quot;&gt;Лиза&lt;/font&gt;" style="ellipse;whiteSpace=wrap;html=1;rounded=0;shadow=0;strokeWidth=6;fontSize=14;align=center;fillColor=#BFB4A9;strokeColor=#FFFFFF;fontColor=#FFFFFF;" vertex="1" parent="1">
          <mxGeometry x="2032.7400000000002" y="2947.5" width="115" height="115" as="geometry" />
        </mxCell>
        <mxCell id="3BRQNajPM5yB8tm0Zg5W-581" value="&lt;font style=&quot;font-size: 24px;&quot;&gt;Филипп&lt;/font&gt;" style="ellipse;whiteSpace=wrap;html=1;rounded=0;shadow=0;strokeWidth=6;fontSize=14;align=center;fillColor=#397DAA;strokeColor=#FFFFFF;fontColor=#FFFFFF;" vertex="1" parent="1">
          <mxGeometry x="2032.63" y="2947.5" width="115" height="115" as="geometry" />
        </mxCell>
        <mxCell id="3BRQNajPM5yB8tm0Zg5W-582" value="0" style="whiteSpace=wrap;html=1;rounded=1;shadow=0;strokeWidth=8;fontSize=20;align=center;fillColor=#FFB001;strokeColor=#FFFFFF;" vertex="1" parent="1">
          <mxGeometry x="2375.37" y="2801" width="280" height="430" as="geometry" />
        </mxCell>
        <mxCell id="3BRQNajPM5yB8tm0Zg5W-583" value="" style="whiteSpace=wrap;html=1;rounded=1;shadow=0;strokeWidth=8;fontSize=20;align=center;fillColor=#FFB001;strokeColor=#FFFFFF;" vertex="1" parent="1">
          <mxGeometry x="2377" y="2801" width="280" height="430" as="geometry" />
        </mxCell>
        <mxCell id="3BRQNajPM5yB8tm0Zg5W-584" value="Разделение информации" style="text;html=1;strokeColor=none;fillColor=none;align=center;verticalAlign=middle;whiteSpace=wrap;rounded=0;shadow=0;fontSize=27;fontColor=#FFFFFF;fontStyle=1" vertex="1" parent="1">
          <mxGeometry x="2373.7400000000002" y="2823.5" width="280" height="60" as="geometry" />
        </mxCell>
        <mxCell id="3BRQNajPM5yB8tm0Zg5W-585" value="&lt;span style=&quot;font-size: 18px;&quot;&gt;Создание БД&lt;/span&gt;" style="text;html=1;strokeColor=none;fillColor=none;align=center;verticalAlign=middle;whiteSpace=wrap;rounded=0;shadow=0;fontSize=14;fontColor=#FFFFFF;" vertex="1" parent="1">
          <mxGeometry x="2373.7400000000002" y="3123.5" width="280" height="90" as="geometry" />
        </mxCell>
        <mxCell id="3BRQNajPM5yB8tm0Zg5W-586" value="" style="line;strokeWidth=2;html=1;rounded=0;shadow=0;fontSize=27;align=center;fillColor=none;strokeColor=#FFFFFF;" vertex="1" parent="1">
          <mxGeometry x="2393.7400000000002" y="2883.5" width="240" height="10" as="geometry" />
        </mxCell>
        <mxCell id="3BRQNajPM5yB8tm0Zg5W-587" value="" style="line;strokeWidth=2;html=1;rounded=0;shadow=0;fontSize=27;align=center;fillColor=none;strokeColor=#FFFFFF;" vertex="1" parent="1">
          <mxGeometry x="2393.7400000000002" y="3103.5" width="240" height="10" as="geometry" />
        </mxCell>
        <mxCell id="3BRQNajPM5yB8tm0Zg5W-588" value="" style="html=1;shadow=0;dashed=0;align=center;verticalAlign=middle;shape=mxgraph.arrows2.stylisedArrow;dy=0.6;dx=40;notch=15;feather=0.4;rounded=0;strokeWidth=1;fontSize=27;strokeColor=none;fillColor=#fff2cc;" vertex="1" parent="1">
          <mxGeometry x="2463.7400000000002" y="2971.5" width="100" height="60" as="geometry" />
        </mxCell>
        <mxCell id="3BRQNajPM5yB8tm0Zg5W-589" value="&lt;font style=&quot;font-size: 24px;&quot;&gt;Лиза&lt;/font&gt;" style="ellipse;whiteSpace=wrap;html=1;rounded=0;shadow=0;strokeWidth=6;fontSize=14;align=center;fillColor=#BFB4A9;strokeColor=#FFFFFF;fontColor=#FFFFFF;" vertex="1" parent="1">
          <mxGeometry x="2314.7400000000002" y="2946.5" width="115" height="115" as="geometry" />
        </mxCell>
        <mxCell id="3BRQNajPM5yB8tm0Zg5W-590" value="&lt;font style=&quot;font-size: 24px;&quot;&gt;Филипп&lt;/font&gt;" style="ellipse;whiteSpace=wrap;html=1;rounded=0;shadow=0;strokeWidth=6;fontSize=14;align=center;fillColor=#397DAA;strokeColor=#FFFFFF;fontColor=#FFFFFF;" vertex="1" parent="1">
          <mxGeometry x="2314.63" y="2946.5" width="115" height="115" as="geometry" />
        </mxCell>
        <mxCell id="3BRQNajPM5yB8tm0Zg5W-600" value="0" style="whiteSpace=wrap;html=1;rounded=1;shadow=0;strokeWidth=8;fontSize=20;align=center;fillColor=#FFB001;strokeColor=#FFFFFF;" vertex="1" parent="1">
          <mxGeometry x="2658.37" y="2798" width="280" height="430" as="geometry" />
        </mxCell>
        <mxCell id="3BRQNajPM5yB8tm0Zg5W-601" value="" style="whiteSpace=wrap;html=1;rounded=1;shadow=0;strokeWidth=8;fontSize=20;align=center;fillColor=#FFB001;strokeColor=#FFFFFF;" vertex="1" parent="1">
          <mxGeometry x="2660" y="2798" width="280" height="430" as="geometry" />
        </mxCell>
        <mxCell id="3BRQNajPM5yB8tm0Zg5W-602" value="Странна" style="text;html=1;strokeColor=none;fillColor=none;align=center;verticalAlign=middle;whiteSpace=wrap;rounded=0;shadow=0;fontSize=27;fontColor=#FFFFFF;fontStyle=1" vertex="1" parent="1">
          <mxGeometry x="2656.7400000000002" y="2820.5" width="280" height="60" as="geometry" />
        </mxCell>
        <mxCell id="3BRQNajPM5yB8tm0Zg5W-603" value="&lt;span style=&quot;font-size: 18px;&quot;&gt;Создание БД&lt;/span&gt;" style="text;html=1;strokeColor=none;fillColor=none;align=center;verticalAlign=middle;whiteSpace=wrap;rounded=0;shadow=0;fontSize=14;fontColor=#FFFFFF;" vertex="1" parent="1">
          <mxGeometry x="2656.7400000000002" y="3120.5" width="280" height="90" as="geometry" />
        </mxCell>
        <mxCell id="3BRQNajPM5yB8tm0Zg5W-604" value="" style="line;strokeWidth=2;html=1;rounded=0;shadow=0;fontSize=27;align=center;fillColor=none;strokeColor=#FFFFFF;" vertex="1" parent="1">
          <mxGeometry x="2676.7400000000002" y="2880.5" width="240" height="10" as="geometry" />
        </mxCell>
        <mxCell id="3BRQNajPM5yB8tm0Zg5W-605" value="" style="line;strokeWidth=2;html=1;rounded=0;shadow=0;fontSize=27;align=center;fillColor=none;strokeColor=#FFFFFF;" vertex="1" parent="1">
          <mxGeometry x="2676.7400000000002" y="3100.5" width="240" height="10" as="geometry" />
        </mxCell>
        <mxCell id="3BRQNajPM5yB8tm0Zg5W-606" value="" style="html=1;shadow=0;dashed=0;align=center;verticalAlign=middle;shape=mxgraph.arrows2.stylisedArrow;dy=0.6;dx=40;notch=15;feather=0.4;rounded=0;strokeWidth=1;fontSize=27;strokeColor=none;fillColor=#fff2cc;" vertex="1" parent="1">
          <mxGeometry x="2746.7400000000002" y="2968.5" width="100" height="60" as="geometry" />
        </mxCell>
        <mxCell id="3BRQNajPM5yB8tm0Zg5W-607" value="&lt;font style=&quot;font-size: 24px;&quot;&gt;Лиза&lt;/font&gt;" style="ellipse;whiteSpace=wrap;html=1;rounded=0;shadow=0;strokeWidth=6;fontSize=14;align=center;fillColor=#BFB4A9;strokeColor=#FFFFFF;fontColor=#FFFFFF;" vertex="1" parent="1">
          <mxGeometry x="2597.7400000000002" y="2943.5" width="115" height="115" as="geometry" />
        </mxCell>
        <mxCell id="3BRQNajPM5yB8tm0Zg5W-608" value="&lt;font style=&quot;font-size: 24px;&quot;&gt;Филипп&lt;/font&gt;" style="ellipse;whiteSpace=wrap;html=1;rounded=0;shadow=0;strokeWidth=6;fontSize=14;align=center;fillColor=#397DAA;strokeColor=#FFFFFF;fontColor=#FFFFFF;" vertex="1" parent="1">
          <mxGeometry x="2597.63" y="2943.5" width="115" height="115" as="geometry" />
        </mxCell>
        <mxCell id="3BRQNajPM5yB8tm0Zg5W-609" value="0" style="whiteSpace=wrap;html=1;rounded=1;shadow=0;strokeWidth=8;fontSize=20;align=center;fillColor=#FFB001;strokeColor=#FFFFFF;" vertex="1" parent="1">
          <mxGeometry x="2940" y="2796" width="280" height="430" as="geometry" />
        </mxCell>
        <mxCell id="3BRQNajPM5yB8tm0Zg5W-610" value="" style="whiteSpace=wrap;html=1;rounded=1;shadow=0;strokeWidth=8;fontSize=20;align=center;fillColor=#FFB001;strokeColor=#FFFFFF;" vertex="1" parent="1">
          <mxGeometry x="2941.63" y="2796" width="280" height="430" as="geometry" />
        </mxCell>
        <mxCell id="3BRQNajPM5yB8tm0Zg5W-611" value="Город" style="text;html=1;strokeColor=none;fillColor=none;align=center;verticalAlign=middle;whiteSpace=wrap;rounded=0;shadow=0;fontSize=27;fontColor=#FFFFFF;fontStyle=1" vertex="1" parent="1">
          <mxGeometry x="2938.3700000000003" y="2818.5" width="280" height="60" as="geometry" />
        </mxCell>
        <mxCell id="3BRQNajPM5yB8tm0Zg5W-612" value="&lt;span style=&quot;font-size: 18px;&quot;&gt;Создание БД&lt;/span&gt;" style="text;html=1;strokeColor=none;fillColor=none;align=center;verticalAlign=middle;whiteSpace=wrap;rounded=0;shadow=0;fontSize=14;fontColor=#FFFFFF;" vertex="1" parent="1">
          <mxGeometry x="2938.3700000000003" y="3118.5" width="280" height="90" as="geometry" />
        </mxCell>
        <mxCell id="3BRQNajPM5yB8tm0Zg5W-613" value="" style="line;strokeWidth=2;html=1;rounded=0;shadow=0;fontSize=27;align=center;fillColor=none;strokeColor=#FFFFFF;" vertex="1" parent="1">
          <mxGeometry x="2958.3700000000003" y="2878.5" width="240" height="10" as="geometry" />
        </mxCell>
        <mxCell id="3BRQNajPM5yB8tm0Zg5W-614" value="" style="line;strokeWidth=2;html=1;rounded=0;shadow=0;fontSize=27;align=center;fillColor=none;strokeColor=#FFFFFF;" vertex="1" parent="1">
          <mxGeometry x="2958.3700000000003" y="3098.5" width="240" height="10" as="geometry" />
        </mxCell>
        <mxCell id="3BRQNajPM5yB8tm0Zg5W-615" value="" style="html=1;shadow=0;dashed=0;align=center;verticalAlign=middle;shape=mxgraph.arrows2.stylisedArrow;dy=0.6;dx=40;notch=15;feather=0.4;rounded=0;strokeWidth=1;fontSize=27;strokeColor=none;fillColor=#fff2cc;" vertex="1" parent="1">
          <mxGeometry x="3028.3700000000003" y="2966.5" width="100" height="60" as="geometry" />
        </mxCell>
        <mxCell id="3BRQNajPM5yB8tm0Zg5W-616" value="&lt;font style=&quot;font-size: 24px;&quot;&gt;Лиза&lt;/font&gt;" style="ellipse;whiteSpace=wrap;html=1;rounded=0;shadow=0;strokeWidth=6;fontSize=14;align=center;fillColor=#BFB4A9;strokeColor=#FFFFFF;fontColor=#FFFFFF;" vertex="1" parent="1">
          <mxGeometry x="2879.3700000000003" y="2941.5" width="115" height="115" as="geometry" />
        </mxCell>
        <mxCell id="3BRQNajPM5yB8tm0Zg5W-617" value="&lt;font style=&quot;font-size: 24px;&quot;&gt;Филипп&lt;/font&gt;" style="ellipse;whiteSpace=wrap;html=1;rounded=0;shadow=0;strokeWidth=6;fontSize=14;align=center;fillColor=#397DAA;strokeColor=#FFFFFF;fontColor=#FFFFFF;" vertex="1" parent="1">
          <mxGeometry x="2879.26" y="2941.5" width="115" height="115" as="geometry" />
        </mxCell>
        <mxCell id="3BRQNajPM5yB8tm0Zg5W-627" value="0" style="whiteSpace=wrap;html=1;rounded=1;shadow=0;strokeWidth=8;fontSize=20;align=center;fillColor=#FFB001;strokeColor=#FFFFFF;" vertex="1" parent="1">
          <mxGeometry x="2948" y="2263.5" width="280" height="430" as="geometry" />
        </mxCell>
        <mxCell id="3BRQNajPM5yB8tm0Zg5W-628" value="" style="whiteSpace=wrap;html=1;rounded=1;shadow=0;strokeWidth=8;fontSize=20;align=center;fillColor=#FFB001;strokeColor=#FFFFFF;" vertex="1" parent="1">
          <mxGeometry x="2949.63" y="2263.5" width="280" height="430" as="geometry" />
        </mxCell>
        <mxCell id="3BRQNajPM5yB8tm0Zg5W-629" value="Разделение информации" style="text;html=1;strokeColor=none;fillColor=none;align=center;verticalAlign=middle;whiteSpace=wrap;rounded=0;shadow=0;fontSize=27;fontColor=#FFFFFF;fontStyle=1" vertex="1" parent="1">
          <mxGeometry x="2946.3700000000003" y="2286" width="280" height="60" as="geometry" />
        </mxCell>
        <mxCell id="3BRQNajPM5yB8tm0Zg5W-630" value="&lt;span style=&quot;font-size: 18px;&quot;&gt;Выудить страну&lt;/span&gt;" style="text;html=1;strokeColor=none;fillColor=none;align=center;verticalAlign=middle;whiteSpace=wrap;rounded=0;shadow=0;fontSize=14;fontColor=#FFFFFF;" vertex="1" parent="1">
          <mxGeometry x="2946.3700000000003" y="2586" width="280" height="90" as="geometry" />
        </mxCell>
        <mxCell id="3BRQNajPM5yB8tm0Zg5W-631" value="" style="line;strokeWidth=2;html=1;rounded=0;shadow=0;fontSize=27;align=center;fillColor=none;strokeColor=#FFFFFF;" vertex="1" parent="1">
          <mxGeometry x="2966.3700000000003" y="2346" width="240" height="10" as="geometry" />
        </mxCell>
        <mxCell id="3BRQNajPM5yB8tm0Zg5W-632" value="" style="line;strokeWidth=2;html=1;rounded=0;shadow=0;fontSize=27;align=center;fillColor=none;strokeColor=#FFFFFF;" vertex="1" parent="1">
          <mxGeometry x="2966.3700000000003" y="2566" width="240" height="10" as="geometry" />
        </mxCell>
        <mxCell id="3BRQNajPM5yB8tm0Zg5W-633" value="" style="html=1;shadow=0;dashed=0;align=center;verticalAlign=middle;shape=mxgraph.arrows2.stylisedArrow;dy=0.6;dx=40;notch=15;feather=0.4;rounded=0;strokeWidth=1;fontSize=27;strokeColor=none;fillColor=#fff2cc;" vertex="1" parent="1">
          <mxGeometry x="3036.3700000000003" y="2434" width="100" height="60" as="geometry" />
        </mxCell>
        <mxCell id="3BRQNajPM5yB8tm0Zg5W-634" value="&lt;font style=&quot;font-size: 24px;&quot;&gt;Лиза&lt;/font&gt;" style="ellipse;whiteSpace=wrap;html=1;rounded=0;shadow=0;strokeWidth=6;fontSize=14;align=center;fillColor=#BFB4A9;strokeColor=#FFFFFF;fontColor=#FFFFFF;" vertex="1" parent="1">
          <mxGeometry x="2887.3700000000003" y="2409" width="115" height="115" as="geometry" />
        </mxCell>
        <mxCell id="3BRQNajPM5yB8tm0Zg5W-635" value="&lt;font style=&quot;font-size: 24px;&quot;&gt;Филипп&lt;/font&gt;" style="ellipse;whiteSpace=wrap;html=1;rounded=0;shadow=0;strokeWidth=6;fontSize=14;align=center;fillColor=#397DAA;strokeColor=#FFFFFF;fontColor=#FFFFFF;" vertex="1" parent="1">
          <mxGeometry x="2887.26" y="2409" width="115" height="115" as="geometry" />
        </mxCell>
        <mxCell id="3BRQNajPM5yB8tm0Zg5W-470" value="&lt;font style=&quot;font-size: 24px;&quot;&gt;Филипп&lt;/font&gt;" style="ellipse;whiteSpace=wrap;html=1;rounded=0;shadow=0;strokeWidth=6;fontSize=14;align=center;fillColor=#397DAA;strokeColor=#FFFFFF;fontColor=#FFFFFF;" vertex="1" parent="1">
          <mxGeometry x="3168.37" y="2408.5" width="115" height="115" as="geometry" />
        </mxCell>
        <mxCell id="3BRQNajPM5yB8tm0Zg5W-636" value="0" style="whiteSpace=wrap;html=1;rounded=1;shadow=0;strokeWidth=8;fontSize=20;align=center;fillColor=#FFB001;strokeColor=#FFFFFF;" vertex="1" parent="1">
          <mxGeometry x="3218.74" y="2793" width="280" height="430" as="geometry" />
        </mxCell>
        <mxCell id="3BRQNajPM5yB8tm0Zg5W-637" value="" style="whiteSpace=wrap;html=1;rounded=1;shadow=0;strokeWidth=8;fontSize=20;align=center;fillColor=#FFB001;strokeColor=#FFFFFF;" vertex="1" parent="1">
          <mxGeometry x="3220.37" y="2793" width="280" height="430" as="geometry" />
        </mxCell>
        <mxCell id="3BRQNajPM5yB8tm0Zg5W-638" value="Область" style="text;html=1;strokeColor=none;fillColor=none;align=center;verticalAlign=middle;whiteSpace=wrap;rounded=0;shadow=0;fontSize=27;fontColor=#FFFFFF;fontStyle=1" vertex="1" parent="1">
          <mxGeometry x="3217.11" y="2815.5" width="280" height="60" as="geometry" />
        </mxCell>
        <mxCell id="3BRQNajPM5yB8tm0Zg5W-639" value="&lt;span style=&quot;font-size: 18px;&quot;&gt;Создание БД&lt;/span&gt;" style="text;html=1;strokeColor=none;fillColor=none;align=center;verticalAlign=middle;whiteSpace=wrap;rounded=0;shadow=0;fontSize=14;fontColor=#FFFFFF;" vertex="1" parent="1">
          <mxGeometry x="3217.11" y="3115.5" width="280" height="90" as="geometry" />
        </mxCell>
        <mxCell id="3BRQNajPM5yB8tm0Zg5W-640" value="" style="line;strokeWidth=2;html=1;rounded=0;shadow=0;fontSize=27;align=center;fillColor=none;strokeColor=#FFFFFF;" vertex="1" parent="1">
          <mxGeometry x="3237.11" y="2875.5" width="240" height="10" as="geometry" />
        </mxCell>
        <mxCell id="3BRQNajPM5yB8tm0Zg5W-641" value="" style="line;strokeWidth=2;html=1;rounded=0;shadow=0;fontSize=27;align=center;fillColor=none;strokeColor=#FFFFFF;" vertex="1" parent="1">
          <mxGeometry x="3237.11" y="3095.5" width="240" height="10" as="geometry" />
        </mxCell>
        <mxCell id="3BRQNajPM5yB8tm0Zg5W-642" value="" style="html=1;shadow=0;dashed=0;align=center;verticalAlign=middle;shape=mxgraph.arrows2.stylisedArrow;dy=0.6;dx=40;notch=15;feather=0.4;rounded=0;strokeWidth=1;fontSize=27;strokeColor=none;fillColor=#fff2cc;" vertex="1" parent="1">
          <mxGeometry x="3307.11" y="2963.5" width="100" height="60" as="geometry" />
        </mxCell>
        <mxCell id="3BRQNajPM5yB8tm0Zg5W-643" value="&lt;font style=&quot;font-size: 24px;&quot;&gt;Лиза&lt;/font&gt;" style="ellipse;whiteSpace=wrap;html=1;rounded=0;shadow=0;strokeWidth=6;fontSize=14;align=center;fillColor=#BFB4A9;strokeColor=#FFFFFF;fontColor=#FFFFFF;" vertex="1" parent="1">
          <mxGeometry x="3158.11" y="2938.5" width="115" height="115" as="geometry" />
        </mxCell>
        <mxCell id="3BRQNajPM5yB8tm0Zg5W-644" value="&lt;font style=&quot;font-size: 24px;&quot;&gt;Филипп&lt;/font&gt;" style="ellipse;whiteSpace=wrap;html=1;rounded=0;shadow=0;strokeWidth=6;fontSize=14;align=center;fillColor=#397DAA;strokeColor=#FFFFFF;fontColor=#FFFFFF;" vertex="1" parent="1">
          <mxGeometry x="3158" y="2938.5" width="115" height="115" as="geometry" />
        </mxCell>
      </root>
    </mxGraphModel>
  </diagram>
</mxfile>
